<svg width="259" height="61" viewBox="0 0 259 61" fill="none" xmlns="http://www.w3.org/2000/svg">
<g filter="url(#filter0_d_49_6)">
<path d="M9 -2H259V1C259 23.0914 241.091 41 219 41H49C26.9086 41 9 23.0914 9 0.999999V-2Z" fill="url(#paint0_linear_49_6)" shape-rendering="crispEdges"/>
</g>
<path d="M63.2672 33L67.0422 15.15H70.7672L68.9922 23.5L75.5922 15.15H79.7922L72.6922 23.975L76.2922 33H72.1672L68.8422 24.225L66.9922 33H63.2672ZM77.0604 39C76.627 39 76.2687 38.975 75.9854 38.925C75.702 38.8917 75.4604 38.8417 75.2604 38.775V35.85C75.477 35.8833 75.702 35.9167 75.9354 35.95C76.152 35.9833 76.402 36 76.6854 36C77.4687 36 78.1104 35.775 78.6104 35.325C79.1104 34.875 79.5437 34.3 79.9104 33.6L80.2354 33L78.2354 19.35H81.8354L82.5104 25.675C82.577 26.2417 82.6187 26.8583 82.6354 27.525C82.652 28.1917 82.6604 28.7667 82.6604 29.25H82.7604C82.927 28.8333 83.1104 28.35 83.3104 27.8C83.5104 27.2333 83.7687 26.6083 84.0854 25.925L87.2604 19.35H91.2604L82.9604 34.95C82.227 36.3333 81.3604 37.35 80.3604 38C79.377 38.6667 78.277 39 77.0604 39ZM89.8992 33L92.7992 19.35H95.5992L95.3492 21.875H95.4492C95.9826 21.0583 96.5909 20.3917 97.2742 19.875C97.9742 19.3583 98.7992 19.1 99.7492 19.1C100.933 19.1 101.816 19.4583 102.399 20.175C102.983 20.875 103.274 21.825 103.274 23.025C103.274 23.625 103.183 24.3583 102.999 25.225L101.374 33H97.6992L99.3742 25.025C99.5076 24.4417 99.5742 23.9583 99.5742 23.575C99.5742 22.575 99.1326 22.075 98.2492 22.075C97.6992 22.075 97.1992 22.3167 96.7492 22.8C96.2992 23.2667 95.9076 23.9 95.5742 24.7C95.2576 25.5 94.9909 26.3833 94.7742 27.35L93.5742 33H89.8992ZM108.987 33.25C108.337 33.25 107.712 33.0917 107.112 32.775C106.529 32.4417 106.054 31.9167 105.687 31.2C105.32 30.4667 105.137 29.5 105.137 28.3C105.137 27.1833 105.287 26.0833 105.587 25C105.887 23.9167 106.312 22.9333 106.862 22.05C107.412 21.15 108.07 20.4333 108.837 19.9C109.62 19.3667 110.495 19.1 111.462 19.1C112.329 19.1 113.029 19.2833 113.562 19.65C114.112 20.0167 114.537 20.5 114.837 21.1H114.937L115.637 19.35H118.462L115.562 33H112.812L112.987 31.225H112.887C112.404 31.825 111.845 32.3167 111.212 32.7C110.595 33.0667 109.854 33.25 108.987 33.25ZM110.437 30.275C110.937 30.275 111.404 30.075 111.837 29.675C112.27 29.275 112.637 28.7583 112.937 28.125C113.254 27.4917 113.479 26.825 113.612 26.125C113.729 25.525 113.787 24.8417 113.787 24.075C113.787 23.4917 113.637 23.0167 113.337 22.65C113.037 22.2667 112.62 22.075 112.087 22.075C111.637 22.075 111.212 22.2583 110.812 22.625C110.429 22.975 110.087 23.4417 109.787 24.025C109.504 24.6083 109.279 25.2583 109.112 25.975C108.945 26.6917 108.862 27.4083 108.862 28.125C108.862 29.5583 109.387 30.275 110.437 30.275ZM119.481 33.25C118.781 33.25 118.173 33.15 117.656 32.95V29.925C117.973 30.0583 118.314 30.125 118.681 30.125C119.114 30.125 119.473 29.9333 119.756 29.55C120.039 29.15 120.298 28.625 120.531 27.975C120.764 27.325 121.014 26.6167 121.281 25.85C121.681 24.7 122.081 23.7 122.481 22.85C122.881 22 123.348 21.3 123.881 20.75C124.414 20.2 125.089 19.7917 125.906 19.525C126.723 19.2417 127.748 19.1 128.981 19.1C129.814 19.1 130.606 19.175 131.356 19.325C132.123 19.4583 132.739 19.6167 133.206 19.8L130.431 33H126.756L129.056 22.2C128.939 22.1667 128.814 22.1417 128.681 22.125C128.548 22.1083 128.414 22.1 128.281 22.1C127.614 22.1 127.073 22.2917 126.656 22.675C126.256 23.0583 125.906 23.625 125.606 24.375C125.306 25.125 124.964 26.0583 124.581 27.175C124.298 28.0083 124.014 28.7917 123.731 29.525C123.464 30.2583 123.148 30.9083 122.781 31.475C122.414 32.025 121.964 32.4583 121.431 32.775C120.914 33.0917 120.264 33.25 119.481 33.25ZM139.412 33.25C138.228 33.25 137.278 33.075 136.562 32.725C135.845 32.375 135.328 31.9 135.012 31.3C134.695 30.6833 134.537 30 134.537 29.25C134.537 28.6833 134.637 27.95 134.837 27.05L136.487 19.35H140.162L138.962 24.9C139.312 24.8167 139.703 24.75 140.137 24.7C140.57 24.65 141.062 24.625 141.612 24.625C143.045 24.625 144.12 24.9833 144.837 25.7C145.57 26.4 145.937 27.275 145.937 28.325C145.937 29.125 145.728 29.9 145.312 30.65C144.895 31.4 144.212 32.025 143.262 32.525C142.312 33.0083 141.028 33.25 139.412 33.25ZM139.937 30.675C140.703 30.675 141.278 30.4833 141.662 30.1C142.045 29.7 142.237 29.2333 142.237 28.7C142.237 28.25 142.103 27.8917 141.837 27.625C141.57 27.3417 141.095 27.2 140.412 27.2C139.845 27.2 139.195 27.275 138.462 27.425C138.362 27.8583 138.287 28.1917 138.237 28.425C138.203 28.6583 138.187 28.8917 138.187 29.125C138.187 29.5417 138.32 29.9083 138.587 30.225C138.853 30.525 139.303 30.675 139.937 30.675ZM147.299 33L150.224 19.35H153.924L152.799 24.6H157.049L158.149 19.35H161.824L158.924 33H155.249L156.424 27.375H152.199L150.999 33H147.299ZM166.579 33.25C165.412 33.25 164.537 32.9 163.954 32.2C163.387 31.4833 163.104 30.525 163.104 29.325C163.104 29.025 163.129 28.6417 163.179 28.175C163.229 27.6917 163.304 27.2083 163.404 26.725L164.954 19.35H168.629L166.954 27.325C166.821 27.9083 166.754 28.3917 166.754 28.775C166.754 29.775 167.196 30.275 168.079 30.275C168.646 30.275 169.146 30.0417 169.579 29.575C170.029 29.0917 170.421 28.45 170.754 27.65C171.087 26.85 171.354 25.9667 171.554 25L172.754 19.35H176.429L173.529 33H170.729L170.979 30.475H170.854C170.337 31.2917 169.729 31.9583 169.029 32.475C168.346 32.9917 167.529 33.25 166.579 33.25ZM176.792 33L179.717 19.35H183.392L182.042 25.7L187.417 19.35H191.617L185.767 26.2L189.142 33H185.017L181.892 26.35L180.467 33H176.792ZM195.12 33.25C193.953 33.25 193.078 32.9 192.495 32.2C191.928 31.4833 191.645 30.525 191.645 29.325C191.645 29.025 191.67 28.6417 191.72 28.175C191.77 27.6917 191.845 27.2083 191.945 26.725L193.495 19.35H197.17L195.495 27.325C195.362 27.9083 195.295 28.3917 195.295 28.775C195.295 29.775 195.737 30.275 196.62 30.275C197.187 30.275 197.687 30.0417 198.12 29.575C198.57 29.0917 198.962 28.45 199.295 27.65C199.628 26.85 199.895 25.9667 200.095 25L201.295 19.35H204.97L202.07 33H199.27L199.52 30.475H199.395C198.878 31.2917 198.27 31.9583 197.57 32.475C196.887 32.9917 196.07 33.25 195.12 33.25Z" fill="#FF228C"/>
<defs>
<filter id="filter0_d_49_6" x="0" y="-2" width="268" height="63" filterUnits="userSpaceOnUse" color-interpolation-filters="sRGB">
<feFlood flood-opacity="0" result="BackgroundImageFix"/>
<feColorMatrix in="SourceAlpha" type="matrix" values="0 0 0 0 0 0 0 0 0 0 0 0 0 0 0 0 0 0 127 0" result="hardAlpha"/>
<feOffset dy="11"/>
<feGaussianBlur stdDeviation="4.5"/>
<feComposite in2="hardAlpha" operator="out"/>
<feColorMatrix type="matrix" values="0 0 0 0 0 0 0 0 0 0 0 0 0 0 0 0 0 0 0.53 0"/>
<feBlend mode="normal" in2="BackgroundImageFix" result="effect1_dropShadow_49_6"/>
<feBlend mode="normal" in="SourceGraphic" in2="effect1_dropShadow_49_6" result="shape"/>
</filter>
<linearGradient id="paint0_linear_49_6" x1="134" y1="-2" x2="134" y2="41" gradientUnits="userSpaceOnUse">
<stop stop-color="#B3AEAE" stop-opacity="0.88"/>
<stop offset="1" stop-color="#5F5F5F" stop-opacity="0.2"/>
</linearGradient>
</defs>
</svg>
