<svg width="1390" height="114" viewBox="0 0 1390 114" fill="none" xmlns="http://www.w3.org/2000/svg">
<path d="M0 60C0 26.8629 26.8629 0 60 0H1330C1363.14 0 1390 26.8629 1390 60V105H0V60Z" fill="url(#paint0_linear_25_3)"/>
<path d="M373.041 84L387.117 23.28H434.405L431.461 35.516H400.089L397.237 47.844H421.985L419.317 59.344H394.569L391.717 71.764H424.101L421.249 84H373.041ZM465.067 38H482.639L455.775 84H437.007L431.303 38H446.759L448.323 73.972L465.067 38ZM502.007 84.92C497.284 84.92 493.236 84 489.863 82.16C486.49 80.32 483.883 77.836 482.043 74.708C480.203 71.58 479.283 68.0227 479.283 64.036C479.283 59.068 480.295 54.56 482.319 50.512C484.404 46.4027 487.379 43.152 491.243 40.76C495.168 38.3067 499.922 37.08 505.503 37.08C510.226 37.08 514.274 38 517.647 39.84C521.02 41.68 523.627 44.164 525.467 47.292C527.307 50.42 528.227 53.9773 528.227 57.964C528.227 62.932 527.184 67.44 525.099 71.488C523.075 75.536 520.1 78.7867 516.175 81.24C512.311 83.6933 507.588 84.92 502.007 84.92ZM502.191 73.88C504.338 73.88 506.208 73.0213 507.803 71.304C509.398 69.5253 510.624 67.3173 511.483 64.68C512.403 62.0427 512.863 59.3747 512.863 56.676C512.863 54.0387 512.219 51.9533 510.931 50.42C509.643 48.8867 507.742 48.12 505.227 48.12C503.142 48.12 501.302 49.0093 499.707 50.788C498.112 52.5053 496.855 54.6827 495.935 57.32C495.015 59.9573 494.555 62.6253 494.555 65.324C494.555 67.9 495.199 69.9853 496.487 71.58C497.836 73.1133 499.738 73.88 502.191 73.88ZM555.791 84.92C550.946 84.92 546.775 84.0307 543.279 82.252C539.844 80.412 537.207 77.928 535.367 74.8C533.527 71.6107 532.607 67.992 532.607 63.944C532.607 59.0373 533.619 54.56 535.643 50.512C537.728 46.4027 540.734 43.152 544.659 40.76C548.584 38.3067 553.368 37.08 559.011 37.08C563.243 37.08 566.923 37.7853 570.051 39.196C573.24 40.6067 575.724 42.5693 577.503 45.084C579.343 47.5987 580.324 50.5427 580.447 53.916L565.451 56.308C565.574 53.916 565.144 51.984 564.163 50.512C563.182 49.04 561.434 48.304 558.919 48.304C556.65 48.304 554.687 49.1627 553.031 50.88C551.375 52.5973 550.087 54.7747 549.167 57.412C548.308 60.0493 547.879 62.6867 547.879 65.324C547.879 67.9613 548.584 70.0467 549.995 71.58C551.406 73.1133 553.368 73.88 555.883 73.88C557.539 73.88 559.072 73.328 560.483 72.224C561.894 71.0587 562.906 69.5253 563.519 67.624L577.503 72.132C575.786 76.0573 573.026 79.1853 569.223 81.516C565.42 83.7853 560.943 84.92 555.791 84.92ZM579.479 84L594.659 18.496H610.299L604.043 45.728C605.576 43.2133 607.631 41.1587 610.207 39.564C612.844 37.908 615.972 37.08 619.591 37.08C622.596 37.08 625.203 37.7853 627.411 39.196C629.619 40.6067 631.152 42.6307 632.011 45.268C632.931 47.844 632.992 50.88 632.195 54.376L625.295 84H609.655L616.003 56.86C616.555 54.4067 616.34 52.5053 615.359 51.156C614.377 49.7453 612.783 49.04 610.575 49.04C605.668 49.04 602.448 52.4133 600.915 59.16L595.119 84H579.479ZM664.701 18.496L655.961 56.308L675.741 38H693.865L673.073 56.124L685.033 84H669.669L662.033 64.956L651.913 73.788L649.521 84H633.881L649.061 18.496H664.701ZM704.538 84.828C699.938 84.828 696.104 83.2333 693.038 80.044C690.032 76.8547 688.53 72.2853 688.53 66.336C688.53 62.656 689.051 59.068 690.094 55.572C691.136 52.076 692.639 48.948 694.602 46.188C696.626 43.3667 699.018 41.1587 701.778 39.564C704.599 37.908 707.758 37.08 711.254 37.08C714.32 37.08 717.111 37.908 719.626 39.564C722.202 41.22 723.858 43.9187 724.594 47.66L726.802 38H742.442L731.77 84H717.602L719.166 75.352C717.694 78.296 715.67 80.6267 713.094 82.344C710.518 84 707.666 84.828 704.538 84.828ZM711.346 73.42C713.431 73.42 715.24 72.592 716.774 70.936C718.368 69.2187 719.626 67.1027 720.546 64.588C721.466 62.0733 721.926 59.528 721.926 56.952C721.926 54.376 721.282 52.352 719.994 50.88C718.767 49.3467 717.05 48.58 714.842 48.58C712.572 48.58 710.61 49.4387 708.954 51.156C707.359 52.8733 706.132 54.9893 705.274 57.504C704.415 59.9573 703.986 62.3187 703.986 64.588C703.986 67.4093 704.599 69.5867 705.826 71.12C707.052 72.6533 708.892 73.42 711.346 73.42ZM795.557 85.012C789.117 85.012 783.26 83.7547 777.985 81.24C772.772 78.7253 768.571 74.9533 765.381 69.924L774.673 60.816C776.145 63.392 777.985 65.6 780.193 67.44C782.463 69.2187 784.916 70.568 787.553 71.488C790.191 72.3467 792.828 72.776 795.465 72.776C798.287 72.776 800.372 72.1933 801.721 71.028C803.071 69.8013 803.745 68.3907 803.745 66.796C803.745 65.508 803.255 64.4653 802.273 63.668C801.292 62.8707 799.82 62.1653 797.857 61.552L788.749 58.608C784.64 57.2587 781.144 55.2347 778.261 52.536C775.44 49.776 774.029 46.188 774.029 41.772C774.029 37.6627 775.072 34.1667 777.157 31.284C779.304 28.4013 782.217 26.1933 785.897 24.66C789.639 23.1267 793.901 22.36 798.685 22.36C805.003 22.36 810.339 23.4947 814.693 25.764C819.048 27.972 822.636 31.1 825.457 35.148L815.797 43.98C813.896 40.7293 811.381 38.368 808.253 36.896C805.187 35.3627 801.997 34.596 798.685 34.596C795.864 34.596 793.779 35.148 792.429 36.252C791.141 37.2947 790.497 38.6133 790.497 40.208C790.497 41.4347 791.08 42.5693 792.245 43.612C793.472 44.5933 795.067 45.3907 797.029 46.004L806.137 48.948C810.737 50.42 814.233 52.444 816.625 55.02C819.017 57.596 820.213 60.908 820.213 64.956C820.213 69.1267 819.109 72.7147 816.901 75.72C814.755 78.7253 811.811 81.0253 808.069 82.62C804.328 84.2147 800.157 85.012 795.557 85.012ZM845.573 84.828C839.869 84.828 835.514 83.356 832.509 80.412C829.565 77.4067 828.768 72.9907 830.117 67.164L834.257 49.132H825.701L828.277 38H836.833L839.041 28.064L855.785 23.648L852.473 38H864.985L862.409 49.132H849.897L845.757 66.796C845.144 69.188 845.42 70.9973 846.585 72.224C847.812 73.3893 849.59 73.972 851.921 73.972C853.332 73.972 854.466 73.8493 855.325 73.604C856.184 73.3587 856.981 73.052 857.717 72.684L856.797 82.712C855.141 83.5093 853.362 84.0613 851.461 84.368C849.56 84.6747 847.597 84.828 845.573 84.828ZM864.299 103.78C861.662 103.78 859.239 103.473 857.031 102.86C854.823 102.308 853.075 101.541 851.787 100.56L856.111 89.612C858.258 91.3907 860.895 92.28 864.023 92.28C867.458 92.28 870.095 90.8693 871.935 88.048L873.775 85.012L865.679 38H881.503L882.883 62.748L883.251 73.972L888.495 63.024L900.639 38H917.291L887.667 87.864C884.294 93.568 880.829 97.6467 877.271 100.1C873.714 102.553 869.39 103.78 864.299 103.78ZM926.456 84.828C920.936 84.828 917.041 83.3253 914.772 80.32C912.564 77.2533 912.073 73.1747 913.3 68.084L924.8 18.496H940.44L929.032 67.9C928.051 71.948 929.492 73.972 933.356 73.972C934.828 73.972 935.932 73.8493 936.668 73.604L933.908 83.724C932.068 84.46 929.584 84.828 926.456 84.828ZM963.644 84.828C959.106 84.828 955.119 83.9693 951.684 82.252C948.25 80.5347 945.582 78.112 943.68 74.984C941.779 71.856 940.828 68.176 940.828 63.944C940.828 58.792 941.871 54.192 943.956 50.144C946.103 46.096 949.108 42.9373 952.972 40.668C956.898 38.3373 961.559 37.172 966.956 37.172C973.642 37.172 978.824 39.0427 982.504 42.784C986.246 46.464 988.116 51.432 988.116 57.688C988.116 58.8533 988.055 60.08 987.932 61.368C987.81 62.656 987.564 63.9133 987.196 65.14H955.364C955.426 68.0227 956.284 70.2307 957.94 71.764C959.596 73.236 961.712 73.972 964.288 73.972C966.496 73.972 968.275 73.4813 969.624 72.5C970.974 71.4573 972.016 70.1693 972.752 68.636L985.632 73.696C983.976 77.192 981.186 79.9213 977.26 81.884C973.335 83.8467 968.796 84.828 963.644 84.828ZM966.588 48.028C963.767 48.028 961.559 48.8867 959.964 50.604C958.37 52.26 957.204 54.284 956.468 56.676H973.12C973.182 56.2467 973.212 55.7253 973.212 55.112C973.212 52.7813 972.599 51.0333 971.372 49.868C970.146 48.6413 968.551 48.028 966.588 48.028Z" fill="#FF228C"/>
<path d="M112.167 1.23719C122.917 2.48168 132.184 7.20779 139.637 15.2081C145.414 21.4158 149.473 29.0753 151.468 37.5201C151.855 39.2239 152.146 40.7943 152.479 43.224C152.77 45.3871 152.811 52.3651 152.548 54.4837C151.371 63.773 148.891 70.677 144.236 77.7291C140.953 82.6922 136.063 87.5221 130.938 90.8555C130.467 91.1667 130.079 91.463 130.079 91.537C130.079 91.6556 132.448 93.0186 139.845 97.1521C144.001 99.4781 146.217 100.871 155.402 106.915C161.303 110.782 166.069 113.982 165.999 113.997C165.93 114.027 165.39 113.819 164.808 113.538C160.32 111.345 145.829 104.723 145.705 104.797C145.608 104.856 145.594 104.841 145.649 104.738C145.719 104.619 145.635 104.575 145.428 104.589C144.777 104.634 141.272 102.841 133.265 98.3373C129.067 95.9668 127.945 95.4483 126.435 95.1668C123.623 94.6483 123.956 94.6335 121.905 95.3446C118.428 96.5298 115.131 97.2706 111.751 97.6114C109.438 97.8336 103.675 97.7151 101.611 97.3891C95.7651 96.4557 90.9304 94.7668 86.0958 91.9519C77.216 86.7961 70.3034 78.6773 66.1476 68.5584C65.4965 66.9879 64.0142 62.3952 63.9865 61.9211C63.9865 61.7729 63.945 61.7433 63.9034 61.847C63.8619 61.9655 63.5709 61.6396 63.2108 61.1062C62.8644 60.6025 61.9502 59.521 61.1744 58.7061C59.6229 57.0616 59.1796 56.7505 54.7189 54.2615C49.2332 51.1947 48.6791 50.8836 47.7232 50.3354C47.183 50.0243 45.9362 49.328 44.9526 48.7798C43.9552 48.2316 42.7085 47.5205 42.1821 47.2242C41.6418 46.9131 40.492 46.2612 39.6193 45.7723C34.5491 42.9425 29.2989 39.9943 28.3292 39.4461C26.459 38.3794 22.7049 36.3497 21.4997 35.7571C20.8763 35.4459 20.3638 35.12 20.3638 35.0459C20.3638 34.9718 20.2945 34.957 20.2252 35.0015C20.1421 35.0459 20.0867 35.0311 20.0867 34.957C20.0867 34.883 18.8815 34.2311 17.4131 33.5199C12.1074 30.9272 10.2511 29.8309 3.94808 25.6233C1.95326 24.3048 0.554117 23.2677 0.457147 23.0603C0.346324 22.8529 0.277059 22.7936 0.277059 22.9269C0.263206 23.3714 1.15689e-06 22.7343 1.15689e-06 22.2602C1.15689e-06 21.9195 0.0415598 21.8602 0.13853 22.038C0.2355 22.201 0.277059 22.1565 0.277059 21.801C0.277059 21.1639 0.692646 20.6602 1.52382 20.275L2.21646 19.949L4.26669 20.8676C12.6754 24.6307 15.252 26.053 22.6495 31.0013C25.7525 33.0755 28.5785 34.72 42.8055 42.7055C51.9068 47.8168 60.0939 52.3948 60.9805 52.8688L62.6012 53.743L62.5181 51.1058C62.3519 45.713 63.1276 39.8461 64.7207 34.4978C69.4446 18.6008 81.9399 6.20035 97.1088 2.34834C101.999 1.10385 107.54 0.689018 112.167 1.23719ZM3.76799 22.9566C3.43552 23.727 3.68487 23.9788 6.05372 25.2974C7.25892 25.9789 10.6667 27.8901 13.6174 29.5494C19.3248 32.7644 19.685 32.9421 19.6296 32.6755C19.5741 32.3643 20.1975 32.1421 20.8209 32.2754C21.1395 32.3347 21.4304 32.3643 21.4581 32.3199C21.6936 32.0828 20.6962 31.3717 18.0642 29.8902C16.388 28.9568 12.7585 26.9123 9.97409 25.3418C4.47449 22.2306 4.15587 22.1121 3.76799 22.9566ZM95.391 27.816C93.7148 28.4234 92.2326 29.6828 91.3737 31.2087C89.8914 33.8311 89.9192 37.2831 91.4291 39.8165C92.0248 40.8239 93.3685 42.0981 94.3521 42.6462C96.7625 43.9352 99.6439 43.787 101.888 42.261C103.758 40.9869 104.894 39.0757 105.296 36.5126C105.933 32.4236 102.941 28.1271 98.9789 27.4604C98.1339 27.3271 96.1945 27.5197 95.391 27.816ZM118.747 31.3124C116.323 32.0532 114.48 33.9644 113.663 36.5423C113.178 38.0535 113.178 40.0832 113.649 41.5795C115.478 47.3427 122.238 49.0317 126.2 44.7204C127.585 43.2092 128.402 41.1054 128.416 39.0609C128.416 37.9349 127.959 36.1126 127.419 35.0904C126.519 33.4014 124.759 31.9051 122.944 31.2976C122.113 31.0161 119.689 31.031 118.747 31.3124ZM92.2049 51.891C89.8083 52.7207 88.049 54.6023 87.2871 57.1357C86.9269 58.3357 86.8854 60.558 87.2178 61.7581C88.2291 65.4619 91.72 68.0102 95.2248 67.6102C97.7045 67.3287 100.004 65.699 101.168 63.4174C101.653 62.4396 102.096 60.6025 102.096 59.5358C102.068 56.0097 99.6716 52.6911 96.4716 51.7429C95.2941 51.4021 93.4239 51.4614 92.2049 51.891ZM115.824 55.2986C113.137 55.9801 110.976 58.1876 110.214 61.0321C109.895 62.2026 109.923 64.2026 110.269 65.4323C111.225 68.8695 114.189 71.2251 117.556 71.2251C121.559 71.2251 124.801 67.9361 125.064 63.61C125.369 58.3209 120.659 54.0837 115.824 55.2986Z" fill="#FF228C"/>
<path d="M1287.97 1.2183C1278.19 2.36367 1269.76 6.71337 1262.98 14.0765C1257.73 19.7897 1254.03 26.8392 1252.22 34.6114C1251.87 36.1795 1251.6 37.6248 1251.3 39.861C1251.03 41.8518 1251 48.2741 1251.24 50.224C1252.31 58.7734 1254.56 65.1275 1258.8 71.6179C1261.78 76.1858 1266.23 80.6309 1270.89 83.6989C1271.32 83.9852 1271.68 84.2579 1271.68 84.3261C1271.68 84.4352 1269.52 85.6897 1262.79 89.4939C1259.01 91.6347 1257 92.9164 1248.64 98.4797C1243.27 102.039 1238.94 104.984 1239 104.997C1239.06 105.025 1239.56 104.834 1240.08 104.575C1244.17 102.557 1257.35 96.4616 1257.46 96.5298C1257.55 96.5844 1257.56 96.5707 1257.51 96.4753C1257.45 96.3662 1257.52 96.3253 1257.71 96.3389C1258.31 96.3798 1261.49 94.7299 1268.78 90.5848C1272.6 88.4031 1273.62 87.9259 1274.99 87.6668C1277.55 87.1896 1277.25 87.1759 1279.11 87.8304C1282.27 88.9213 1285.27 89.603 1288.35 89.9166C1290.45 90.1212 1295.69 90.0121 1297.57 89.7121C1302.89 88.8531 1307.29 87.2986 1311.68 84.7079C1319.76 79.9628 1326.05 72.4906 1329.83 63.1776C1330.42 61.7323 1331.77 57.5053 1331.8 57.0689C1331.8 56.9326 1331.83 56.9053 1331.87 57.0008C1331.91 57.1098 1332.17 56.8099 1332.5 56.319C1332.82 55.8554 1333.65 54.86 1334.35 54.1101C1335.76 52.5965 1336.17 52.3102 1340.23 50.0194C1345.22 47.1969 1345.72 46.9106 1346.59 46.406C1347.08 46.1197 1348.21 45.4788 1349.11 44.9743C1350.02 44.4698 1351.15 43.8153 1351.63 43.5426C1352.12 43.2563 1353.17 42.6563 1353.96 42.2063C1358.57 39.602 1363.35 36.8885 1364.23 36.384C1365.93 35.4023 1369.35 33.5342 1370.44 32.9888C1371.01 32.7025 1371.48 32.4025 1371.48 32.3343C1371.48 32.2661 1371.54 32.2525 1371.6 32.2934C1371.68 32.3343 1371.73 32.3207 1371.73 32.2525C1371.73 32.1843 1372.82 31.5844 1374.16 30.9299C1378.99 28.5437 1380.68 27.5346 1386.41 23.6622C1388.22 22.4486 1389.5 21.4942 1389.58 21.3033C1389.68 21.1124 1389.75 21.0578 1389.75 21.1805C1389.76 21.5896 1390 21.0033 1390 20.5669C1390 20.2533 1389.96 20.1988 1389.87 20.3624C1389.79 20.5124 1389.75 20.4715 1389.75 20.1442C1389.75 19.5579 1389.37 19.0943 1388.61 18.7398L1387.98 18.4398L1386.12 19.2852C1378.47 22.7486 1376.13 24.0576 1369.4 28.6118C1366.57 30.5208 1364 32.0343 1351.06 39.3838C1342.78 44.088 1335.34 48.3014 1334.53 48.7377L1333.06 49.5422L1333.13 47.1151C1333.28 42.1518 1332.58 36.7522 1331.13 31.8298C1326.83 17.199 1315.46 5.78616 1301.67 2.24095C1297.22 1.09558 1292.18 0.713788 1287.97 1.2183ZM1386.57 21.2078C1386.87 21.9169 1386.65 22.1487 1384.49 23.3622C1383.4 23.9894 1380.3 25.7484 1377.61 27.2756C1372.42 30.2345 1372.09 30.3981 1372.14 30.1526C1372.19 29.8663 1371.63 29.6618 1371.06 29.7845C1370.77 29.839 1370.51 29.8663 1370.48 29.8254C1370.27 29.6072 1371.17 28.9527 1373.57 27.5892C1375.09 26.7302 1378.39 24.8485 1380.93 23.4031C1385.93 20.5397 1386.22 20.4306 1386.57 21.2078ZM1303.23 25.6802C1304.75 26.2393 1306.1 27.3983 1306.88 28.8027C1308.23 31.2162 1308.21 34.3933 1306.83 36.7249C1306.29 37.6521 1305.07 38.8248 1304.17 39.3293C1301.98 40.5155 1299.36 40.3792 1297.32 38.9747C1295.62 37.8021 1294.58 36.0431 1294.22 33.6842C1293.64 29.9208 1296.36 25.9666 1299.96 25.353C1300.73 25.2303 1302.5 25.4075 1303.23 25.6802ZM1281.98 28.8982C1284.19 29.58 1285.86 31.3389 1286.61 33.7115C1287.05 35.1023 1287.05 36.9703 1286.62 38.3475C1284.96 43.6517 1278.81 45.2061 1275.2 41.2382C1273.94 39.8474 1273.2 37.9112 1273.19 36.0295C1273.19 34.9932 1273.6 33.3161 1274.09 32.3752C1274.91 30.8208 1276.51 29.4436 1278.16 28.8845C1278.92 28.6255 1281.13 28.6391 1281.98 28.8982ZM1306.13 47.8378C1308.31 48.6013 1309.91 50.333 1310.6 52.6647C1310.93 53.7692 1310.97 55.8145 1310.66 56.919C1309.74 60.3278 1306.57 62.6731 1303.38 62.3049C1301.12 62.0459 1299.03 60.546 1297.97 58.4461C1297.53 57.5462 1297.13 55.8554 1297.13 54.8736C1297.15 51.6284 1299.33 48.5741 1302.25 47.7014C1303.32 47.3878 1305.02 47.4423 1306.13 47.8378ZM1284.64 50.9739C1287.09 51.6011 1289.05 53.6328 1289.75 56.2508C1290.04 57.328 1290.01 59.1688 1289.7 60.3005C1288.83 63.4639 1286.13 65.632 1283.07 65.632C1279.43 65.632 1276.48 62.6049 1276.24 58.6234C1275.96 53.7555 1280.24 49.8558 1284.64 50.9739Z" fill="#FF228C"/>
<defs>
<linearGradient id="paint0_linear_25_3" x1="695" y1="0" x2="695" y2="105" gradientUnits="userSpaceOnUse">
<stop stop-color="#EBE2E2" stop-opacity="0.91"/>
<stop offset="0.883333" stop-color="#B8B6B6" stop-opacity="0.95"/>
</linearGradient>
</defs>
</svg>
