<svg width="1408" height="166" viewBox="0 0 1408 166" fill="none" xmlns="http://www.w3.org/2000/svg">
<path d="M9 60C9 26.8629 35.8629 0 69 0H1339C1372.14 0 1399 26.8629 1399 60V105H9V60Z" fill="url(#paint0_linear_46_24)"/>
<path d="M382.041 84L396.117 23.28H443.405L440.461 35.516H409.089L406.237 47.844H430.985L428.317 59.344H403.569L400.717 71.764H433.101L430.249 84H382.041ZM474.067 38H491.639L464.775 84H446.007L440.303 38H455.759L457.323 73.972L474.067 38ZM511.007 84.92C506.284 84.92 502.236 84 498.863 82.16C495.49 80.32 492.883 77.836 491.043 74.708C489.203 71.58 488.283 68.0227 488.283 64.036C488.283 59.068 489.295 54.56 491.319 50.512C493.404 46.4027 496.379 43.152 500.243 40.76C504.168 38.3067 508.922 37.08 514.503 37.08C519.226 37.08 523.274 38 526.647 39.84C530.02 41.68 532.627 44.164 534.467 47.292C536.307 50.42 537.227 53.9773 537.227 57.964C537.227 62.932 536.184 67.44 534.099 71.488C532.075 75.536 529.1 78.7867 525.175 81.24C521.311 83.6933 516.588 84.92 511.007 84.92ZM511.191 73.88C513.338 73.88 515.208 73.0213 516.803 71.304C518.398 69.5253 519.624 67.3173 520.483 64.68C521.403 62.0427 521.863 59.3747 521.863 56.676C521.863 54.0387 521.219 51.9533 519.931 50.42C518.643 48.8867 516.742 48.12 514.227 48.12C512.142 48.12 510.302 49.0093 508.707 50.788C507.112 52.5053 505.855 54.6827 504.935 57.32C504.015 59.9573 503.555 62.6253 503.555 65.324C503.555 67.9 504.199 69.9853 505.487 71.58C506.836 73.1133 508.738 73.88 511.191 73.88ZM564.791 84.92C559.946 84.92 555.775 84.0307 552.279 82.252C548.844 80.412 546.207 77.928 544.367 74.8C542.527 71.6107 541.607 67.992 541.607 63.944C541.607 59.0373 542.619 54.56 544.643 50.512C546.728 46.4027 549.734 43.152 553.659 40.76C557.584 38.3067 562.368 37.08 568.011 37.08C572.243 37.08 575.923 37.7853 579.051 39.196C582.24 40.6067 584.724 42.5693 586.503 45.084C588.343 47.5987 589.324 50.5427 589.447 53.916L574.451 56.308C574.574 53.916 574.144 51.984 573.163 50.512C572.182 49.04 570.434 48.304 567.919 48.304C565.65 48.304 563.687 49.1627 562.031 50.88C560.375 52.5973 559.087 54.7747 558.167 57.412C557.308 60.0493 556.879 62.6867 556.879 65.324C556.879 67.9613 557.584 70.0467 558.995 71.58C560.406 73.1133 562.368 73.88 564.883 73.88C566.539 73.88 568.072 73.328 569.483 72.224C570.894 71.0587 571.906 69.5253 572.519 67.624L586.503 72.132C584.786 76.0573 582.026 79.1853 578.223 81.516C574.42 83.7853 569.943 84.92 564.791 84.92ZM588.479 84L603.659 18.496H619.299L613.043 45.728C614.576 43.2133 616.631 41.1587 619.207 39.564C621.844 37.908 624.972 37.08 628.591 37.08C631.596 37.08 634.203 37.7853 636.411 39.196C638.619 40.6067 640.152 42.6307 641.011 45.268C641.931 47.844 641.992 50.88 641.195 54.376L634.295 84H618.655L625.003 56.86C625.555 54.4067 625.34 52.5053 624.359 51.156C623.377 49.7453 621.783 49.04 619.575 49.04C614.668 49.04 611.448 52.4133 609.915 59.16L604.119 84H588.479ZM673.701 18.496L664.961 56.308L684.741 38H702.865L682.073 56.124L694.033 84H678.669L671.033 64.956L660.913 73.788L658.521 84H642.881L658.061 18.496H673.701ZM713.538 84.828C708.938 84.828 705.104 83.2333 702.038 80.044C699.032 76.8547 697.53 72.2853 697.53 66.336C697.53 62.656 698.051 59.068 699.094 55.572C700.136 52.076 701.639 48.948 703.602 46.188C705.626 43.3667 708.018 41.1587 710.778 39.564C713.599 37.908 716.758 37.08 720.254 37.08C723.32 37.08 726.111 37.908 728.626 39.564C731.202 41.22 732.858 43.9187 733.594 47.66L735.802 38H751.442L740.77 84H726.602L728.166 75.352C726.694 78.296 724.67 80.6267 722.094 82.344C719.518 84 716.666 84.828 713.538 84.828ZM720.346 73.42C722.431 73.42 724.24 72.592 725.774 70.936C727.368 69.2187 728.626 67.1027 729.546 64.588C730.466 62.0733 730.926 59.528 730.926 56.952C730.926 54.376 730.282 52.352 728.994 50.88C727.767 49.3467 726.05 48.58 723.842 48.58C721.572 48.58 719.61 49.4387 717.954 51.156C716.359 52.8733 715.132 54.9893 714.274 57.504C713.415 59.9573 712.986 62.3187 712.986 64.588C712.986 67.4093 713.599 69.5867 714.826 71.12C716.052 72.6533 717.892 73.42 720.346 73.42ZM804.557 85.012C798.117 85.012 792.26 83.7547 786.985 81.24C781.772 78.7253 777.571 74.9533 774.381 69.924L783.673 60.816C785.145 63.392 786.985 65.6 789.193 67.44C791.463 69.2187 793.916 70.568 796.553 71.488C799.191 72.3467 801.828 72.776 804.465 72.776C807.287 72.776 809.372 72.1933 810.721 71.028C812.071 69.8013 812.745 68.3907 812.745 66.796C812.745 65.508 812.255 64.4653 811.273 63.668C810.292 62.8707 808.82 62.1653 806.857 61.552L797.749 58.608C793.64 57.2587 790.144 55.2347 787.261 52.536C784.44 49.776 783.029 46.188 783.029 41.772C783.029 37.6627 784.072 34.1667 786.157 31.284C788.304 28.4013 791.217 26.1933 794.897 24.66C798.639 23.1267 802.901 22.36 807.685 22.36C814.003 22.36 819.339 23.4947 823.693 25.764C828.048 27.972 831.636 31.1 834.457 35.148L824.797 43.98C822.896 40.7293 820.381 38.368 817.253 36.896C814.187 35.3627 810.997 34.596 807.685 34.596C804.864 34.596 802.779 35.148 801.429 36.252C800.141 37.2947 799.497 38.6133 799.497 40.208C799.497 41.4347 800.08 42.5693 801.245 43.612C802.472 44.5933 804.067 45.3907 806.029 46.004L815.137 48.948C819.737 50.42 823.233 52.444 825.625 55.02C828.017 57.596 829.213 60.908 829.213 64.956C829.213 69.1267 828.109 72.7147 825.901 75.72C823.755 78.7253 820.811 81.0253 817.069 82.62C813.328 84.2147 809.157 85.012 804.557 85.012ZM854.573 84.828C848.869 84.828 844.514 83.356 841.509 80.412C838.565 77.4067 837.768 72.9907 839.117 67.164L843.257 49.132H834.701L837.277 38H845.833L848.041 28.064L864.785 23.648L861.473 38H873.985L871.409 49.132H858.897L854.757 66.796C854.144 69.188 854.42 70.9973 855.585 72.224C856.812 73.3893 858.59 73.972 860.921 73.972C862.332 73.972 863.466 73.8493 864.325 73.604C865.184 73.3587 865.981 73.052 866.717 72.684L865.797 82.712C864.141 83.5093 862.362 84.0613 860.461 84.368C858.56 84.6747 856.597 84.828 854.573 84.828ZM873.299 103.78C870.662 103.78 868.239 103.473 866.031 102.86C863.823 102.308 862.075 101.541 860.787 100.56L865.111 89.612C867.258 91.3907 869.895 92.28 873.023 92.28C876.458 92.28 879.095 90.8693 880.935 88.048L882.775 85.012L874.679 38H890.503L891.883 62.748L892.251 73.972L897.495 63.024L909.639 38H926.291L896.667 87.864C893.294 93.568 889.829 97.6467 886.271 100.1C882.714 102.553 878.39 103.78 873.299 103.78ZM935.456 84.828C929.936 84.828 926.041 83.3253 923.772 80.32C921.564 77.2533 921.073 73.1747 922.3 68.084L933.8 18.496H949.44L938.032 67.9C937.051 71.948 938.492 73.972 942.356 73.972C943.828 73.972 944.932 73.8493 945.668 73.604L942.908 83.724C941.068 84.46 938.584 84.828 935.456 84.828ZM972.644 84.828C968.106 84.828 964.119 83.9693 960.684 82.252C957.25 80.5347 954.582 78.112 952.68 74.984C950.779 71.856 949.828 68.176 949.828 63.944C949.828 58.792 950.871 54.192 952.956 50.144C955.103 46.096 958.108 42.9373 961.972 40.668C965.898 38.3373 970.559 37.172 975.956 37.172C982.642 37.172 987.824 39.0427 991.504 42.784C995.246 46.464 997.116 51.432 997.116 57.688C997.116 58.8533 997.055 60.08 996.932 61.368C996.81 62.656 996.564 63.9133 996.196 65.14H964.364C964.426 68.0227 965.284 70.2307 966.94 71.764C968.596 73.236 970.712 73.972 973.288 73.972C975.496 73.972 977.275 73.4813 978.624 72.5C979.974 71.4573 981.016 70.1693 981.752 68.636L994.632 73.696C992.976 77.192 990.186 79.9213 986.26 81.884C982.335 83.8467 977.796 84.828 972.644 84.828ZM975.588 48.028C972.767 48.028 970.559 48.8867 968.964 50.604C967.37 52.26 966.204 54.284 965.468 56.676H982.12C982.182 56.2467 982.212 55.7253 982.212 55.112C982.212 52.7813 981.599 51.0333 980.372 49.868C979.146 48.6413 977.551 48.028 975.588 48.028Z" fill="#FF228C"/>
<path d="M121.167 1.23719C131.917 2.48168 141.184 7.20779 148.637 15.2081C154.414 21.4158 158.473 29.0753 160.468 37.5201C160.855 39.2239 161.146 40.7943 161.479 43.224C161.77 45.3871 161.811 52.3651 161.548 54.4837C160.371 63.773 157.891 70.677 153.236 77.7291C149.953 82.6922 145.063 87.5221 139.938 90.8555C139.467 91.1667 139.079 91.463 139.079 91.537C139.079 91.6556 141.448 93.0186 148.845 97.1521C153.001 99.4781 155.217 100.871 164.402 106.915C170.303 110.782 175.069 113.982 174.999 113.997C174.93 114.027 174.39 113.819 173.808 113.538C169.32 111.345 154.829 104.723 154.705 104.797C154.608 104.856 154.594 104.841 154.649 104.738C154.719 104.619 154.635 104.575 154.428 104.589C153.777 104.634 150.272 102.841 142.265 98.3373C138.067 95.9668 136.945 95.4483 135.435 95.1668C132.623 94.6483 132.956 94.6335 130.905 95.3446C127.428 96.5298 124.131 97.2706 120.751 97.6114C118.438 97.8336 112.675 97.7151 110.611 97.3891C104.765 96.4557 99.9304 94.7668 95.0958 91.9519C86.216 86.7961 79.3034 78.6773 75.1476 68.5584C74.4965 66.9879 73.0142 62.3952 72.9865 61.9211C72.9865 61.7729 72.945 61.7433 72.9034 61.847C72.8619 61.9655 72.5709 61.6396 72.2108 61.1062C71.8644 60.6025 70.9502 59.521 70.1744 58.7061C68.6229 57.0616 68.1796 56.7505 63.7189 54.2615C58.2332 51.1947 57.6791 50.8836 56.7232 50.3354C56.183 50.0243 54.9362 49.328 53.9526 48.7798C52.9552 48.2316 51.7085 47.5205 51.1821 47.2242C50.6418 46.9131 49.492 46.2612 48.6193 45.7723C43.5491 42.9425 38.2989 39.9943 37.3292 39.4461C35.459 38.3794 31.7049 36.3497 30.4997 35.7571C29.8763 35.4459 29.3638 35.12 29.3638 35.0459C29.3638 34.9718 29.2945 34.957 29.2252 35.0015C29.1421 35.0459 29.0867 35.0311 29.0867 34.957C29.0867 34.883 27.8815 34.2311 26.4131 33.5199C21.1074 30.9272 19.2511 29.8309 12.9481 25.6233C10.9533 24.3048 9.55412 23.2677 9.45715 23.0603C9.34632 22.8529 9.27706 22.7936 9.27706 22.9269C9.26321 23.3714 9 22.7343 9 22.2602C9 21.9195 9.04156 21.8602 9.13853 22.038C9.2355 22.201 9.27706 22.1565 9.27706 21.801C9.27706 21.1639 9.69265 20.6602 10.5238 20.275L11.2165 19.949L13.2667 20.8676C21.6754 24.6307 24.252 26.053 31.6495 31.0013C34.7525 33.0755 37.5785 34.72 51.8055 42.7055C60.9068 47.8168 69.0939 52.3948 69.9805 52.8688L71.6012 53.743L71.5181 51.1058C71.3519 45.713 72.1276 39.8461 73.7207 34.4978C78.4446 18.6008 90.9399 6.20035 106.109 2.34834C110.999 1.10385 116.54 0.689018 121.167 1.23719ZM12.768 22.9566C12.4355 23.727 12.6849 23.9788 15.0537 25.2974C16.2589 25.9789 19.6667 27.8901 22.6174 29.5494C28.3248 32.7644 28.685 32.9421 28.6296 32.6755C28.5741 32.3643 29.1975 32.1421 29.8209 32.2754C30.1395 32.3347 30.4304 32.3643 30.4581 32.3199C30.6936 32.0828 29.6962 31.3717 27.0642 29.8902C25.388 28.9568 21.7585 26.9123 18.9741 25.3418C13.4745 22.2306 13.1559 22.1121 12.768 22.9566ZM104.391 27.816C102.715 28.4234 101.233 29.6828 100.374 31.2087C98.8914 33.8311 98.9192 37.2831 100.429 39.8165C101.025 40.8239 102.369 42.0981 103.352 42.6462C105.762 43.9352 108.644 43.787 110.888 42.261C112.758 40.9869 113.894 39.0757 114.296 36.5126C114.933 32.4236 111.941 28.1271 107.979 27.4604C107.134 27.3271 105.195 27.5197 104.391 27.816ZM127.747 31.3124C125.323 32.0532 123.48 33.9644 122.663 36.5423C122.178 38.0535 122.178 40.0832 122.649 41.5795C124.478 47.3427 131.238 49.0317 135.2 44.7204C136.585 43.2092 137.402 41.1054 137.416 39.0609C137.416 37.9349 136.959 36.1126 136.419 35.0904C135.519 33.4014 133.759 31.9051 131.944 31.2976C131.113 31.0161 128.689 31.031 127.747 31.3124ZM101.205 51.891C98.8083 52.7207 97.049 54.6023 96.2871 57.1357C95.9269 58.3357 95.8854 60.558 96.2178 61.7581C97.2291 65.4619 100.72 68.0102 104.225 67.6102C106.704 67.3287 109.004 65.699 110.168 63.4174C110.653 62.4396 111.096 60.6025 111.096 59.5358C111.068 56.0097 108.672 52.6911 105.472 51.7429C104.294 51.4021 102.424 51.4614 101.205 51.891ZM124.824 55.2986C122.137 55.9801 119.976 58.1876 119.214 61.0321C118.895 62.2026 118.923 64.2026 119.269 65.4323C120.225 68.8695 123.189 71.2251 126.556 71.2251C130.559 71.2251 133.801 67.9361 134.064 63.61C134.369 58.3209 129.659 54.0837 124.824 55.2986Z" fill="#FF228C"/>
<path d="M1296.97 1.2183C1287.19 2.36367 1278.76 6.71337 1271.98 14.0765C1266.73 19.7897 1263.03 26.8392 1261.22 34.6114C1260.87 36.1795 1260.6 37.6248 1260.3 39.861C1260.03 41.8518 1260 48.2741 1260.24 50.224C1261.31 58.7734 1263.56 65.1275 1267.8 71.6179C1270.78 76.1858 1275.23 80.6309 1279.89 83.6989C1280.32 83.9852 1280.68 84.2579 1280.68 84.3261C1280.68 84.4352 1278.52 85.6897 1271.79 89.4939C1268.01 91.6347 1266 92.9164 1257.64 98.4797C1252.27 102.039 1247.94 104.984 1248 104.997C1248.06 105.025 1248.56 104.834 1249.08 104.575C1253.17 102.557 1266.35 96.4616 1266.46 96.5298C1266.55 96.5844 1266.56 96.5707 1266.51 96.4753C1266.45 96.3662 1266.52 96.3253 1266.71 96.3389C1267.31 96.3798 1270.49 94.7299 1277.78 90.5848C1281.6 88.4031 1282.62 87.9259 1283.99 87.6668C1286.55 87.1896 1286.25 87.1759 1288.11 87.8304C1291.27 88.9213 1294.27 89.603 1297.35 89.9166C1299.45 90.1212 1304.69 90.0121 1306.57 89.7121C1311.89 88.8531 1316.29 87.2986 1320.68 84.7079C1328.76 79.9628 1335.05 72.4906 1338.83 63.1776C1339.42 61.7323 1340.77 57.5053 1340.8 57.0689C1340.8 56.9326 1340.83 56.9053 1340.87 57.0008C1340.91 57.1098 1341.17 56.8099 1341.5 56.319C1341.82 55.8554 1342.65 54.86 1343.35 54.1101C1344.76 52.5965 1345.17 52.3102 1349.23 50.0194C1354.22 47.1969 1354.72 46.9106 1355.59 46.406C1356.08 46.1197 1357.21 45.4788 1358.11 44.9743C1359.02 44.4698 1360.15 43.8153 1360.63 43.5426C1361.12 43.2563 1362.17 42.6563 1362.96 42.2063C1367.57 39.602 1372.35 36.8885 1373.23 36.384C1374.93 35.4023 1378.35 33.5342 1379.44 32.9888C1380.01 32.7025 1380.48 32.4025 1380.48 32.3343C1380.48 32.2661 1380.54 32.2525 1380.6 32.2934C1380.68 32.3343 1380.73 32.3207 1380.73 32.2525C1380.73 32.1843 1381.82 31.5844 1383.16 30.9299C1387.99 28.5437 1389.68 27.5346 1395.41 23.6622C1397.22 22.4486 1398.5 21.4942 1398.58 21.3033C1398.68 21.1124 1398.75 21.0578 1398.75 21.1805C1398.76 21.5896 1399 21.0033 1399 20.5669C1399 20.2533 1398.96 20.1988 1398.87 20.3624C1398.79 20.5124 1398.75 20.4715 1398.75 20.1442C1398.75 19.5579 1398.37 19.0943 1397.61 18.7398L1396.98 18.4398L1395.12 19.2852C1387.47 22.7486 1385.13 24.0576 1378.4 28.6118C1375.57 30.5208 1373 32.0343 1360.06 39.3838C1351.78 44.088 1344.34 48.3014 1343.53 48.7377L1342.06 49.5422L1342.13 47.1151C1342.28 42.1518 1341.58 36.7522 1340.13 31.8298C1335.83 17.199 1324.46 5.78616 1310.67 2.24095C1306.22 1.09558 1301.18 0.713788 1296.97 1.2183ZM1395.57 21.2078C1395.87 21.9169 1395.65 22.1487 1393.49 23.3622C1392.4 23.9894 1389.3 25.7484 1386.61 27.2756C1381.42 30.2345 1381.09 30.3981 1381.14 30.1526C1381.19 29.8663 1380.63 29.6618 1380.06 29.7845C1379.77 29.839 1379.51 29.8663 1379.48 29.8254C1379.27 29.6072 1380.17 28.9527 1382.57 27.5892C1384.09 26.7302 1387.39 24.8485 1389.93 23.4031C1394.93 20.5397 1395.22 20.4306 1395.57 21.2078ZM1312.23 25.6802C1313.75 26.2393 1315.1 27.3983 1315.88 28.8027C1317.23 31.2162 1317.21 34.3933 1315.83 36.7249C1315.29 37.6521 1314.07 38.8248 1313.17 39.3293C1310.98 40.5155 1308.36 40.3792 1306.32 38.9747C1304.62 37.8021 1303.58 36.0431 1303.22 33.6842C1302.64 29.9208 1305.36 25.9666 1308.96 25.353C1309.73 25.2303 1311.5 25.4075 1312.23 25.6802ZM1290.98 28.8982C1293.19 29.58 1294.86 31.3389 1295.61 33.7115C1296.05 35.1023 1296.05 36.9703 1295.62 38.3475C1293.96 43.6517 1287.81 45.2061 1284.2 41.2382C1282.94 39.8474 1282.2 37.9112 1282.19 36.0295C1282.19 34.9932 1282.6 33.3161 1283.09 32.3752C1283.91 30.8208 1285.51 29.4436 1287.16 28.8845C1287.92 28.6255 1290.13 28.6391 1290.98 28.8982ZM1315.13 47.8378C1317.31 48.6013 1318.91 50.333 1319.6 52.6647C1319.93 53.7692 1319.97 55.8145 1319.66 56.919C1318.74 60.3278 1315.57 62.6731 1312.38 62.3049C1310.12 62.0459 1308.03 60.546 1306.97 58.4461C1306.53 57.5462 1306.13 55.8554 1306.13 54.8736C1306.15 51.6284 1308.33 48.5741 1311.25 47.7014C1312.32 47.3878 1314.02 47.4423 1315.13 47.8378ZM1293.64 50.9739C1296.09 51.6011 1298.05 53.6328 1298.75 56.2508C1299.04 57.328 1299.01 59.1688 1298.7 60.3005C1297.83 63.4639 1295.13 65.632 1292.07 65.632C1288.43 65.632 1285.48 62.6049 1285.24 58.6234C1284.96 53.7555 1289.24 49.8558 1293.64 50.9739Z" fill="#FF228C"/>
<g filter="url(#filter0_d_46_24)">
<path d="M9 103H222V106C222 128.091 204.091 146 182 146H49C26.9086 146 9 128.091 9 106V103Z" fill="url(#paint1_linear_46_24)" shape-rendering="crispEdges"/>
</g>
<g filter="url(#filter1_d_46_24)">
<path d="M222 103H431V106C431 128.091 413.091 146 391 146H262C239.909 146 222 128.091 222 106V103Z" fill="url(#paint2_linear_46_24)" shape-rendering="crispEdges"/>
</g>
<g filter="url(#filter2_d_46_24)">
<path d="M431 103H737V106C737 128.091 719.091 146 697 146H471C448.909 146 431 128.091 431 106V103Z" fill="url(#paint3_linear_46_24)" shape-rendering="crispEdges"/>
</g>
<g filter="url(#filter3_d_46_24)">
<path d="M737 103H1149V106C1149 128.091 1131.09 146 1109 146H777C754.909 146 737 128.091 737 106V103Z" fill="url(#paint4_linear_46_24)" shape-rendering="crispEdges"/>
</g>
<g filter="url(#filter4_d_46_24)">
<path d="M1149 103H1399V106C1399 128.091 1381.09 146 1359 146H1189C1166.91 146 1149 128.091 1149 106V103Z" fill="url(#paint5_linear_46_24)" shape-rendering="crispEdges"/>
</g>
<defs>
<filter id="filter0_d_46_24" x="0" y="103" width="231" height="63" filterUnits="userSpaceOnUse" color-interpolation-filters="sRGB">
<feFlood flood-opacity="0" result="BackgroundImageFix"/>
<feColorMatrix in="SourceAlpha" type="matrix" values="0 0 0 0 0 0 0 0 0 0 0 0 0 0 0 0 0 0 127 0" result="hardAlpha"/>
<feOffset dy="11"/>
<feGaussianBlur stdDeviation="4.5"/>
<feComposite in2="hardAlpha" operator="out"/>
<feColorMatrix type="matrix" values="0 0 0 0 0 0 0 0 0 0 0 0 0 0 0 0 0 0 0.53 0"/>
<feBlend mode="normal" in2="BackgroundImageFix" result="effect1_dropShadow_46_24"/>
<feBlend mode="normal" in="SourceGraphic" in2="effect1_dropShadow_46_24" result="shape"/>
</filter>
<filter id="filter1_d_46_24" x="213" y="103" width="227" height="63" filterUnits="userSpaceOnUse" color-interpolation-filters="sRGB">
<feFlood flood-opacity="0" result="BackgroundImageFix"/>
<feColorMatrix in="SourceAlpha" type="matrix" values="0 0 0 0 0 0 0 0 0 0 0 0 0 0 0 0 0 0 127 0" result="hardAlpha"/>
<feOffset dy="11"/>
<feGaussianBlur stdDeviation="4.5"/>
<feComposite in2="hardAlpha" operator="out"/>
<feColorMatrix type="matrix" values="0 0 0 0 0 0 0 0 0 0 0 0 0 0 0 0 0 0 0.53 0"/>
<feBlend mode="normal" in2="BackgroundImageFix" result="effect1_dropShadow_46_24"/>
<feBlend mode="normal" in="SourceGraphic" in2="effect1_dropShadow_46_24" result="shape"/>
</filter>
<filter id="filter2_d_46_24" x="422" y="103" width="324" height="63" filterUnits="userSpaceOnUse" color-interpolation-filters="sRGB">
<feFlood flood-opacity="0" result="BackgroundImageFix"/>
<feColorMatrix in="SourceAlpha" type="matrix" values="0 0 0 0 0 0 0 0 0 0 0 0 0 0 0 0 0 0 127 0" result="hardAlpha"/>
<feOffset dy="11"/>
<feGaussianBlur stdDeviation="4.5"/>
<feComposite in2="hardAlpha" operator="out"/>
<feColorMatrix type="matrix" values="0 0 0 0 0 0 0 0 0 0 0 0 0 0 0 0 0 0 0.53 0"/>
<feBlend mode="normal" in2="BackgroundImageFix" result="effect1_dropShadow_46_24"/>
<feBlend mode="normal" in="SourceGraphic" in2="effect1_dropShadow_46_24" result="shape"/>
</filter>
<filter id="filter3_d_46_24" x="728" y="103" width="430" height="63" filterUnits="userSpaceOnUse" color-interpolation-filters="sRGB">
<feFlood flood-opacity="0" result="BackgroundImageFix"/>
<feColorMatrix in="SourceAlpha" type="matrix" values="0 0 0 0 0 0 0 0 0 0 0 0 0 0 0 0 0 0 127 0" result="hardAlpha"/>
<feOffset dy="11"/>
<feGaussianBlur stdDeviation="4.5"/>
<feComposite in2="hardAlpha" operator="out"/>
<feColorMatrix type="matrix" values="0 0 0 0 0 0 0 0 0 0 0 0 0 0 0 0 0 0 0.53 0"/>
<feBlend mode="normal" in2="BackgroundImageFix" result="effect1_dropShadow_46_24"/>
<feBlend mode="normal" in="SourceGraphic" in2="effect1_dropShadow_46_24" result="shape"/>
</filter>
<filter id="filter4_d_46_24" x="1140" y="103" width="268" height="63" filterUnits="userSpaceOnUse" color-interpolation-filters="sRGB">
<feFlood flood-opacity="0" result="BackgroundImageFix"/>
<feColorMatrix in="SourceAlpha" type="matrix" values="0 0 0 0 0 0 0 0 0 0 0 0 0 0 0 0 0 0 127 0" result="hardAlpha"/>
<feOffset dy="11"/>
<feGaussianBlur stdDeviation="4.5"/>
<feComposite in2="hardAlpha" operator="out"/>
<feColorMatrix type="matrix" values="0 0 0 0 0 0 0 0 0 0 0 0 0 0 0 0 0 0 0.53 0"/>
<feBlend mode="normal" in2="BackgroundImageFix" result="effect1_dropShadow_46_24"/>
<feBlend mode="normal" in="SourceGraphic" in2="effect1_dropShadow_46_24" result="shape"/>
</filter>
<linearGradient id="paint0_linear_46_24" x1="704" y1="0" x2="704" y2="105" gradientUnits="userSpaceOnUse">
<stop stop-color="#EBE2E2" stop-opacity="0.91"/>
<stop offset="0.883333" stop-color="#B8B6B6" stop-opacity="0.95"/>
</linearGradient>
<linearGradient id="paint1_linear_46_24" x1="115.5" y1="103" x2="115.5" y2="146" gradientUnits="userSpaceOnUse">
<stop stop-color="#B3AEAE" stop-opacity="0.88"/>
<stop offset="1" stop-color="#5F5F5F" stop-opacity="0.2"/>
</linearGradient>
<linearGradient id="paint2_linear_46_24" x1="326.5" y1="103" x2="326.5" y2="146" gradientUnits="userSpaceOnUse">
<stop stop-color="#B3AEAE" stop-opacity="0.88"/>
<stop offset="1" stop-color="#5F5F5F" stop-opacity="0.2"/>
</linearGradient>
<linearGradient id="paint3_linear_46_24" x1="584" y1="103" x2="584" y2="146" gradientUnits="userSpaceOnUse">
<stop stop-color="#B3AEAE" stop-opacity="0.88"/>
<stop offset="1" stop-color="#5F5F5F" stop-opacity="0.2"/>
</linearGradient>
<linearGradient id="paint4_linear_46_24" x1="943" y1="103" x2="943" y2="146" gradientUnits="userSpaceOnUse">
<stop stop-color="#B3AEAE" stop-opacity="0.88"/>
<stop offset="1" stop-color="#5F5F5F" stop-opacity="0.2"/>
</linearGradient>
<linearGradient id="paint5_linear_46_24" x1="1274" y1="103" x2="1274" y2="146" gradientUnits="userSpaceOnUse">
<stop stop-color="#B3AEAE" stop-opacity="0.88"/>
<stop offset="1" stop-color="#5F5F5F" stop-opacity="0.2"/>
</linearGradient>
</defs>
</svg>
