<svg width="222" height="61" viewBox="0 0 222 61" fill="none" xmlns="http://www.w3.org/2000/svg">
<g filter="url(#filter0_d_49_2)">
<path d="M0 -2H213V1C213 23.0914 195.091 41 173 41H40C17.9086 41 0 23.0914 0 0.999999V-2Z" fill="url(#paint0_linear_49_2)" shape-rendering="crispEdges"/>
</g>
<path d="M58.9615 33L62.7365 15.15H75.8115L72.0365 33H68.3115L71.4365 18.3H65.8115L62.6865 33H58.9615ZM76.2943 33.25C75.5943 33.25 74.986 33.15 74.4693 32.95V29.925C74.786 30.0583 75.1277 30.125 75.4943 30.125C75.9277 30.125 76.286 29.9333 76.5693 29.55C76.8527 29.15 77.111 28.625 77.3443 27.975C77.5777 27.325 77.8277 26.6167 78.0943 25.85C78.4943 24.7 78.8943 23.7 79.2943 22.85C79.6943 22 80.161 21.3 80.6943 20.75C81.2277 20.2 81.9027 19.7917 82.7193 19.525C83.536 19.2417 84.561 19.1 85.7943 19.1C86.6277 19.1 87.4193 19.175 88.1693 19.325C88.936 19.4583 89.5527 19.6167 90.0193 19.8L87.2443 33H83.5693L85.8693 22.2C85.7527 22.1667 85.6277 22.1417 85.4943 22.125C85.361 22.1083 85.2277 22.1 85.0943 22.1C84.4277 22.1 83.886 22.2917 83.4693 22.675C83.0693 23.0583 82.7193 23.625 82.4193 24.375C82.1193 25.125 81.7777 26.0583 81.3943 27.175C81.111 28.0083 80.8277 28.7917 80.5443 29.525C80.2777 30.2583 79.961 30.9083 79.5943 31.475C79.2277 32.025 78.7777 32.4583 78.2443 32.775C77.7277 33.0917 77.0777 33.25 76.2943 33.25ZM95.0252 33.25C94.3752 33.25 93.7502 33.0917 93.1502 32.775C92.5669 32.4417 92.0919 31.9167 91.7252 31.2C91.3585 30.4667 91.1752 29.5 91.1752 28.3C91.1752 27.1833 91.3252 26.0833 91.6252 25C91.9252 23.9167 92.3502 22.9333 92.9002 22.05C93.4502 21.15 94.1085 20.4333 94.8752 19.9C95.6585 19.3667 96.5335 19.1 97.5002 19.1C98.3669 19.1 99.0669 19.2833 99.6002 19.65C100.15 20.0167 100.575 20.5 100.875 21.1H100.975L101.675 19.35H104.5L101.6 33H98.8502L99.0252 31.225H98.9252C98.4419 31.825 97.8835 32.3167 97.2502 32.7C96.6335 33.0667 95.8919 33.25 95.0252 33.25ZM96.4752 30.275C96.9752 30.275 97.4419 30.075 97.8752 29.675C98.3085 29.275 98.6752 28.7583 98.9752 28.125C99.2919 27.4917 99.5169 26.825 99.6502 26.125C99.7669 25.525 99.8252 24.8417 99.8252 24.075C99.8252 23.4917 99.6752 23.0167 99.3752 22.65C99.0752 22.2667 98.6585 22.075 98.1252 22.075C97.6752 22.075 97.2502 22.2583 96.8502 22.625C96.4669 22.975 96.1252 23.4417 95.8252 24.025C95.5419 24.6083 95.3169 25.2583 95.1502 25.975C94.9835 26.6917 94.9002 27.4083 94.9002 28.125C94.9002 29.5583 95.4252 30.275 96.4752 30.275ZM104.869 33L107.769 19.35H110.569L110.319 21.875H110.419C110.952 21.0583 111.561 20.3917 112.244 19.875C112.944 19.3583 113.769 19.1 114.719 19.1C115.652 19.1 116.377 19.35 116.894 19.85C117.411 20.3333 117.752 21.0083 117.919 21.875H118.019C118.536 21.0583 119.152 20.3917 119.869 19.875C120.586 19.3583 121.419 19.1 122.369 19.1C123.502 19.1 124.352 19.4583 124.919 20.175C125.486 20.875 125.769 21.825 125.769 23.025C125.769 23.625 125.677 24.3583 125.494 25.225L123.869 33H120.194L121.869 25.025C122.002 24.4417 122.069 23.9583 122.069 23.575C122.069 22.575 121.669 22.075 120.869 22.075C120.319 22.075 119.819 22.3083 119.369 22.775C118.919 23.2417 118.527 23.875 118.194 24.675C117.861 25.4583 117.594 26.3417 117.394 27.325L116.219 33H112.544L114.219 25.025C114.352 24.4417 114.419 23.9583 114.419 23.575C114.419 22.575 114.019 22.075 113.219 22.075C112.669 22.075 112.169 22.3167 111.719 22.8C111.269 23.2667 110.877 23.9 110.544 24.7C110.227 25.5 109.961 26.3833 109.744 27.35L108.544 33H104.869ZM132.701 33.25C131.517 33.25 130.567 33.075 129.851 32.725C129.134 32.375 128.617 31.9 128.301 31.3C127.984 30.6833 127.826 30 127.826 29.25C127.826 28.6833 127.926 27.95 128.126 27.05L129.776 19.35H133.451L132.251 24.9C132.601 24.8167 132.992 24.75 133.426 24.7C133.859 24.65 134.351 24.625 134.901 24.625C136.334 24.625 137.409 24.9833 138.126 25.7C138.859 26.4 139.226 27.275 139.226 28.325C139.226 29.125 139.017 29.9 138.601 30.65C138.184 31.4 137.501 32.025 136.551 32.525C135.601 33.0083 134.317 33.25 132.701 33.25ZM133.226 30.675C133.992 30.675 134.567 30.4833 134.951 30.1C135.334 29.7 135.526 29.2333 135.526 28.7C135.526 28.25 135.392 27.8917 135.126 27.625C134.859 27.3417 134.384 27.2 133.701 27.2C133.134 27.2 132.484 27.275 131.751 27.425C131.651 27.8583 131.576 28.1917 131.526 28.425C131.492 28.6583 131.476 28.8917 131.476 29.125C131.476 29.5417 131.609 29.9083 131.876 30.225C132.142 30.525 132.592 30.675 133.226 30.675ZM141.738 33.25C141.004 33.25 140.388 33.15 139.888 32.95V29.925C140.021 29.975 140.163 30.025 140.313 30.075C140.479 30.1083 140.654 30.125 140.838 30.125C141.171 30.125 141.446 30.0333 141.663 29.85C141.879 29.65 142.071 29.4167 142.238 29.15C142.671 28.45 143.046 27.9333 143.363 27.6C143.679 27.25 144.079 27 144.563 26.85C144.013 26.6167 143.554 26.275 143.188 25.825C142.821 25.375 142.638 24.7583 142.638 23.975C142.638 22.8917 142.904 22.0083 143.438 21.325C143.971 20.6417 144.688 20.1417 145.588 19.825C146.488 19.5083 147.471 19.35 148.538 19.35H154.238L151.363 33H147.688L148.788 27.925H148.038C147.504 27.925 147.088 28.1 146.788 28.45C146.488 28.7833 146.213 29.2083 145.963 29.725C145.729 30.2417 145.438 30.7833 145.088 31.35C144.754 31.8667 144.329 32.3167 143.813 32.7C143.296 33.0667 142.604 33.25 141.738 33.25ZM148.188 25.425H149.313L150.038 21.975H148.488C147.888 21.975 147.388 22.1417 146.988 22.475C146.588 22.8083 146.388 23.2917 146.388 23.925C146.388 24.375 146.529 24.7417 146.813 25.025C147.113 25.2917 147.571 25.425 148.188 25.425Z" fill="#FF228C"/>
<defs>
<filter id="filter0_d_49_2" x="-9" y="-2" width="231" height="63" filterUnits="userSpaceOnUse" color-interpolation-filters="sRGB">
<feFlood flood-opacity="0" result="BackgroundImageFix"/>
<feColorMatrix in="SourceAlpha" type="matrix" values="0 0 0 0 0 0 0 0 0 0 0 0 0 0 0 0 0 0 127 0" result="hardAlpha"/>
<feOffset dy="11"/>
<feGaussianBlur stdDeviation="4.5"/>
<feComposite in2="hardAlpha" operator="out"/>
<feColorMatrix type="matrix" values="0 0 0 0 0 0 0 0 0 0 0 0 0 0 0 0 0 0 0.53 0"/>
<feBlend mode="normal" in2="BackgroundImageFix" result="effect1_dropShadow_49_2"/>
<feBlend mode="normal" in="SourceGraphic" in2="effect1_dropShadow_49_2" result="shape"/>
</filter>
<linearGradient id="paint0_linear_49_2" x1="106.5" y1="-2" x2="106.5" y2="41" gradientUnits="userSpaceOnUse">
<stop stop-color="#B3AEAE" stop-opacity="0.88"/>
<stop offset="1" stop-color="#5F5F5F" stop-opacity="0.2"/>
</linearGradient>
</defs>
</svg>
