<svg width="616" height="86" viewBox="0 0 616 86" fill="none" xmlns="http://www.w3.org/2000/svg">
<path d="M0.0408992 66L14.1169 5.28H61.4049L58.4609 17.516H27.0889L24.2369 29.844H48.9849L46.3169 41.344H21.5689L18.7169 53.764H51.1009L48.2489 66H0.0408992ZM92.0668 20H109.639L82.7748 66H64.0068L58.3028 20H73.7588L75.3228 55.972L92.0668 20ZM129.007 66.92C124.284 66.92 120.236 66 116.863 64.16C113.49 62.32 110.883 59.836 109.043 56.708C107.203 53.58 106.283 50.0227 106.283 46.036C106.283 41.068 107.295 36.56 109.319 32.512C111.404 28.4027 114.379 25.152 118.243 22.76C122.168 20.3067 126.922 19.08 132.503 19.08C137.226 19.08 141.274 20 144.647 21.84C148.02 23.68 150.627 26.164 152.467 29.292C154.307 32.42 155.227 35.9773 155.227 39.964C155.227 44.932 154.184 49.44 152.099 53.488C150.075 57.536 147.1 60.7867 143.175 63.24C139.311 65.6933 134.588 66.92 129.007 66.92ZM129.191 55.88C131.338 55.88 133.208 55.0213 134.803 53.304C136.398 51.5253 137.624 49.3173 138.483 46.68C139.403 44.0427 139.863 41.3747 139.863 38.676C139.863 36.0387 139.219 33.9533 137.931 32.42C136.643 30.8867 134.742 30.12 132.227 30.12C130.142 30.12 128.302 31.0093 126.707 32.788C125.112 34.5053 123.855 36.6827 122.935 39.32C122.015 41.9573 121.555 44.6253 121.555 47.324C121.555 49.9 122.199 51.9853 123.487 53.58C124.836 55.1133 126.738 55.88 129.191 55.88ZM182.791 66.92C177.946 66.92 173.775 66.0307 170.279 64.252C166.844 62.412 164.207 59.928 162.367 56.8C160.527 53.6107 159.607 49.992 159.607 45.944C159.607 41.0373 160.619 36.56 162.643 32.512C164.728 28.4027 167.734 25.152 171.659 22.76C175.584 20.3067 180.368 19.08 186.011 19.08C190.243 19.08 193.923 19.7853 197.051 21.196C200.24 22.6067 202.724 24.5693 204.503 27.084C206.343 29.5987 207.324 32.5427 207.447 35.916L192.451 38.308C192.574 35.916 192.144 33.984 191.163 32.512C190.182 31.04 188.434 30.304 185.919 30.304C183.65 30.304 181.687 31.1627 180.031 32.88C178.375 34.5973 177.087 36.7747 176.167 39.412C175.308 42.0493 174.879 44.6867 174.879 47.324C174.879 49.9613 175.584 52.0467 176.995 53.58C178.406 55.1133 180.368 55.88 182.883 55.88C184.539 55.88 186.072 55.328 187.483 54.224C188.894 53.0587 189.906 51.5253 190.519 49.624L204.503 54.132C202.786 58.0573 200.026 61.1853 196.223 63.516C192.42 65.7853 187.943 66.92 182.791 66.92ZM206.479 66L221.659 0.495999H237.299L231.043 27.728C232.576 25.2133 234.631 23.1587 237.207 21.564C239.844 19.908 242.972 19.08 246.591 19.08C249.596 19.08 252.203 19.7853 254.411 21.196C256.619 22.6067 258.152 24.6307 259.011 27.268C259.931 29.844 259.992 32.88 259.195 36.376L252.295 66H236.655L243.003 38.86C243.555 36.4067 243.34 34.5053 242.359 33.156C241.377 31.7453 239.783 31.04 237.575 31.04C232.668 31.04 229.448 34.4133 227.915 41.16L222.119 66H206.479ZM291.701 0.495999L282.961 38.308L302.741 20H320.865L300.073 38.124L312.033 66H296.669L289.033 46.956L278.913 55.788L276.521 66H260.881L276.061 0.495999H291.701ZM331.538 66.828C326.938 66.828 323.104 65.2333 320.038 62.044C317.032 58.8547 315.53 54.2853 315.53 48.336C315.53 44.656 316.051 41.068 317.094 37.572C318.136 34.076 319.639 30.948 321.602 28.188C323.626 25.3667 326.018 23.1587 328.778 21.564C331.599 19.908 334.758 19.08 338.254 19.08C341.32 19.08 344.111 19.908 346.626 21.564C349.202 23.22 350.858 25.9187 351.594 29.66L353.802 20H369.442L358.77 66H344.602L346.166 57.352C344.694 60.296 342.67 62.6267 340.094 64.344C337.518 66 334.666 66.828 331.538 66.828ZM338.346 55.42C340.431 55.42 342.24 54.592 343.774 52.936C345.368 51.2187 346.626 49.1027 347.546 46.588C348.466 44.0733 348.926 41.528 348.926 38.952C348.926 36.376 348.282 34.352 346.994 32.88C345.767 31.3467 344.05 30.58 341.842 30.58C339.572 30.58 337.61 31.4387 335.954 33.156C334.359 34.8733 333.132 36.9893 332.274 39.504C331.415 41.9573 330.986 44.3187 330.986 46.588C330.986 49.4093 331.599 51.5867 332.826 53.12C334.052 54.6533 335.892 55.42 338.346 55.42ZM422.557 67.012C416.117 67.012 410.26 65.7547 404.985 63.24C399.772 60.7253 395.571 56.9533 392.381 51.924L401.673 42.816C403.145 45.392 404.985 47.6 407.193 49.44C409.463 51.2187 411.916 52.568 414.553 53.488C417.191 54.3467 419.828 54.776 422.465 54.776C425.287 54.776 427.372 54.1933 428.721 53.028C430.071 51.8013 430.745 50.3907 430.745 48.796C430.745 47.508 430.255 46.4653 429.273 45.668C428.292 44.8707 426.82 44.1653 424.857 43.552L415.749 40.608C411.64 39.2587 408.144 37.2347 405.261 34.536C402.44 31.776 401.029 28.188 401.029 23.772C401.029 19.6627 402.072 16.1667 404.157 13.284C406.304 10.4013 409.217 8.19333 412.897 6.66C416.639 5.12666 420.901 4.36 425.685 4.36C432.003 4.36 437.339 5.49467 441.693 7.764C446.048 9.972 449.636 13.1 452.457 17.148L442.797 25.98C440.896 22.7293 438.381 20.368 435.253 18.896C432.187 17.3627 428.997 16.596 425.685 16.596C422.864 16.596 420.779 17.148 419.429 18.252C418.141 19.2947 417.497 20.6133 417.497 22.208C417.497 23.4347 418.08 24.5693 419.245 25.612C420.472 26.5933 422.067 27.3907 424.029 28.004L433.137 30.948C437.737 32.42 441.233 34.444 443.625 37.02C446.017 39.596 447.213 42.908 447.213 46.956C447.213 51.1267 446.109 54.7147 443.901 57.72C441.755 60.7253 438.811 63.0253 435.069 64.62C431.328 66.2147 427.157 67.012 422.557 67.012ZM472.573 66.828C466.869 66.828 462.514 65.356 459.509 62.412C456.565 59.4067 455.768 54.9907 457.117 49.164L461.257 31.132H452.701L455.277 20H463.833L466.041 10.064L482.785 5.648L479.473 20H491.985L489.409 31.132H476.897L472.757 48.796C472.144 51.188 472.42 52.9973 473.585 54.224C474.812 55.3893 476.59 55.972 478.921 55.972C480.332 55.972 481.466 55.8493 482.325 55.604C483.184 55.3587 483.981 55.052 484.717 54.684L483.797 64.712C482.141 65.5093 480.362 66.0613 478.461 66.368C476.56 66.6747 474.597 66.828 472.573 66.828ZM491.299 85.78C488.662 85.78 486.239 85.4733 484.031 84.86C481.823 84.308 480.075 83.5413 478.787 82.56L483.111 71.612C485.258 73.3907 487.895 74.28 491.023 74.28C494.458 74.28 497.095 72.8693 498.935 70.048L500.775 67.012L492.679 20H508.503L509.883 44.748L510.251 55.972L515.495 45.024L527.639 20H544.291L514.667 69.864C511.294 75.568 507.829 79.6467 504.271 82.1C500.714 84.5533 496.39 85.78 491.299 85.78ZM553.456 66.828C547.936 66.828 544.041 65.3253 541.772 62.32C539.564 59.2533 539.073 55.1747 540.3 50.084L551.8 0.495999H567.44L556.032 49.9C555.051 53.948 556.492 55.972 560.356 55.972C561.828 55.972 562.932 55.8493 563.668 55.604L560.908 65.724C559.068 66.46 556.584 66.828 553.456 66.828ZM590.644 66.828C586.106 66.828 582.119 65.9693 578.684 64.252C575.25 62.5347 572.582 60.112 570.68 56.984C568.779 53.856 567.828 50.176 567.828 45.944C567.828 40.792 568.871 36.192 570.956 32.144C573.103 28.096 576.108 24.9373 579.972 22.668C583.898 20.3373 588.559 19.172 593.956 19.172C600.642 19.172 605.824 21.0427 609.504 24.784C613.246 28.464 615.116 33.432 615.116 39.688C615.116 40.8533 615.055 42.08 614.932 43.368C614.81 44.656 614.564 45.9133 614.196 47.14H582.364C582.426 50.0227 583.284 52.2307 584.94 53.764C586.596 55.236 588.712 55.972 591.288 55.972C593.496 55.972 595.275 55.4813 596.624 54.5C597.974 53.4573 599.016 52.1693 599.752 50.636L612.632 55.696C610.976 59.192 608.186 61.9213 604.26 63.884C600.335 65.8467 595.796 66.828 590.644 66.828ZM593.588 30.028C590.767 30.028 588.559 30.8867 586.964 32.604C585.37 34.26 584.204 36.284 583.468 38.676H600.12C600.182 38.2467 600.212 37.7253 600.212 37.112C600.212 34.7813 599.599 33.0333 598.372 31.868C597.146 30.6413 595.551 30.028 593.588 30.028Z" fill="#FF228C"/>
</svg>
