<svg width="235" height="29" viewBox="0 0 235 29" fill="none" xmlns="http://www.w3.org/2000/svg">
<path d="M13.6903 6.684C13.6903 8.04667 13.2609 9.12933 12.4023 9.932C11.5436 10.716 10.3956 11.22 8.95828 11.444V11.556C10.6383 11.78 11.9169 12.3027 12.7943 13.124C13.6716 13.9453 14.1103 15.0187 14.1103 16.344C14.1103 18.0987 13.4383 19.5267 12.0943 20.628C10.7503 21.7293 8.73428 22.28 6.04628 22.28C4.96361 22.28 3.92761 22.196 2.93828 22.028C1.96761 21.8787 1.06228 21.5987 0.222279 21.188V18.892C1.09961 19.3027 2.05161 19.6293 3.07828 19.872C4.12361 20.096 5.10361 20.208 6.01828 20.208C7.81028 20.208 9.16361 19.872 10.0783 19.2C11.0116 18.528 11.4783 17.576 11.4783 16.344C11.4783 15.0747 10.9369 14.1507 9.85428 13.572C8.77161 12.9933 7.25961 12.704 5.31828 12.704H2.46228V10.604H5.17828C7.15695 10.604 8.63161 10.2773 9.60228 9.624C10.5916 8.952 11.0863 8.056 11.0863 6.936C11.0863 5.928 10.7129 5.15333 9.96628 4.612C9.21961 4.07067 8.24895 3.8 7.05428 3.8C5.80361 3.8 4.75828 3.95867 3.91828 4.276C3.09695 4.59333 2.29428 5.004 1.51028 5.508L0.306279 3.8C1.09028 3.22133 2.05161 2.736 3.19028 2.344C4.34761 1.93333 5.64495 1.728 7.08228 1.728C9.24761 1.728 10.8903 2.19467 12.0103 3.128C13.1303 4.06133 13.6903 5.24667 13.6903 6.684ZM23.1232 6.74C24.9525 6.74 26.3059 7.14133 27.1832 7.944C28.0605 8.74667 28.4992 10.0253 28.4992 11.78V22H26.7072L26.2312 19.872H26.1192C25.4659 20.6933 24.7752 21.3 24.0472 21.692C23.3379 22.084 22.3485 22.28 21.0792 22.28C19.7165 22.28 18.5872 21.9253 17.6912 21.216C16.7952 20.488 16.3472 19.3587 16.3472 17.828C16.3472 16.3347 16.9352 15.1867 18.1112 14.384C19.2872 13.5627 21.0979 13.1147 23.5432 13.04L26.0912 12.956V12.06C26.0912 10.8093 25.8205 9.94133 25.2792 9.456C24.7379 8.97067 23.9725 8.728 22.9832 8.728C22.1992 8.728 21.4525 8.84933 20.7432 9.092C20.0339 9.316 19.3712 9.57733 18.7552 9.876L17.9992 8.028C18.6525 7.67333 19.4272 7.37467 20.3232 7.132C21.2192 6.87067 22.1525 6.74 23.1232 6.74ZM23.8512 14.748C21.9845 14.8227 20.6872 15.1213 19.9592 15.644C19.2499 16.1667 18.8952 16.904 18.8952 17.856C18.8952 18.696 19.1472 19.312 19.6512 19.704C20.1739 20.096 20.8365 20.292 21.6392 20.292C22.9085 20.292 23.9632 19.9467 24.8032 19.256C25.6432 18.5467 26.0632 17.464 26.0632 16.008V14.664L23.8512 14.748ZM45.2585 6.992V22H42.7945V9.092H35.0385V22H32.5745V6.992H45.2585ZM62.5352 14.468C62.5352 16.9507 61.9005 18.8733 60.6312 20.236C59.3805 21.5987 57.6819 22.28 55.5352 22.28C54.2099 22.28 53.0245 21.9813 51.9792 21.384C50.9525 20.768 50.1405 19.8813 49.5432 18.724C48.9459 17.548 48.6472 16.1293 48.6472 14.468C48.6472 11.9853 49.2725 10.072 50.5232 8.728C51.7739 7.384 53.4725 6.712 55.6192 6.712C56.9819 6.712 58.1765 7.02 59.2032 7.636C60.2485 8.23333 61.0605 9.11067 61.6392 10.268C62.2365 11.4067 62.5352 12.8067 62.5352 14.468ZM51.1952 14.468C51.1952 16.2413 51.5405 17.6507 52.2312 18.696C52.9405 19.7227 54.0605 20.236 55.5912 20.236C57.1032 20.236 58.2139 19.7227 58.9232 18.696C59.6325 17.6507 59.9872 16.2413 59.9872 14.468C59.9872 12.6947 59.6325 11.304 58.9232 10.296C58.2139 9.288 57.0939 8.784 55.5632 8.784C54.0325 8.784 52.9219 9.288 52.2312 10.296C51.5405 11.304 51.1952 12.6947 51.1952 14.468ZM77.3043 22H74.8123V9.036H70.3883C70.1456 12.1907 69.8096 14.7387 69.3803 16.68C68.951 18.6027 68.3816 20.0027 67.6723 20.88C66.963 21.7573 66.067 22.196 64.9843 22.196C64.7416 22.196 64.499 22.1773 64.2563 22.14C64.0323 22.1213 63.8456 22.0747 63.6963 22V20.152C63.8083 20.1893 63.9296 20.2173 64.0603 20.236C64.191 20.2547 64.3216 20.264 64.4523 20.264C65.4603 20.264 66.263 19.1907 66.8603 17.044C67.4763 14.8973 67.943 11.5467 68.2603 6.992H77.3043V22ZM83.9718 6.992V13.236H92.1198V6.992H94.5838V22H92.1198V15.308H83.9718V22H81.5078V6.992H83.9718ZM101.1 16.148C101.1 16.372 101.091 16.708 101.072 17.156C101.053 17.604 101.025 18.052 100.988 18.5C100.969 18.948 100.951 19.3027 100.932 19.564L108.968 6.992H111.992V22H109.696V13.152C109.696 12.8533 109.696 12.4613 109.696 11.976C109.715 11.4907 109.733 11.0147 109.752 10.548C109.771 10.0627 109.789 9.69867 109.808 9.456L101.828 22H98.7759V6.992H101.1V16.148ZM126.568 9.064H121.668V22H119.232V9.064H114.388V6.992H126.568V9.064ZM134.487 6.712C135.775 6.712 136.876 6.992 137.791 7.552C138.724 8.112 139.434 8.90533 139.919 9.932C140.423 10.94 140.675 12.1253 140.675 13.488V14.972H130.399C130.436 16.6707 130.866 17.968 131.687 18.864C132.527 19.7413 133.694 20.18 135.187 20.18C136.139 20.18 136.979 20.096 137.707 19.928C138.454 19.7413 139.219 19.48 140.003 19.144V21.3C139.238 21.636 138.482 21.8787 137.735 22.028C136.988 22.196 136.102 22.28 135.075 22.28C133.656 22.28 132.396 21.9907 131.295 21.412C130.212 20.8333 129.363 19.9747 128.747 18.836C128.15 17.6787 127.851 16.2693 127.851 14.608C127.851 12.9653 128.122 11.556 128.663 10.38C129.223 9.204 129.998 8.29867 130.987 7.664C131.995 7.02933 133.162 6.712 134.487 6.712ZM134.459 8.728C133.283 8.728 132.35 9.11067 131.659 9.876C130.987 10.6227 130.586 11.668 130.455 13.012H138.099C138.08 11.7427 137.782 10.716 137.203 9.932C136.624 9.12933 135.71 8.728 134.459 8.728ZM158.789 6.768C160.282 6.89867 161.58 7.29067 162.681 7.944C163.801 8.59733 164.669 9.47467 165.285 10.576C165.901 11.6773 166.209 12.984 166.209 14.496C166.209 16.7547 165.546 18.556 164.221 19.9C162.914 21.244 161.104 22.0187 158.789 22.224V28.72H156.381V22.224C154.906 22.0933 153.609 21.7107 152.489 21.076C151.369 20.4227 150.501 19.5453 149.885 18.444C149.269 17.324 148.961 16.008 148.961 14.496C148.961 12.2187 149.614 10.408 150.921 9.064C152.246 7.72 154.094 6.95467 156.465 6.768V0.719999H158.789V6.768ZM156.465 8.812C154.748 8.98 153.497 9.54933 152.713 10.52C151.929 11.472 151.537 12.7973 151.537 14.496C151.537 16.1947 151.929 17.5293 152.713 18.5C153.516 19.4707 154.766 20.04 156.465 20.208V8.812ZM158.789 20.208C160.469 20.0213 161.701 19.4427 162.485 18.472C163.269 17.5013 163.661 16.176 163.661 14.496C163.661 12.816 163.26 11.5 162.457 10.548C161.673 9.596 160.45 9.02667 158.789 8.84V20.208ZM182.606 14.468C182.606 16.9507 181.971 18.8733 180.702 20.236C179.451 21.5987 177.753 22.28 175.606 22.28C174.281 22.28 173.095 21.9813 172.05 21.384C171.023 20.768 170.211 19.8813 169.614 18.724C169.017 17.548 168.718 16.1293 168.718 14.468C168.718 11.9853 169.343 10.072 170.594 8.728C171.845 7.384 173.543 6.712 175.69 6.712C177.053 6.712 178.247 7.02 179.274 7.636C180.319 8.23333 181.131 9.11067 181.71 10.268C182.307 11.4067 182.606 12.8067 182.606 14.468ZM171.266 14.468C171.266 16.2413 171.611 17.6507 172.302 18.696C173.011 19.7227 174.131 20.236 175.662 20.236C177.174 20.236 178.285 19.7227 178.994 18.696C179.703 17.6507 180.058 16.2413 180.058 14.468C180.058 12.6947 179.703 11.304 178.994 10.296C178.285 9.288 177.165 8.784 175.634 8.784C174.103 8.784 172.993 9.288 172.302 10.296C171.611 11.304 171.266 12.6947 171.266 14.468ZM193.091 6.712C194.939 6.712 196.423 7.356 197.543 8.644C198.682 9.932 199.251 11.8733 199.251 14.468C199.251 17.0253 198.682 18.9667 197.543 20.292C196.423 21.6173 194.93 22.28 193.063 22.28C191.906 22.28 190.944 22.0653 190.179 21.636C189.432 21.188 188.844 20.6747 188.415 20.096H188.247C188.284 20.4133 188.322 20.8147 188.359 21.3C188.396 21.7853 188.415 22.2053 188.415 22.56V28.72H185.951V6.992H187.967L188.303 9.036H188.415C188.863 8.38267 189.451 7.832 190.179 7.384C190.907 6.936 191.878 6.712 193.091 6.712ZM192.643 8.784C191.112 8.784 190.03 9.21333 189.395 10.072C188.779 10.9307 188.452 12.2373 188.415 13.992V14.468C188.415 16.316 188.714 17.744 189.311 18.752C189.927 19.7413 191.056 20.236 192.699 20.236C193.614 20.236 194.36 19.984 194.939 19.48C195.536 18.976 195.975 18.2947 196.255 17.436C196.554 16.5587 196.703 15.56 196.703 14.44C196.703 12.7227 196.367 11.3507 195.695 10.324C195.042 9.29733 194.024 8.784 192.643 8.784ZM218.718 6.992V22H216.506V12.424C216.506 12.032 216.515 11.6213 216.534 11.192C216.571 10.7627 216.608 10.3427 216.646 9.932H216.562L211.662 22H209.59L204.83 9.932H204.746C204.802 10.772 204.83 11.6307 204.83 12.508V22H202.618V6.992H205.894L210.626 19.06L215.442 6.992H218.718ZM220.596 6.992H223.228L226.476 15.532C226.756 16.2787 227.008 16.9973 227.232 17.688C227.456 18.36 227.624 19.004 227.736 19.62H227.848C227.96 19.1533 228.138 18.5467 228.38 17.8C228.623 17.0347 228.875 16.2693 229.136 15.504L232.188 6.992H234.848L228.38 24.072C227.858 25.4907 227.176 26.62 226.336 27.46C225.515 28.3 224.376 28.72 222.92 28.72C222.472 28.72 222.08 28.692 221.744 28.636C221.408 28.5987 221.119 28.552 220.876 28.496V26.536C221.082 26.5733 221.324 26.6107 221.604 26.648C221.903 26.6853 222.211 26.704 222.528 26.704C223.387 26.704 224.078 26.4613 224.6 25.976C225.142 25.4907 225.562 24.8467 225.86 24.044L226.644 22.056L220.596 6.992Z" fill="white"/>
<path d="M13.6903 6.684C13.6903 8.04667 13.2609 9.12933 12.4023 9.932C11.5436 10.716 10.3956 11.22 8.95828 11.444V11.556C10.6383 11.78 11.9169 12.3027 12.7943 13.124C13.6716 13.9453 14.1103 15.0187 14.1103 16.344C14.1103 18.0987 13.4383 19.5267 12.0943 20.628C10.7503 21.7293 8.73428 22.28 6.04628 22.28C4.96361 22.28 3.92761 22.196 2.93828 22.028C1.96761 21.8787 1.06228 21.5987 0.222279 21.188V18.892C1.09961 19.3027 2.05161 19.6293 3.07828 19.872C4.12361 20.096 5.10361 20.208 6.01828 20.208C7.81028 20.208 9.16361 19.872 10.0783 19.2C11.0116 18.528 11.4783 17.576 11.4783 16.344C11.4783 15.0747 10.9369 14.1507 9.85428 13.572C8.77161 12.9933 7.25961 12.704 5.31828 12.704H2.46228V10.604H5.17828C7.15695 10.604 8.63161 10.2773 9.60228 9.624C10.5916 8.952 11.0863 8.056 11.0863 6.936C11.0863 5.928 10.7129 5.15333 9.96628 4.612C9.21961 4.07067 8.24895 3.8 7.05428 3.8C5.80361 3.8 4.75828 3.95867 3.91828 4.276C3.09695 4.59333 2.29428 5.004 1.51028 5.508L0.306279 3.8C1.09028 3.22133 2.05161 2.736 3.19028 2.344C4.34761 1.93333 5.64495 1.728 7.08228 1.728C9.24761 1.728 10.8903 2.19467 12.0103 3.128C13.1303 4.06133 13.6903 5.24667 13.6903 6.684ZM23.1232 6.74C24.9525 6.74 26.3059 7.14133 27.1832 7.944C28.0605 8.74667 28.4992 10.0253 28.4992 11.78V22H26.7072L26.2312 19.872H26.1192C25.4659 20.6933 24.7752 21.3 24.0472 21.692C23.3379 22.084 22.3485 22.28 21.0792 22.28C19.7165 22.28 18.5872 21.9253 17.6912 21.216C16.7952 20.488 16.3472 19.3587 16.3472 17.828C16.3472 16.3347 16.9352 15.1867 18.1112 14.384C19.2872 13.5627 21.0979 13.1147 23.5432 13.04L26.0912 12.956V12.06C26.0912 10.8093 25.8205 9.94133 25.2792 9.456C24.7379 8.97067 23.9725 8.728 22.9832 8.728C22.1992 8.728 21.4525 8.84933 20.7432 9.092C20.0339 9.316 19.3712 9.57733 18.7552 9.876L17.9992 8.028C18.6525 7.67333 19.4272 7.37467 20.3232 7.132C21.2192 6.87067 22.1525 6.74 23.1232 6.74ZM23.8512 14.748C21.9845 14.8227 20.6872 15.1213 19.9592 15.644C19.2499 16.1667 18.8952 16.904 18.8952 17.856C18.8952 18.696 19.1472 19.312 19.6512 19.704C20.1739 20.096 20.8365 20.292 21.6392 20.292C22.9085 20.292 23.9632 19.9467 24.8032 19.256C25.6432 18.5467 26.0632 17.464 26.0632 16.008V14.664L23.8512 14.748ZM45.2585 6.992V22H42.7945V9.092H35.0385V22H32.5745V6.992H45.2585ZM62.5352 14.468C62.5352 16.9507 61.9005 18.8733 60.6312 20.236C59.3805 21.5987 57.6819 22.28 55.5352 22.28C54.2099 22.28 53.0245 21.9813 51.9792 21.384C50.9525 20.768 50.1405 19.8813 49.5432 18.724C48.9459 17.548 48.6472 16.1293 48.6472 14.468C48.6472 11.9853 49.2725 10.072 50.5232 8.728C51.7739 7.384 53.4725 6.712 55.6192 6.712C56.9819 6.712 58.1765 7.02 59.2032 7.636C60.2485 8.23333 61.0605 9.11067 61.6392 10.268C62.2365 11.4067 62.5352 12.8067 62.5352 14.468ZM51.1952 14.468C51.1952 16.2413 51.5405 17.6507 52.2312 18.696C52.9405 19.7227 54.0605 20.236 55.5912 20.236C57.1032 20.236 58.2139 19.7227 58.9232 18.696C59.6325 17.6507 59.9872 16.2413 59.9872 14.468C59.9872 12.6947 59.6325 11.304 58.9232 10.296C58.2139 9.288 57.0939 8.784 55.5632 8.784C54.0325 8.784 52.9219 9.288 52.2312 10.296C51.5405 11.304 51.1952 12.6947 51.1952 14.468ZM77.3043 22H74.8123V9.036H70.3883C70.1456 12.1907 69.8096 14.7387 69.3803 16.68C68.951 18.6027 68.3816 20.0027 67.6723 20.88C66.963 21.7573 66.067 22.196 64.9843 22.196C64.7416 22.196 64.499 22.1773 64.2563 22.14C64.0323 22.1213 63.8456 22.0747 63.6963 22V20.152C63.8083 20.1893 63.9296 20.2173 64.0603 20.236C64.191 20.2547 64.3216 20.264 64.4523 20.264C65.4603 20.264 66.263 19.1907 66.8603 17.044C67.4763 14.8973 67.943 11.5467 68.2603 6.992H77.3043V22ZM83.9718 6.992V13.236H92.1198V6.992H94.5838V22H92.1198V15.308H83.9718V22H81.5078V6.992H83.9718ZM101.1 16.148C101.1 16.372 101.091 16.708 101.072 17.156C101.053 17.604 101.025 18.052 100.988 18.5C100.969 18.948 100.951 19.3027 100.932 19.564L108.968 6.992H111.992V22H109.696V13.152C109.696 12.8533 109.696 12.4613 109.696 11.976C109.715 11.4907 109.733 11.0147 109.752 10.548C109.771 10.0627 109.789 9.69867 109.808 9.456L101.828 22H98.7759V6.992H101.1V16.148ZM126.568 9.064H121.668V22H119.232V9.064H114.388V6.992H126.568V9.064ZM134.487 6.712C135.775 6.712 136.876 6.992 137.791 7.552C138.724 8.112 139.434 8.90533 139.919 9.932C140.423 10.94 140.675 12.1253 140.675 13.488V14.972H130.399C130.436 16.6707 130.866 17.968 131.687 18.864C132.527 19.7413 133.694 20.18 135.187 20.18C136.139 20.18 136.979 20.096 137.707 19.928C138.454 19.7413 139.219 19.48 140.003 19.144V21.3C139.238 21.636 138.482 21.8787 137.735 22.028C136.988 22.196 136.102 22.28 135.075 22.28C133.656 22.28 132.396 21.9907 131.295 21.412C130.212 20.8333 129.363 19.9747 128.747 18.836C128.15 17.6787 127.851 16.2693 127.851 14.608C127.851 12.9653 128.122 11.556 128.663 10.38C129.223 9.204 129.998 8.29867 130.987 7.664C131.995 7.02933 133.162 6.712 134.487 6.712ZM134.459 8.728C133.283 8.728 132.35 9.11067 131.659 9.876C130.987 10.6227 130.586 11.668 130.455 13.012H138.099C138.08 11.7427 137.782 10.716 137.203 9.932C136.624 9.12933 135.71 8.728 134.459 8.728ZM158.789 6.768C160.282 6.89867 161.58 7.29067 162.681 7.944C163.801 8.59733 164.669 9.47467 165.285 10.576C165.901 11.6773 166.209 12.984 166.209 14.496C166.209 16.7547 165.546 18.556 164.221 19.9C162.914 21.244 161.104 22.0187 158.789 22.224V28.72H156.381V22.224C154.906 22.0933 153.609 21.7107 152.489 21.076C151.369 20.4227 150.501 19.5453 149.885 18.444C149.269 17.324 148.961 16.008 148.961 14.496C148.961 12.2187 149.614 10.408 150.921 9.064C152.246 7.72 154.094 6.95467 156.465 6.768V0.719999H158.789V6.768ZM156.465 8.812C154.748 8.98 153.497 9.54933 152.713 10.52C151.929 11.472 151.537 12.7973 151.537 14.496C151.537 16.1947 151.929 17.5293 152.713 18.5C153.516 19.4707 154.766 20.04 156.465 20.208V8.812ZM158.789 20.208C160.469 20.0213 161.701 19.4427 162.485 18.472C163.269 17.5013 163.661 16.176 163.661 14.496C163.661 12.816 163.26 11.5 162.457 10.548C161.673 9.596 160.45 9.02667 158.789 8.84V20.208ZM182.606 14.468C182.606 16.9507 181.971 18.8733 180.702 20.236C179.451 21.5987 177.753 22.28 175.606 22.28C174.281 22.28 173.095 21.9813 172.05 21.384C171.023 20.768 170.211 19.8813 169.614 18.724C169.017 17.548 168.718 16.1293 168.718 14.468C168.718 11.9853 169.343 10.072 170.594 8.728C171.845 7.384 173.543 6.712 175.69 6.712C177.053 6.712 178.247 7.02 179.274 7.636C180.319 8.23333 181.131 9.11067 181.71 10.268C182.307 11.4067 182.606 12.8067 182.606 14.468ZM171.266 14.468C171.266 16.2413 171.611 17.6507 172.302 18.696C173.011 19.7227 174.131 20.236 175.662 20.236C177.174 20.236 178.285 19.7227 178.994 18.696C179.703 17.6507 180.058 16.2413 180.058 14.468C180.058 12.6947 179.703 11.304 178.994 10.296C178.285 9.288 177.165 8.784 175.634 8.784C174.103 8.784 172.993 9.288 172.302 10.296C171.611 11.304 171.266 12.6947 171.266 14.468ZM193.091 6.712C194.939 6.712 196.423 7.356 197.543 8.644C198.682 9.932 199.251 11.8733 199.251 14.468C199.251 17.0253 198.682 18.9667 197.543 20.292C196.423 21.6173 194.93 22.28 193.063 22.28C191.906 22.28 190.944 22.0653 190.179 21.636C189.432 21.188 188.844 20.6747 188.415 20.096H188.247C188.284 20.4133 188.322 20.8147 188.359 21.3C188.396 21.7853 188.415 22.2053 188.415 22.56V28.72H185.951V6.992H187.967L188.303 9.036H188.415C188.863 8.38267 189.451 7.832 190.179 7.384C190.907 6.936 191.878 6.712 193.091 6.712ZM192.643 8.784C191.112 8.784 190.03 9.21333 189.395 10.072C188.779 10.9307 188.452 12.2373 188.415 13.992V14.468C188.415 16.316 188.714 17.744 189.311 18.752C189.927 19.7413 191.056 20.236 192.699 20.236C193.614 20.236 194.36 19.984 194.939 19.48C195.536 18.976 195.975 18.2947 196.255 17.436C196.554 16.5587 196.703 15.56 196.703 14.44C196.703 12.7227 196.367 11.3507 195.695 10.324C195.042 9.29733 194.024 8.784 192.643 8.784ZM218.718 6.992V22H216.506V12.424C216.506 12.032 216.515 11.6213 216.534 11.192C216.571 10.7627 216.608 10.3427 216.646 9.932H216.562L211.662 22H209.59L204.83 9.932H204.746C204.802 10.772 204.83 11.6307 204.83 12.508V22H202.618V6.992H205.894L210.626 19.06L215.442 6.992H218.718ZM220.596 6.992H223.228L226.476 15.532C226.756 16.2787 227.008 16.9973 227.232 17.688C227.456 18.36 227.624 19.004 227.736 19.62H227.848C227.96 19.1533 228.138 18.5467 228.38 17.8C228.623 17.0347 228.875 16.2693 229.136 15.504L232.188 6.992H234.848L228.38 24.072C227.858 25.4907 227.176 26.62 226.336 27.46C225.515 28.3 224.376 28.72 222.92 28.72C222.472 28.72 222.08 28.692 221.744 28.636C221.408 28.5987 221.119 28.552 220.876 28.496V26.536C221.082 26.5733 221.324 26.6107 221.604 26.648C221.903 26.6853 222.211 26.704 222.528 26.704C223.387 26.704 224.078 26.4613 224.6 25.976C225.142 25.4907 225.562 24.8467 225.86 24.044L226.644 22.056L220.596 6.992Z" fill="url(#paint0_linear_248_112)"/>
<defs>
<linearGradient id="paint0_linear_248_112" x1="64.0035" y1="12" x2="177.449" y2="12" gradientUnits="userSpaceOnUse">
<stop offset="0.353595" stop-color="white"/>
<stop offset="1" stop-color="#F801A9"/>
</linearGradient>
</defs>
</svg>
