<svg width="1390" height="113" viewBox="0 0 1390 113" fill="none" xmlns="http://www.w3.org/2000/svg">
<path d="M112.167 0.237188C122.917 1.48168 132.184 6.20779 139.637 14.2081C145.414 20.4158 149.473 28.0753 151.468 36.5201C151.855 38.2239 152.146 39.7943 152.479 42.224C152.77 44.3871 152.811 51.3651 152.548 53.4837C151.371 62.773 148.891 69.677 144.236 76.7291C140.953 81.6922 136.063 86.5221 130.938 89.8555C130.467 90.1667 130.079 90.463 130.079 90.537C130.079 90.6556 132.448 92.0186 139.845 96.1521C144.001 98.4781 146.217 99.8707 155.402 105.915C161.303 109.782 166.069 112.982 165.999 112.997C165.93 113.027 165.39 112.819 164.808 112.538C160.32 110.345 145.829 103.723 145.705 103.797C145.608 103.856 145.594 103.841 145.649 103.738C145.719 103.619 145.635 103.575 145.428 103.589C144.777 103.634 141.272 101.841 133.265 97.3373C129.067 94.9668 127.945 94.4483 126.435 94.1668C123.623 93.6483 123.956 93.6335 121.905 94.3446C118.428 95.5298 115.131 96.2706 111.751 96.6114C109.438 96.8336 103.675 96.7151 101.611 96.3891C95.7651 95.4557 90.9304 93.7668 86.0958 90.9519C77.216 85.7961 70.3034 77.6773 66.1476 67.5584C65.4965 65.9879 64.0142 61.3952 63.9865 60.9211C63.9865 60.7729 63.945 60.7433 63.9034 60.847C63.8619 60.9655 63.5709 60.6396 63.2108 60.1062C62.8644 59.6025 61.9502 58.521 61.1744 57.7061C59.6229 56.0616 59.1796 55.7505 54.7189 53.2615C49.2332 50.1947 48.6791 49.8836 47.7232 49.3354C47.183 49.0243 45.9362 48.328 44.9526 47.7798C43.9552 47.2316 42.7085 46.5205 42.1821 46.2242C41.6418 45.9131 40.492 45.2612 39.6193 44.7723C34.5491 41.9425 29.2989 38.9943 28.3292 38.4461C26.459 37.3794 22.7049 35.3497 21.4997 34.7571C20.8763 34.4459 20.3638 34.12 20.3638 34.0459C20.3638 33.9718 20.2945 33.957 20.2252 34.0015C20.1421 34.0459 20.0867 34.0311 20.0867 33.957C20.0867 33.883 18.8815 33.2311 17.4131 32.5199C12.1074 29.9272 10.2511 28.8309 3.94808 24.6233C1.95326 23.3048 0.554117 22.2677 0.457147 22.0603C0.346324 21.8529 0.277059 21.7936 0.277059 21.9269C0.263206 22.3714 1.15689e-06 21.7343 1.15689e-06 21.2602C1.15689e-06 20.9195 0.0415598 20.8602 0.13853 21.038C0.2355 21.201 0.277059 21.1565 0.277059 20.801C0.277059 20.1639 0.692646 19.6602 1.52382 19.275L2.21646 18.949L4.26669 19.8676C12.6754 23.6307 15.252 25.053 22.6495 30.0013C25.7525 32.0755 28.5785 33.72 42.8055 41.7055C51.9068 46.8168 60.0939 51.3948 60.9805 51.8688L62.6012 52.743L62.5181 50.1058C62.3519 44.713 63.1276 38.8461 64.7207 33.4978C69.4446 17.6008 81.9399 5.20035 97.1088 1.34834C101.999 0.103849 107.54 -0.310982 112.167 0.237188ZM3.76799 21.9566C3.43552 22.727 3.68487 22.9788 6.05372 24.2974C7.25892 24.9789 10.6667 26.8901 13.6174 28.5494C19.3248 31.7644 19.685 31.9421 19.6296 31.6755C19.5741 31.3643 20.1975 31.1421 20.8209 31.2754C21.1395 31.3347 21.4304 31.3643 21.4581 31.3199C21.6936 31.0828 20.6962 30.3717 18.0642 28.8902C16.388 27.9568 12.7585 25.9123 9.97409 24.3418C4.47449 21.2306 4.15587 21.1121 3.76799 21.9566ZM95.391 26.816C93.7148 27.4234 92.2326 28.6828 91.3737 30.2087C89.8914 32.8311 89.9192 36.2831 91.4291 38.8165C92.0248 39.8239 93.3685 41.0981 94.3521 41.6462C96.7625 42.9352 99.6439 42.787 101.888 41.261C103.758 39.9869 104.894 38.0757 105.296 35.5126C105.933 31.4236 102.941 27.1271 98.9789 26.4604C98.1339 26.3271 96.1945 26.5197 95.391 26.816ZM118.747 30.3124C116.323 31.0532 114.48 32.9644 113.663 35.5423C113.178 37.0535 113.178 39.0832 113.649 40.5795C115.478 46.3427 122.238 48.0317 126.2 43.7204C127.585 42.2092 128.402 40.1054 128.416 38.0609C128.416 36.9349 127.959 35.1126 127.419 34.0904C126.519 32.4014 124.759 30.9051 122.944 30.2976C122.113 30.0161 119.689 30.031 118.747 30.3124ZM92.2049 50.891C89.8083 51.7207 88.049 53.6023 87.2871 56.1357C86.9269 57.3357 86.8854 59.558 87.2178 60.7581C88.2291 64.4619 91.72 67.0102 95.2248 66.6102C97.7045 66.3287 100.004 64.699 101.168 62.4174C101.653 61.4396 102.096 59.6025 102.096 58.5358C102.068 55.0097 99.6716 51.6911 96.4716 50.7429C95.2941 50.4021 93.4239 50.4614 92.2049 50.891ZM115.824 54.2986C113.137 54.9801 110.976 57.1876 110.214 60.0321C109.895 61.2026 109.923 63.2026 110.269 64.4323C111.225 67.8695 114.189 70.2251 117.556 70.2251C121.559 70.2251 124.801 66.9361 125.064 62.61C125.369 57.3209 120.659 53.0837 115.824 54.2986Z" fill="#FF228C"/>
<path d="M1287.97 0.218298C1278.19 1.36367 1269.76 5.71337 1262.98 13.0765C1257.73 18.7897 1254.03 25.8392 1252.22 33.6114C1251.87 35.1795 1251.6 36.6248 1251.3 38.861C1251.03 40.8518 1251 47.2741 1251.24 49.224C1252.31 57.7734 1254.56 64.1275 1258.8 70.6179C1261.78 75.1858 1266.23 79.6309 1270.89 82.6989C1271.32 82.9852 1271.68 83.2579 1271.68 83.3261C1271.68 83.4352 1269.52 84.6897 1262.79 88.4939C1259.01 90.6347 1257 91.9164 1248.64 97.4797C1243.27 101.039 1238.94 103.984 1239 103.997C1239.06 104.025 1239.56 103.834 1240.08 103.575C1244.17 101.557 1257.35 95.4616 1257.46 95.5298C1257.55 95.5844 1257.56 95.5707 1257.51 95.4753C1257.45 95.3662 1257.52 95.3253 1257.71 95.3389C1258.31 95.3798 1261.49 93.7299 1268.78 89.5848C1272.6 87.4031 1273.62 86.9259 1274.99 86.6668C1277.55 86.1896 1277.25 86.1759 1279.11 86.8304C1282.27 87.9213 1285.27 88.603 1288.35 88.9166C1290.45 89.1212 1295.69 89.0121 1297.57 88.7121C1302.89 87.8531 1307.29 86.2986 1311.68 83.7079C1319.76 78.9628 1326.05 71.4906 1329.83 62.1776C1330.42 60.7323 1331.77 56.5053 1331.8 56.0689C1331.8 55.9326 1331.83 55.9053 1331.87 56.0008C1331.91 56.1098 1332.17 55.8099 1332.5 55.319C1332.82 54.8554 1333.65 53.86 1334.35 53.1101C1335.76 51.5965 1336.17 51.3102 1340.23 49.0194C1345.22 46.1969 1345.72 45.9106 1346.59 45.406C1347.08 45.1197 1348.21 44.4788 1349.11 43.9743C1350.02 43.4698 1351.15 42.8153 1351.63 42.5426C1352.12 42.2563 1353.17 41.6563 1353.96 41.2063C1358.57 38.602 1363.35 35.8885 1364.23 35.384C1365.93 34.4023 1369.35 32.5342 1370.44 31.9888C1371.01 31.7025 1371.48 31.4025 1371.48 31.3343C1371.48 31.2661 1371.54 31.2525 1371.6 31.2934C1371.68 31.3343 1371.73 31.3207 1371.73 31.2525C1371.73 31.1843 1372.82 30.5844 1374.16 29.9299C1378.99 27.5437 1380.68 26.5346 1386.41 22.6622C1388.22 21.4486 1389.5 20.4942 1389.58 20.3033C1389.68 20.1124 1389.75 20.0578 1389.75 20.1805C1389.76 20.5896 1390 20.0033 1390 19.5669C1390 19.2533 1389.96 19.1988 1389.87 19.3624C1389.79 19.5124 1389.75 19.4715 1389.75 19.1442C1389.75 18.5579 1389.37 18.0943 1388.61 17.7398L1387.98 17.4398L1386.12 18.2852C1378.47 21.7486 1376.13 23.0576 1369.4 27.6118C1366.57 29.5208 1364 31.0343 1351.06 38.3838C1342.78 43.088 1335.34 47.3014 1334.53 47.7377L1333.06 48.5422L1333.13 46.1151C1333.28 41.1518 1332.58 35.7522 1331.13 30.8298C1326.83 16.199 1315.46 4.78616 1301.67 1.24095C1297.22 0.0955792 1292.18 -0.286212 1287.97 0.218298ZM1386.57 20.2078C1386.87 20.9169 1386.65 21.1487 1384.49 22.3622C1383.4 22.9894 1380.3 24.7484 1377.61 26.2756C1372.42 29.2345 1372.09 29.3981 1372.14 29.1526C1372.19 28.8663 1371.63 28.6618 1371.06 28.7845C1370.77 28.839 1370.51 28.8663 1370.48 28.8254C1370.27 28.6072 1371.17 27.9527 1373.57 26.5892C1375.09 25.7302 1378.39 23.8485 1380.93 22.4031C1385.93 19.5397 1386.22 19.4306 1386.57 20.2078ZM1303.23 24.6802C1304.75 25.2393 1306.1 26.3983 1306.88 27.8027C1308.23 30.2162 1308.21 33.3933 1306.83 35.7249C1306.29 36.6521 1305.07 37.8248 1304.17 38.3293C1301.98 39.5155 1299.36 39.3792 1297.32 37.9747C1295.62 36.8021 1294.58 35.0431 1294.22 32.6842C1293.64 28.9208 1296.36 24.9666 1299.96 24.353C1300.73 24.2303 1302.5 24.4075 1303.23 24.6802ZM1281.98 27.8982C1284.19 28.58 1285.86 30.3389 1286.61 32.7115C1287.05 34.1023 1287.05 35.9703 1286.62 37.3475C1284.96 42.6517 1278.81 44.2061 1275.2 40.2382C1273.94 38.8474 1273.2 36.9112 1273.19 35.0295C1273.19 33.9932 1273.6 32.3161 1274.09 31.3752C1274.91 29.8208 1276.51 28.4436 1278.16 27.8845C1278.92 27.6255 1281.13 27.6391 1281.98 27.8982ZM1306.13 46.8378C1308.31 47.6013 1309.91 49.333 1310.6 51.6647C1310.93 52.7692 1310.97 54.8145 1310.66 55.919C1309.74 59.3278 1306.57 61.6731 1303.38 61.3049C1301.12 61.0459 1299.03 59.546 1297.97 57.4461C1297.53 56.5462 1297.13 54.8554 1297.13 53.8736C1297.15 50.6284 1299.33 47.5741 1302.25 46.7014C1303.32 46.3878 1305.02 46.4423 1306.13 46.8378ZM1284.64 49.9739C1287.09 50.6011 1289.05 52.6328 1289.75 55.2508C1290.04 56.328 1290.01 58.1688 1289.7 59.3005C1288.83 62.4639 1286.13 64.632 1283.07 64.632C1279.43 64.632 1276.48 61.6049 1276.24 57.6234C1275.96 52.7555 1280.24 48.8558 1284.64 49.9739Z" fill="#FF228C"/>
</svg>
