<svg width="49" height="48" viewBox="0 0 49 48" fill="none" xmlns="http://www.w3.org/2000/svg">
<path d="M0.786621 24C0.786621 10.7452 11.5088 0 24.7353 0C37.9618 0 48.684 10.7452 48.684 24C48.684 37.2548 37.9618 48 24.7353 48C11.5088 48 0.786621 37.2548 0.786621 24Z" fill="#DADADA"/>
<path d="M24.2372 13C21.1207 13 20.7295 13.0137 19.5055 13.0695C18.2838 13.1255 17.4499 13.3194 16.7203 13.6038C15.9655 13.8975 15.3253 14.2904 14.6874 14.9298C14.0491 15.5691 13.657 16.2107 13.363 16.9668C13.0785 17.6982 12.8848 18.5341 12.8298 19.7579C12.7751 20.9846 12.7607 21.3768 12.7607 24.5C12.7607 27.6232 12.7746 28.014 12.8301 29.2406C12.8863 30.4649 13.0797 31.3006 13.3632 32.0318C13.6566 32.7881 14.0486 33.4298 14.6867 34.069C15.3243 34.7086 15.9646 35.1025 16.7188 35.3962C17.449 35.6806 18.2831 35.8745 19.5045 35.9305C20.7286 35.9863 21.1195 36 24.2358 36C27.3526 36 27.7425 35.9863 28.9666 35.9305C30.1882 35.8745 31.0231 35.6806 31.7532 35.3962C32.5077 35.1025 33.147 34.7086 33.7846 34.069C34.423 33.4298 34.815 32.7881 35.1091 32.032C35.3912 31.3006 35.5849 30.4647 35.6422 29.2409C35.6972 28.0142 35.7116 27.6232 35.7116 24.5C35.7116 21.3768 35.6972 20.9848 35.6422 19.7582C35.5849 18.5339 35.3912 17.6982 35.1091 16.967C34.815 16.2107 34.423 15.5691 33.7846 14.9298C33.1463 14.2902 32.508 13.8972 31.7525 13.6038C31.0209 13.3194 30.1866 13.1255 28.9649 13.0695C27.7409 13.0137 27.3512 13 24.2336 13H24.2372Z" fill="#FF0A80" stroke="white"/>
<path d="M31.387 17C31.387 17.3689 31.0888 17.6667 30.7225 17.6667C30.3561 17.6667 30.0579 17.3689 30.0579 17C30.0579 16.6311 30.3561 16.3333 30.7225 16.3333C31.0888 16.3333 31.387 16.6311 31.387 17Z" stroke="white" stroke-width="0.666667"/>
<path d="M28.9224 25C28.9224 27.3232 27.0441 29.2 24.7352 29.2C22.4263 29.2 20.548 27.3232 20.548 25C20.548 22.6768 22.4263 20.8 24.7352 20.8C27.0441 20.8 28.9224 22.6768 28.9224 25Z" stroke="white" stroke-width="3.6"/>
</svg>
