<svg width="287" height="82" viewBox="0 0 287 82" fill="none" xmlns="http://www.w3.org/2000/svg">
<g filter="url(#filter0_d_301_7)">
<rect x="12.7866" y="12" width="261.44" height="58" rx="5" fill="#FF0A80"/>
</g>
<path d="M71.4211 51V31.008H86.4291V51H83.9371V33.22H73.9411V51H71.4211ZM104.054 43.468C104.054 45.9507 103.419 47.8733 102.15 49.236C100.899 50.5987 99.2003 51.28 97.0536 51.28C95.7283 51.28 94.5429 50.9813 93.4976 50.384C92.4709 49.768 91.6589 48.8813 91.0616 47.724C90.4643 46.548 90.1656 45.1293 90.1656 43.468C90.1656 40.9853 90.7909 39.072 92.0416 37.728C93.2923 36.384 94.9909 35.712 97.1376 35.712C98.5003 35.712 99.6949 36.02 100.722 36.636C101.767 37.2333 102.579 38.1107 103.158 39.268C103.755 40.4067 104.054 41.8067 104.054 43.468ZM92.7136 43.468C92.7136 45.2413 93.0589 46.6507 93.7496 47.696C94.4589 48.7227 95.5789 49.236 97.1096 49.236C98.6216 49.236 99.7323 48.7227 100.442 47.696C101.151 46.6507 101.506 45.2413 101.506 43.468C101.506 41.6947 101.151 40.304 100.442 39.296C99.7323 38.288 98.6123 37.784 97.0816 37.784C95.5509 37.784 94.4403 38.288 93.7496 39.296C93.0589 40.304 92.7136 41.6947 92.7136 43.468ZM118.543 35.992V48.928H120.727V56.208H118.347V51H107.903V56.208H105.551V48.928H106.755C108.043 47.1547 109.004 45.1387 109.639 42.88C110.292 40.6027 110.628 38.3067 110.647 35.992H118.543ZM112.831 37.924C112.756 39.1933 112.56 40.5093 112.243 41.872C111.925 43.216 111.515 44.504 111.011 45.736C110.525 46.968 109.956 48.032 109.303 48.928H116.163V37.924H112.831ZM130.248 35.712C132.096 35.712 133.58 36.356 134.7 37.644C135.839 38.932 136.408 40.8733 136.408 43.468C136.408 46.0253 135.839 47.9667 134.7 49.292C133.58 50.6173 132.087 51.28 130.22 51.28C129.063 51.28 128.102 51.0653 127.336 50.636C126.59 50.188 126.002 49.6747 125.572 49.096H125.404C125.442 49.4133 125.479 49.8147 125.516 50.3C125.554 50.7853 125.572 51.2053 125.572 51.56V57.72H123.108V35.992H125.124L125.46 38.036H125.572C126.02 37.3827 126.608 36.832 127.336 36.384C128.064 35.936 129.035 35.712 130.248 35.712ZM129.8 37.784C128.27 37.784 127.187 38.2133 126.552 39.072C125.936 39.9307 125.61 41.2373 125.572 42.992V43.468C125.572 45.316 125.871 46.744 126.468 47.752C127.084 48.7413 128.214 49.236 129.856 49.236C130.771 49.236 131.518 48.984 132.096 48.48C132.694 47.976 133.132 47.2947 133.412 46.436C133.711 45.5587 133.86 44.56 133.86 43.44C133.86 41.7227 133.524 40.3507 132.852 39.324C132.199 38.2973 131.182 37.784 129.8 37.784ZM152.823 43.468C152.823 45.9507 152.188 47.8733 150.919 49.236C149.668 50.5987 147.969 51.28 145.823 51.28C144.497 51.28 143.312 50.9813 142.267 50.384C141.24 49.768 140.428 48.8813 139.831 47.724C139.233 46.548 138.935 45.1293 138.935 43.468C138.935 40.9853 139.56 39.072 140.811 37.728C142.061 36.384 143.76 35.712 145.907 35.712C147.269 35.712 148.464 36.02 149.491 36.636C150.536 37.2333 151.348 38.1107 151.927 39.268C152.524 40.4067 152.823 41.8067 152.823 43.468ZM141.483 43.468C141.483 45.2413 141.828 46.6507 142.519 47.696C143.228 48.7227 144.348 49.236 145.879 49.236C147.391 49.236 148.501 48.7227 149.211 47.696C149.92 46.6507 150.275 45.2413 150.275 43.468C150.275 41.6947 149.92 40.304 149.211 39.296C148.501 38.288 147.381 37.784 145.851 37.784C144.32 37.784 143.209 38.288 142.519 39.296C141.828 40.304 141.483 41.6947 141.483 43.468ZM155.384 41.984C155.384 38.6987 155.879 36.1413 156.868 34.312C157.857 32.464 159.453 31.3067 161.656 30.84C162.869 30.5787 164.055 30.3453 165.212 30.14C166.369 29.9347 167.452 29.748 168.46 29.58L168.88 31.736C168.227 31.8293 167.489 31.9507 166.668 32.1C165.847 32.2307 165.035 32.3707 164.232 32.52C163.429 32.6507 162.739 32.7813 162.16 32.912C160.947 33.1733 159.985 33.808 159.276 34.816C158.567 35.8053 158.165 37.3547 158.072 39.464H158.24C158.501 39.1093 158.856 38.7453 159.304 38.372C159.771 37.9987 160.321 37.6813 160.956 37.42C161.609 37.1587 162.347 37.028 163.168 37.028C165.109 37.028 166.575 37.6533 167.564 38.904C168.553 40.1547 169.048 41.7787 169.048 43.776C169.048 45.4373 168.759 46.828 168.18 47.948C167.601 49.068 166.799 49.908 165.772 50.468C164.745 51.0093 163.551 51.28 162.188 51.28C160.116 51.28 158.464 50.4867 157.232 48.9C156 47.3133 155.384 45.008 155.384 41.984ZM162.384 49.236C163.597 49.236 164.577 48.844 165.324 48.06C166.071 47.276 166.444 45.932 166.444 44.028C166.444 42.4973 166.155 41.2933 165.576 40.416C165.016 39.52 164.083 39.072 162.776 39.072C161.955 39.072 161.208 39.2587 160.536 39.632C159.864 39.9867 159.304 40.3973 158.856 40.864C158.408 41.3307 158.091 41.7227 157.904 42.04C157.904 42.9547 157.969 43.8413 158.1 44.7C158.231 45.5587 158.455 46.3333 158.772 47.024C159.108 47.696 159.565 48.2373 160.144 48.648C160.741 49.04 161.488 49.236 162.384 49.236ZM174.834 35.992V42.236H182.982V35.992H185.446V51H182.982V44.308H174.834V51H172.37V35.992H174.834ZM195.434 35.712C196.722 35.712 197.823 35.992 198.738 36.552C199.671 37.112 200.38 37.9053 200.866 38.932C201.37 39.94 201.622 41.1253 201.622 42.488V43.972H191.346C191.383 45.6707 191.812 46.968 192.634 47.864C193.474 48.7413 194.64 49.18 196.134 49.18C197.086 49.18 197.926 49.096 198.654 48.928C199.4 48.7413 200.166 48.48 200.95 48.144V50.3C200.184 50.636 199.428 50.8787 198.682 51.028C197.935 51.196 197.048 51.28 196.022 51.28C194.603 51.28 193.343 50.9907 192.242 50.412C191.159 49.8333 190.31 48.9747 189.694 47.836C189.096 46.6787 188.798 45.2693 188.798 43.608C188.798 41.9653 189.068 40.556 189.61 39.38C190.17 38.204 190.944 37.2987 191.934 36.664C192.942 36.0293 194.108 35.712 195.434 35.712ZM195.406 37.728C194.23 37.728 193.296 38.1107 192.606 38.876C191.934 39.6227 191.532 40.668 191.402 42.012H199.046C199.027 40.7427 198.728 39.716 198.15 38.932C197.571 38.1293 196.656 37.728 195.406 37.728ZM210.678 35.712C211.966 35.712 213.068 35.992 213.982 36.552C214.916 37.112 215.625 37.9053 216.11 38.932C216.614 39.94 216.866 41.1253 216.866 42.488V43.972H206.59C206.628 45.6707 207.057 46.968 207.878 47.864C208.718 48.7413 209.885 49.18 211.378 49.18C212.33 49.18 213.17 49.096 213.898 48.928C214.645 48.7413 215.41 48.48 216.194 48.144V50.3C215.429 50.636 214.673 50.8787 213.926 51.028C213.18 51.196 212.293 51.28 211.266 51.28C209.848 51.28 208.588 50.9907 207.486 50.412C206.404 49.8333 205.554 48.9747 204.938 47.836C204.341 46.6787 204.042 45.2693 204.042 43.608C204.042 41.9653 204.313 40.556 204.854 39.38C205.414 38.204 206.189 37.2987 207.178 36.664C208.186 36.0293 209.353 35.712 210.678 35.712ZM210.65 37.728C209.474 37.728 208.541 38.1107 207.85 38.876C207.178 39.6227 206.777 40.668 206.646 42.012H214.29C214.272 40.7427 213.973 39.716 213.394 38.932C212.816 38.1293 211.901 37.728 210.65 37.728Z" fill="white" fill-opacity="0.8"/>
<defs>
<filter id="filter0_d_301_7" x="0.786621" y="0" width="285.44" height="82" filterUnits="userSpaceOnUse" color-interpolation-filters="sRGB">
<feFlood flood-opacity="0" result="BackgroundImageFix"/>
<feColorMatrix in="SourceAlpha" type="matrix" values="0 0 0 0 0 0 0 0 0 0 0 0 0 0 0 0 0 0 127 0" result="hardAlpha"/>
<feOffset/>
<feGaussianBlur stdDeviation="6"/>
<feComposite in2="hardAlpha" operator="out"/>
<feColorMatrix type="matrix" values="0 0 0 0 1 0 0 0 0 0.85 0 0 0 0 0.85 0 0 0 0.24 0"/>
<feBlend mode="normal" in2="BackgroundImageFix" result="effect1_dropShadow_301_7"/>
<feBlend mode="normal" in="SourceGraphic" in2="effect1_dropShadow_301_7" result="shape"/>
</filter>
</defs>
</svg>
