<svg width="324" height="61" viewBox="0 0 324 61" fill="none" xmlns="http://www.w3.org/2000/svg">
<g filter="url(#filter0_d_49_4)">
<path d="M9 -2H315V1C315 23.0914 297.091 41 275 41H49C26.9086 41 9 23.0914 9 0.999999V-2Z" fill="url(#paint0_linear_49_4)" shape-rendering="crispEdges"/>
</g>
<path d="M57.0133 33L60.7883 15.15H64.6133L61.4883 29.85H66.1383L69.2633 15.15H73.1133L69.9883 29.85H74.6383L77.7633 15.15H81.5883L77.8133 33H57.0133ZM81.4109 33L84.3359 19.35H88.0109L86.6609 25.7L92.0359 19.35H96.2359L90.3859 26.2L93.7609 33H89.6359L86.5109 26.35L85.0859 33H81.4109ZM100.751 33.25C99.7341 33.25 98.8258 33.0417 98.0258 32.625C97.2424 32.1917 96.6258 31.5833 96.1758 30.8C95.7424 30.0167 95.5258 29.0833 95.5258 28C95.5258 26.8 95.6758 25.6667 95.9758 24.6C96.2758 23.5167 96.7258 22.5667 97.3258 21.75C97.9258 20.9167 98.6758 20.2667 99.5758 19.8C100.492 19.3333 101.559 19.1 102.776 19.1C104.359 19.1 105.617 19.575 106.551 20.525C107.484 21.475 107.951 22.8 107.951 24.5C107.951 25.65 107.809 26.75 107.526 27.8C107.242 28.85 106.801 29.7833 106.201 30.6C105.617 31.4167 104.867 32.0667 103.951 32.55C103.051 33.0167 101.984 33.25 100.751 33.25ZM101.051 30.25C101.734 30.25 102.309 29.975 102.776 29.425C103.259 28.875 103.626 28.1667 103.876 27.3C104.126 26.4167 104.251 25.4833 104.251 24.5C104.251 23.8167 104.117 23.25 103.851 22.8C103.601 22.3333 103.151 22.1 102.501 22.1C101.951 22.1 101.467 22.2917 101.051 22.675C100.634 23.0417 100.292 23.525 100.026 24.125C99.7591 24.725 99.5591 25.3667 99.4258 26.05C99.2924 26.7333 99.2258 27.3833 99.2258 28C99.2258 29.5 99.8341 30.25 101.051 30.25ZM109.65 33.25C108.95 33.25 108.341 33.15 107.825 32.95V29.925C108.141 30.0583 108.483 30.125 108.85 30.125C109.283 30.125 109.641 29.9333 109.925 29.55C110.208 29.15 110.466 28.625 110.7 27.975C110.933 27.325 111.183 26.6167 111.45 25.85C111.85 24.7 112.25 23.7 112.65 22.85C113.05 22 113.516 21.3 114.05 20.75C114.583 20.2 115.258 19.7917 116.075 19.525C116.891 19.2417 117.916 19.1 119.15 19.1C119.983 19.1 120.775 19.175 121.525 19.325C122.291 19.4583 122.908 19.6167 123.375 19.8L120.6 33H116.925L119.225 22.2C119.108 22.1667 118.983 22.1417 118.85 22.125C118.716 22.1083 118.583 22.1 118.45 22.1C117.783 22.1 117.241 22.2917 116.825 22.675C116.425 23.0583 116.075 23.625 115.775 24.375C115.475 25.125 115.133 26.0583 114.75 27.175C114.466 28.0083 114.183 28.7917 113.9 29.525C113.633 30.2583 113.316 30.9083 112.95 31.475C112.583 32.025 112.133 32.4583 111.6 32.775C111.083 33.0917 110.433 33.25 109.65 33.25ZM129.581 33.25C128.397 33.25 127.447 33.075 126.731 32.725C126.014 32.375 125.497 31.9 125.181 31.3C124.864 30.6833 124.706 30 124.706 29.25C124.706 28.6833 124.806 27.95 125.006 27.05L126.656 19.35H130.331L129.131 24.9C129.481 24.8167 129.872 24.75 130.306 24.7C130.739 24.65 131.231 24.625 131.781 24.625C133.214 24.625 134.289 24.9833 135.006 25.7C135.739 26.4 136.106 27.275 136.106 28.325C136.106 29.125 135.897 29.9 135.481 30.65C135.064 31.4 134.381 32.025 133.431 32.525C132.481 33.0083 131.197 33.25 129.581 33.25ZM130.106 30.675C130.872 30.675 131.447 30.4833 131.831 30.1C132.214 29.7 132.406 29.2333 132.406 28.7C132.406 28.25 132.272 27.8917 132.006 27.625C131.739 27.3417 131.264 27.2 130.581 27.2C130.014 27.2 129.364 27.275 128.631 27.425C128.531 27.8583 128.456 28.1917 128.406 28.425C128.372 28.6583 128.356 28.8917 128.356 29.125C128.356 29.5417 128.489 29.9083 128.756 30.225C129.022 30.525 129.472 30.675 130.106 30.675ZM137.468 33L140.393 19.35H144.093L142.968 24.6H147.218L148.318 19.35H151.993L149.093 33H145.418L146.593 27.375H142.368L141.168 33H137.468ZM156.873 33.25C156.223 33.25 155.598 33.0917 154.998 32.775C154.415 32.4417 153.94 31.9167 153.573 31.2C153.206 30.4667 153.023 29.5 153.023 28.3C153.023 27.1833 153.173 26.0833 153.473 25C153.773 23.9167 154.198 22.9333 154.748 22.05C155.298 21.15 155.956 20.4333 156.723 19.9C157.506 19.3667 158.381 19.1 159.348 19.1C160.215 19.1 160.915 19.2833 161.448 19.65C161.998 20.0167 162.423 20.5 162.723 21.1H162.823L163.523 19.35H166.348L163.448 33H160.698L160.873 31.225H160.773C160.29 31.825 159.731 32.3167 159.098 32.7C158.481 33.0667 157.74 33.25 156.873 33.25ZM158.323 30.275C158.823 30.275 159.29 30.075 159.723 29.675C160.156 29.275 160.523 28.7583 160.823 28.125C161.14 27.4917 161.365 26.825 161.498 26.125C161.615 25.525 161.673 24.8417 161.673 24.075C161.673 23.4917 161.523 23.0167 161.223 22.65C160.923 22.2667 160.506 22.075 159.973 22.075C159.523 22.075 159.098 22.2583 158.698 22.625C158.315 22.975 157.973 23.4417 157.673 24.025C157.39 24.6083 157.165 25.2583 156.998 25.975C156.831 26.6917 156.748 27.4083 156.748 28.125C156.748 29.5583 157.273 30.275 158.323 30.275ZM167.867 33.25C167.133 33.25 166.517 33.15 166.017 32.95V29.925C166.15 29.975 166.292 30.025 166.442 30.075C166.608 30.1083 166.783 30.125 166.967 30.125C167.3 30.125 167.575 30.0333 167.792 29.85C168.008 29.65 168.2 29.4167 168.367 29.15C168.8 28.45 169.175 27.9333 169.492 27.6C169.808 27.25 170.208 27 170.692 26.85C170.142 26.6167 169.683 26.275 169.317 25.825C168.95 25.375 168.767 24.7583 168.767 23.975C168.767 22.8917 169.033 22.0083 169.567 21.325C170.1 20.6417 170.817 20.1417 171.717 19.825C172.617 19.5083 173.6 19.35 174.667 19.35H180.367L177.492 33H173.817L174.917 27.925H174.167C173.633 27.925 173.217 28.1 172.917 28.45C172.617 28.7833 172.342 29.2083 172.092 29.725C171.858 30.2417 171.567 30.7833 171.217 31.35C170.883 31.8667 170.458 32.3167 169.942 32.7C169.425 33.0667 168.733 33.25 167.867 33.25ZM174.317 25.425H175.442L176.167 21.975H174.617C174.017 21.975 173.517 22.1417 173.117 22.475C172.717 22.8083 172.517 23.2917 172.517 23.925C172.517 24.375 172.658 24.7417 172.942 25.025C173.242 25.2917 173.7 25.425 174.317 25.425ZM193.297 33.1C191.58 32.9 190.272 32.2833 189.372 31.25C188.472 30.2 188.022 28.9417 188.022 27.475C188.022 26.575 188.164 25.6583 188.447 24.725C188.73 23.7917 189.189 22.9333 189.822 22.15C190.472 21.35 191.322 20.6917 192.372 20.175C193.422 19.6583 194.705 19.35 196.222 19.25L197.322 14H200.822L199.722 19.275C201.405 19.5083 202.689 20.1333 203.572 21.15C204.455 22.1667 204.897 23.4417 204.897 24.975C204.897 25.7917 204.78 26.6417 204.547 27.525C204.314 28.4083 203.897 29.2583 203.297 30.075C202.714 30.875 201.889 31.5583 200.822 32.125C199.755 32.6917 198.397 33.0583 196.747 33.225L195.572 39H192.022L193.297 33.1ZM195.622 22.1C194.889 22.15 194.272 22.35 193.772 22.7C193.272 23.05 192.872 23.4833 192.572 24C192.289 24.5167 192.08 25.0583 191.947 25.625C191.83 26.1917 191.772 26.7083 191.772 27.175C191.772 28.0083 191.947 28.7083 192.297 29.275C192.647 29.825 193.172 30.15 193.872 30.25L195.622 22.1ZM197.372 30.25C198.139 30.15 198.764 29.9083 199.247 29.525C199.747 29.1417 200.13 28.6917 200.397 28.175C200.68 27.6417 200.88 27.1 200.997 26.55C201.114 26 201.172 25.5 201.172 25.05C201.172 24.3 200.997 23.6583 200.647 23.125C200.297 22.5917 199.78 22.2667 199.097 22.15L197.372 30.25ZM211.814 33.25C210.798 33.25 209.889 33.0417 209.089 32.625C208.306 32.1917 207.689 31.5833 207.239 30.8C206.806 30.0167 206.589 29.0833 206.589 28C206.589 26.8 206.739 25.6667 207.039 24.6C207.339 23.5167 207.789 22.5667 208.389 21.75C208.989 20.9167 209.739 20.2667 210.639 19.8C211.556 19.3333 212.623 19.1 213.839 19.1C215.423 19.1 216.681 19.575 217.614 20.525C218.548 21.475 219.014 22.8 219.014 24.5C219.014 25.65 218.873 26.75 218.589 27.8C218.306 28.85 217.864 29.7833 217.264 30.6C216.681 31.4167 215.931 32.0667 215.014 32.55C214.114 33.0167 213.048 33.25 211.814 33.25ZM212.114 30.25C212.798 30.25 213.373 29.975 213.839 29.425C214.323 28.875 214.689 28.1667 214.939 27.3C215.189 26.4167 215.314 25.4833 215.314 24.5C215.314 23.8167 215.181 23.25 214.914 22.8C214.664 22.3333 214.214 22.1 213.564 22.1C213.014 22.1 212.531 22.2917 212.114 22.675C211.698 23.0417 211.356 23.525 211.089 24.125C210.823 24.725 210.623 25.3667 210.489 26.05C210.356 26.7333 210.289 27.3833 210.289 28C210.289 29.5 210.898 30.25 212.114 30.25ZM218.788 39L222.963 19.35H225.763L225.563 21.425H225.663C226.097 20.8417 226.63 20.3083 227.263 19.825C227.897 19.3417 228.655 19.1 229.538 19.1C230.205 19.1 230.83 19.2667 231.413 19.6C231.997 19.9167 232.472 20.4417 232.838 21.175C233.205 21.8917 233.388 22.8583 233.388 24.075C233.388 25.175 233.238 26.275 232.938 27.375C232.638 28.4583 232.213 29.4417 231.663 30.325C231.113 31.2083 230.447 31.9167 229.663 32.45C228.897 32.9833 228.03 33.25 227.063 33.25C226.23 33.25 225.588 33.0583 225.138 32.675C224.688 32.2917 224.297 31.8167 223.963 31.25H223.863C223.813 31.9167 223.747 32.525 223.663 33.075C223.58 33.625 223.472 34.2167 223.338 34.85L222.463 39H218.788ZM226.438 30.275C226.888 30.275 227.305 30.1 227.688 29.75C228.088 29.3833 228.43 28.9083 228.713 28.325C229.013 27.7417 229.247 27.0917 229.413 26.375C229.58 25.6583 229.663 24.9417 229.663 24.225C229.663 22.7917 229.13 22.075 228.063 22.075C227.463 22.075 226.955 22.2917 226.538 22.725C226.122 23.1583 225.78 23.7 225.513 24.35C225.247 25 225.047 25.6667 224.913 26.35C224.797 27.0333 224.738 27.625 224.738 28.125C224.738 28.775 224.888 29.3 225.188 29.7C225.505 30.0833 225.922 30.275 226.438 30.275ZM234.531 33L237.406 19.35H242.481L243.006 28.875H243.081L247.981 19.35H253.206L250.281 33H246.881L248.381 26.25C248.515 25.6167 248.656 25.0083 248.806 24.425C248.956 23.825 249.09 23.3417 249.206 22.975H249.131L243.956 33H240.431L239.881 22.975H239.831C239.748 23.6417 239.656 24.25 239.556 24.8C239.456 25.3333 239.348 25.8667 239.231 26.4L237.906 33H234.531ZM257.743 33.25C257.093 33.25 256.468 33.0917 255.868 32.775C255.285 32.4417 254.81 31.9167 254.443 31.2C254.076 30.4667 253.893 29.5 253.893 28.3C253.893 27.1833 254.043 26.0833 254.343 25C254.643 23.9167 255.068 22.9333 255.618 22.05C256.168 21.15 256.826 20.4333 257.593 19.9C258.376 19.3667 259.251 19.1 260.218 19.1C261.085 19.1 261.785 19.2833 262.318 19.65C262.868 20.0167 263.293 20.5 263.593 21.1H263.693L264.393 19.35H267.218L264.318 33H261.568L261.743 31.225H261.643C261.16 31.825 260.601 32.3167 259.968 32.7C259.351 33.0667 258.61 33.25 257.743 33.25ZM259.193 30.275C259.693 30.275 260.16 30.075 260.593 29.675C261.026 29.275 261.393 28.7583 261.693 28.125C262.01 27.4917 262.235 26.825 262.368 26.125C262.485 25.525 262.543 24.8417 262.543 24.075C262.543 23.4917 262.393 23.0167 262.093 22.65C261.793 22.2667 261.376 22.075 260.843 22.075C260.393 22.075 259.968 22.2583 259.568 22.625C259.185 22.975 258.843 23.4417 258.543 24.025C258.26 24.6083 258.035 25.2583 257.868 25.975C257.701 26.6917 257.618 27.4083 257.618 28.125C257.618 29.5583 258.143 30.275 259.193 30.275Z" fill="#FF228C"/>
<defs>
<filter id="filter0_d_49_4" x="0" y="-2" width="324" height="63" filterUnits="userSpaceOnUse" color-interpolation-filters="sRGB">
<feFlood flood-opacity="0" result="BackgroundImageFix"/>
<feColorMatrix in="SourceAlpha" type="matrix" values="0 0 0 0 0 0 0 0 0 0 0 0 0 0 0 0 0 0 127 0" result="hardAlpha"/>
<feOffset dy="11"/>
<feGaussianBlur stdDeviation="4.5"/>
<feComposite in2="hardAlpha" operator="out"/>
<feColorMatrix type="matrix" values="0 0 0 0 0 0 0 0 0 0 0 0 0 0 0 0 0 0 0.53 0"/>
<feBlend mode="normal" in2="BackgroundImageFix" result="effect1_dropShadow_49_4"/>
<feBlend mode="normal" in="SourceGraphic" in2="effect1_dropShadow_49_4" result="shape"/>
</filter>
<linearGradient id="paint0_linear_49_4" x1="162" y1="-2" x2="162" y2="41" gradientUnits="userSpaceOnUse">
<stop stop-color="#B3AEAE" stop-opacity="0.88"/>
<stop offset="1" stop-color="#5F5F5F" stop-opacity="0.2"/>
</linearGradient>
</defs>
</svg>
