<svg width="430" height="61" viewBox="0 0 430 61" fill="none" xmlns="http://www.w3.org/2000/svg">
<g filter="url(#filter0_d_49_5)">
<path d="M9 -2H421V1C421 23.0914 403.091 41 381 41H49C26.9086 41 9 23.0914 9 0.999999V-2Z" fill="url(#paint0_linear_49_5)" shape-rendering="crispEdges"/>
</g>
<path d="M81.3039 35.25C79.1372 35.25 77.5039 34.6167 76.4039 33.35C75.3039 32.0833 74.7539 30.3833 74.7539 28.25C74.7539 27.2 74.8706 26.1417 75.1039 25.075C75.3539 23.9917 75.7206 22.9667 76.2039 22C76.7039 21.0167 77.3289 20.1417 78.0789 19.375C78.8289 18.5917 79.7206 17.9833 80.7539 17.55C81.8039 17.1 82.9872 16.875 84.3039 16.875C85.4372 16.875 86.3956 16.9833 87.1789 17.2C87.9789 17.4 88.7706 17.7167 89.5539 18.15L88.1039 21.2C87.5372 20.8667 86.9456 20.5917 86.3289 20.375C85.7289 20.1417 85.0539 20.025 84.3039 20.025C83.3039 20.025 82.4372 20.275 81.7039 20.775C80.9872 21.275 80.3956 21.925 79.9289 22.725C79.4622 23.525 79.1122 24.3917 78.8789 25.325C78.6622 26.2583 78.5539 27.1667 78.5539 28.05C78.5539 29.4 78.8289 30.4083 79.3789 31.075C79.9456 31.7417 80.8372 32.075 82.0539 32.075C82.7372 32.075 83.4206 31.9833 84.1039 31.8C84.8039 31.6167 85.4956 31.3917 86.1789 31.125V34.3C85.6789 34.5 85.0122 34.7083 84.1789 34.925C83.3456 35.1417 82.3872 35.25 81.3039 35.25ZM88.5115 35L91.4115 21.35H94.2115L93.9615 23.875H94.0615C94.5949 23.0583 95.2032 22.3917 95.8865 21.875C96.5865 21.3583 97.4115 21.1 98.3615 21.1C99.5449 21.1 100.428 21.4583 101.012 22.175C101.595 22.875 101.887 23.825 101.887 25.025C101.887 25.625 101.795 26.3583 101.612 27.225L99.9865 35H96.3115L97.9865 27.025C98.1199 26.4417 98.1865 25.9583 98.1865 25.575C98.1865 24.575 97.7449 24.075 96.8615 24.075C96.3115 24.075 95.8115 24.3167 95.3615 24.8C94.9115 25.2667 94.5199 25.9 94.1865 26.7C93.8699 27.5 93.6032 28.3833 93.3865 29.35L92.1865 35H88.5115ZM108.974 35.25C107.958 35.25 107.049 35.0417 106.249 34.625C105.466 34.1917 104.849 33.5833 104.399 32.8C103.966 32.0167 103.749 31.0833 103.749 30C103.749 28.8 103.899 27.6667 104.199 26.6C104.499 25.5167 104.949 24.5667 105.549 23.75C106.149 22.9167 106.899 22.2667 107.799 21.8C108.716 21.3333 109.783 21.1 110.999 21.1C112.583 21.1 113.841 21.575 114.774 22.525C115.708 23.475 116.174 24.8 116.174 26.5C116.174 27.65 116.033 28.75 115.749 29.8C115.466 30.85 115.024 31.7833 114.424 32.6C113.841 33.4167 113.091 34.0667 112.174 34.55C111.274 35.0167 110.208 35.25 108.974 35.25ZM109.274 32.25C109.958 32.25 110.533 31.975 110.999 31.425C111.483 30.875 111.849 30.1667 112.099 29.3C112.349 28.4167 112.474 27.4833 112.474 26.5C112.474 25.8167 112.341 25.25 112.074 24.8C111.824 24.3333 111.374 24.1 110.724 24.1C110.174 24.1 109.691 24.2917 109.274 24.675C108.858 25.0417 108.516 25.525 108.249 26.125C107.983 26.725 107.783 27.3667 107.649 28.05C107.516 28.7333 107.449 29.3833 107.449 30C107.449 31.5 108.058 32.25 109.274 32.25ZM115.948 41L120.123 21.35H122.923L122.723 23.425H122.823C123.257 22.8417 123.79 22.3083 124.423 21.825C125.057 21.3417 125.815 21.1 126.698 21.1C127.365 21.1 127.99 21.2667 128.573 21.6C129.157 21.9167 129.632 22.4417 129.998 23.175C130.365 23.8917 130.548 24.8583 130.548 26.075C130.548 27.175 130.398 28.275 130.098 29.375C129.798 30.4583 129.373 31.4417 128.823 32.325C128.273 33.2083 127.607 33.9167 126.823 34.45C126.057 34.9833 125.19 35.25 124.223 35.25C123.39 35.25 122.748 35.0583 122.298 34.675C121.848 34.2917 121.457 33.8167 121.123 33.25H121.023C120.973 33.9167 120.907 34.525 120.823 35.075C120.74 35.625 120.632 36.2167 120.498 36.85L119.623 41H115.948ZM123.598 32.275C124.048 32.275 124.465 32.1 124.848 31.75C125.248 31.3833 125.59 30.9083 125.873 30.325C126.173 29.7417 126.407 29.0917 126.573 28.375C126.74 27.6583 126.823 26.9417 126.823 26.225C126.823 24.7917 126.29 24.075 125.223 24.075C124.623 24.075 124.115 24.2917 123.698 24.725C123.282 25.1583 122.94 25.7 122.673 26.35C122.407 27 122.207 27.6667 122.073 28.35C121.957 29.0333 121.898 29.625 121.898 30.125C121.898 30.775 122.048 31.3 122.348 31.7C122.665 32.0833 123.082 32.275 123.598 32.275ZM131.592 35L134.492 21.35H137.292L137.042 23.875H137.142C137.675 23.0583 138.283 22.3917 138.967 21.875C139.667 21.3583 140.492 21.1 141.442 21.1C142.375 21.1 143.1 21.35 143.617 21.85C144.133 22.3333 144.475 23.0083 144.642 23.875H144.742C145.258 23.0583 145.875 22.3917 146.592 21.875C147.308 21.3583 148.142 21.1 149.092 21.1C150.225 21.1 151.075 21.4583 151.642 22.175C152.208 22.875 152.492 23.825 152.492 25.025C152.492 25.625 152.4 26.3583 152.217 27.225L150.592 35H146.917L148.592 27.025C148.725 26.4417 148.792 25.9583 148.792 25.575C148.792 24.575 148.392 24.075 147.592 24.075C147.042 24.075 146.542 24.3083 146.092 24.775C145.642 25.2417 145.25 25.875 144.917 26.675C144.583 27.4583 144.317 28.3417 144.117 29.325L142.942 35H139.267L140.942 27.025C141.075 26.4417 141.142 25.9583 141.142 25.575C141.142 24.575 140.742 24.075 139.942 24.075C139.392 24.075 138.892 24.3167 138.442 24.8C137.992 25.2667 137.6 25.9 137.267 26.7C136.95 27.5 136.683 28.3833 136.467 29.35L135.267 35H131.592ZM158.098 35.25C156.932 35.25 156.057 34.9 155.473 34.2C154.907 33.4833 154.623 32.525 154.623 31.325C154.623 31.025 154.648 30.6417 154.698 30.175C154.748 29.6917 154.823 29.2083 154.923 28.725L156.473 21.35H160.148L158.473 29.325C158.34 29.9083 158.273 30.3917 158.273 30.775C158.273 31.775 158.715 32.275 159.598 32.275C160.165 32.275 160.665 32.0417 161.098 31.575C161.548 31.0917 161.94 30.45 162.273 29.65C162.607 28.85 162.873 27.9667 163.073 27L164.273 21.35H167.948L165.048 35H162.248L162.498 32.475H162.373C161.857 33.2917 161.248 33.9583 160.548 34.475C159.865 34.9917 159.048 35.25 158.098 35.25ZM174.786 35.25C172.92 35.25 171.478 34.775 170.461 33.825C169.461 32.8583 168.961 31.4917 168.961 29.725C168.961 28.5917 169.12 27.5083 169.436 26.475C169.77 25.4417 170.253 24.525 170.886 23.725C171.52 22.9083 172.303 22.2667 173.236 21.8C174.186 21.3333 175.286 21.1 176.536 21.1C178.003 21.1 179.186 21.4167 180.086 22.05C181.003 22.6833 181.461 23.5917 181.461 24.775C181.461 25.7917 181.178 26.5417 180.611 27.025C180.061 27.5083 179.361 27.85 178.511 28.05V28.15C179.095 28.3167 179.603 28.6167 180.036 29.05C180.47 29.4667 180.686 30.075 180.686 30.875C180.686 31.6417 180.478 32.3583 180.061 33.025C179.645 33.6917 179.003 34.2333 178.136 34.65C177.27 35.05 176.153 35.25 174.786 35.25ZM175.611 26.675C176.311 26.675 176.853 26.5333 177.236 26.25C177.636 25.9667 177.836 25.5417 177.836 24.975C177.836 24.5917 177.703 24.2917 177.436 24.075C177.17 23.8583 176.82 23.75 176.386 23.75C175.67 23.75 175.028 24.0167 174.461 24.55C173.911 25.0833 173.478 25.7917 173.161 26.675H175.611ZM174.836 32.675C175.52 32.675 176.045 32.5 176.411 32.15C176.795 31.8 176.986 31.35 176.986 30.8C176.986 30.2667 176.786 29.8667 176.386 29.6C176.003 29.3333 175.353 29.2 174.436 29.2H172.661C172.645 29.3167 172.636 29.4417 172.636 29.575C172.636 29.7083 172.636 29.8417 172.636 29.975C172.636 30.9417 172.845 31.6333 173.261 32.05C173.695 32.4667 174.22 32.675 174.836 32.675ZM182.142 35L185.067 21.35H188.767L187.642 26.6H191.892L192.992 21.35H196.667L193.767 35H190.092L191.267 29.375H187.042L185.842 35H182.142ZM202.648 35.25C201.448 35.25 200.498 35.075 199.798 34.725C199.114 34.375 198.623 33.9 198.323 33.3C198.039 32.6833 197.898 32.0083 197.898 31.275C197.898 31.0583 197.914 30.75 197.948 30.35C197.981 29.9333 198.056 29.475 198.173 28.975L199.823 21.35H203.498L202.298 26.9C202.631 26.8167 203.006 26.75 203.423 26.7C203.839 26.65 204.289 26.625 204.773 26.625C205.889 26.625 206.806 26.95 207.523 27.6C208.239 28.25 208.598 29.1333 208.598 30.25C208.598 31.1 208.389 31.9083 207.973 32.675C207.573 33.425 206.931 34.0417 206.048 34.525C205.181 35.0083 204.048 35.25 202.648 35.25ZM209.673 35L212.573 21.35H216.248L213.348 35H209.673ZM202.948 32.675C203.531 32.675 204.006 32.4917 204.373 32.125C204.739 31.7583 204.923 31.2667 204.923 30.65C204.923 29.6833 204.414 29.2 203.398 29.2C202.931 29.2 202.398 29.275 201.798 29.425C201.698 29.8583 201.631 30.1833 201.598 30.4C201.564 30.6 201.548 30.8583 201.548 31.175C201.548 31.7083 201.689 32.0917 201.973 32.325C202.256 32.5583 202.581 32.675 202.948 32.675ZM222.666 35.25C221.066 35.25 219.766 34.8167 218.766 33.95C217.766 33.0667 217.266 31.7417 217.266 29.975C217.266 28.825 217.424 27.725 217.741 26.675C218.074 25.6083 218.558 24.6583 219.191 23.825C219.841 22.9917 220.641 22.3333 221.591 21.85C222.541 21.35 223.641 21.1 224.891 21.1C226.424 21.1 227.566 21.45 228.316 22.15C229.083 22.85 229.466 23.7417 229.466 24.825C229.466 26.2583 228.816 27.4083 227.516 28.275C226.233 29.1417 224.266 29.575 221.616 29.575H220.991C220.974 29.675 220.966 29.7667 220.966 29.85C220.966 29.9167 220.966 29.9917 220.966 30.075C220.966 30.8083 221.174 31.3917 221.591 31.825C222.024 32.2583 222.624 32.475 223.391 32.475C224.108 32.475 224.758 32.3917 225.341 32.225C225.924 32.0583 226.616 31.7917 227.416 31.425V34.2C226.699 34.55 225.974 34.8167 225.241 35C224.508 35.1667 223.649 35.25 222.666 35.25ZM221.941 27.1C223.358 27.1 224.374 26.8833 224.991 26.45C225.624 26 225.941 25.4833 225.941 24.9C225.941 24.1333 225.516 23.75 224.666 23.75C224.216 23.75 223.766 23.8917 223.316 24.175C222.866 24.4583 222.466 24.85 222.116 25.35C221.783 25.85 221.541 26.4333 221.391 27.1H221.941ZM236.637 35L239.562 21.35H243.237L241.887 27.7L247.262 21.35H251.462L245.612 28.2L248.987 35H244.862L241.737 28.35L240.312 35H236.637ZM255.976 35.25C254.96 35.25 254.051 35.0417 253.251 34.625C252.468 34.1917 251.851 33.5833 251.401 32.8C250.968 32.0167 250.751 31.0833 250.751 30C250.751 28.8 250.901 27.6667 251.201 26.6C251.501 25.5167 251.951 24.5667 252.551 23.75C253.151 22.9167 253.901 22.2667 254.801 21.8C255.718 21.3333 256.785 21.1 258.001 21.1C259.585 21.1 260.843 21.575 261.776 22.525C262.71 23.475 263.176 24.8 263.176 26.5C263.176 27.65 263.035 28.75 262.751 29.8C262.468 30.85 262.026 31.7833 261.426 32.6C260.843 33.4167 260.093 34.0667 259.176 34.55C258.276 35.0167 257.21 35.25 255.976 35.25ZM256.276 32.25C256.96 32.25 257.535 31.975 258.001 31.425C258.485 30.875 258.851 30.1667 259.101 29.3C259.351 28.4167 259.476 27.4833 259.476 26.5C259.476 25.8167 259.343 25.25 259.076 24.8C258.826 24.3333 258.376 24.1 257.726 24.1C257.176 24.1 256.693 24.2917 256.276 24.675C255.86 25.0417 255.518 25.525 255.251 26.125C254.985 26.725 254.785 27.3667 254.651 28.05C254.518 28.7333 254.451 29.3833 254.451 30C254.451 31.5 255.06 32.25 256.276 32.25ZM269.95 35.25C269.017 35.25 268.159 35.0833 267.375 34.75C266.609 34.4 266 33.8583 265.55 33.125C265.1 32.3917 264.875 31.425 264.875 30.225C264.875 28.9917 265.034 27.8333 265.35 26.75C265.667 25.65 266.134 24.675 266.75 23.825C267.367 22.975 268.125 22.3083 269.025 21.825C269.925 21.3417 270.95 21.1 272.1 21.1C272.917 21.1 273.642 21.175 274.275 21.325C274.925 21.475 275.534 21.6917 276.1 21.975L274.975 24.775C274.542 24.5917 274.109 24.4333 273.675 24.3C273.259 24.15 272.784 24.075 272.25 24.075C271.484 24.075 270.825 24.3667 270.275 24.95C269.725 25.5167 269.309 26.25 269.025 27.15C268.742 28.0333 268.6 28.9583 268.6 29.925C268.6 30.6917 268.784 31.275 269.15 31.675C269.517 32.075 270.034 32.275 270.7 32.275C271.317 32.275 271.884 32.1833 272.4 32C272.934 31.8 273.484 31.5583 274.05 31.275V34.275C273.484 34.575 272.867 34.8167 272.2 35C271.55 35.1667 270.8 35.25 269.95 35.25ZM275.81 35L278.71 21.35H281.51L281.26 23.875H281.36C281.894 23.0583 282.502 22.3917 283.185 21.875C283.885 21.3583 284.71 21.1 285.66 21.1C286.594 21.1 287.319 21.35 287.835 21.85C288.352 22.3333 288.694 23.0083 288.86 23.875H288.96C289.477 23.0583 290.094 22.3917 290.81 21.875C291.527 21.3583 292.36 21.1 293.31 21.1C294.444 21.1 295.294 21.4583 295.86 22.175C296.427 22.875 296.71 23.825 296.71 25.025C296.71 25.625 296.619 26.3583 296.435 27.225L294.81 35H291.135L292.81 27.025C292.944 26.4417 293.01 25.9583 293.01 25.575C293.01 24.575 292.61 24.075 291.81 24.075C291.26 24.075 290.76 24.3083 290.31 24.775C289.86 25.2417 289.469 25.875 289.135 26.675C288.802 27.4583 288.535 28.3417 288.335 29.325L287.16 35H283.485L285.16 27.025C285.294 26.4417 285.36 25.9583 285.36 25.575C285.36 24.575 284.96 24.075 284.16 24.075C283.61 24.075 283.11 24.3167 282.66 24.8C282.21 25.2667 281.819 25.9 281.485 26.7C281.169 27.5 280.902 28.3833 280.685 29.35L279.485 35H275.81ZM310.367 35.25C308.801 35.25 307.576 34.7917 306.692 33.875C305.809 32.9417 305.367 31.6583 305.367 30.025V29.375H302.842L301.642 35H297.942L300.867 21.35H304.567L303.442 26.6H305.792C306.076 25.5333 306.501 24.5917 307.067 23.775C307.651 22.9417 308.376 22.2917 309.242 21.825C310.109 21.3417 311.126 21.1 312.292 21.1C313.909 21.1 315.142 21.5833 315.992 22.55C316.842 23.5167 317.267 24.8333 317.267 26.5C317.267 27.65 317.126 28.75 316.842 29.8C316.576 30.85 316.159 31.7833 315.592 32.6C315.026 33.4167 314.309 34.0667 313.442 34.55C312.576 35.0167 311.551 35.25 310.367 35.25ZM310.642 32.25C311.209 32.25 311.709 31.975 312.142 31.425C312.592 30.875 312.942 30.1667 313.192 29.3C313.442 28.4167 313.567 27.4833 313.567 26.5C313.567 25.8167 313.451 25.25 313.217 24.8C312.984 24.3333 312.567 24.1 311.967 24.1C311.484 24.1 311.051 24.2917 310.667 24.675C310.301 25.0417 309.992 25.525 309.742 26.125C309.492 26.725 309.301 27.3667 309.167 28.05C309.034 28.7333 308.967 29.3833 308.967 30C308.967 31.5 309.526 32.25 310.642 32.25ZM318.416 35L321.291 21.35H326.366L326.891 30.875H326.966L331.866 21.35H337.091L334.166 35H330.766L332.266 28.25C332.4 27.6167 332.541 27.0083 332.691 26.425C332.841 25.825 332.975 25.3417 333.091 24.975H333.016L327.841 35H324.316L323.766 24.975H323.716C323.633 25.6417 323.541 26.25 323.441 26.8C323.341 27.3333 323.233 27.8667 323.116 28.4L321.791 35H318.416ZM342.728 35.25C341.528 35.25 340.578 35.075 339.878 34.725C339.194 34.375 338.703 33.9 338.403 33.3C338.119 32.6833 337.978 32.0083 337.978 31.275C337.978 31.0583 337.994 30.75 338.028 30.35C338.061 29.9333 338.136 29.475 338.253 28.975L339.903 21.35H343.578L342.378 26.9C342.711 26.8167 343.086 26.75 343.503 26.7C343.919 26.65 344.369 26.625 344.853 26.625C345.969 26.625 346.886 26.95 347.603 27.6C348.319 28.25 348.678 29.1333 348.678 30.25C348.678 31.1 348.469 31.9083 348.053 32.675C347.653 33.425 347.011 34.0417 346.128 34.525C345.261 35.0083 344.128 35.25 342.728 35.25ZM349.753 35L352.653 21.35H356.328L353.428 35H349.753ZM343.028 32.675C343.611 32.675 344.086 32.4917 344.453 32.125C344.819 31.7583 345.003 31.2667 345.003 30.65C345.003 29.6833 344.494 29.2 343.478 29.2C343.011 29.2 342.478 29.275 341.878 29.425C341.778 29.8583 341.711 30.1833 341.678 30.4C341.644 30.6 341.628 30.8583 341.628 31.175C341.628 31.7083 341.769 32.0917 342.053 32.325C342.336 32.5583 342.661 32.675 343.028 32.675Z" fill="#FF228C"/>
<defs>
<filter id="filter0_d_49_5" x="0" y="-2" width="430" height="63" filterUnits="userSpaceOnUse" color-interpolation-filters="sRGB">
<feFlood flood-opacity="0" result="BackgroundImageFix"/>
<feColorMatrix in="SourceAlpha" type="matrix" values="0 0 0 0 0 0 0 0 0 0 0 0 0 0 0 0 0 0 127 0" result="hardAlpha"/>
<feOffset dy="11"/>
<feGaussianBlur stdDeviation="4.5"/>
<feComposite in2="hardAlpha" operator="out"/>
<feColorMatrix type="matrix" values="0 0 0 0 0 0 0 0 0 0 0 0 0 0 0 0 0 0 0.53 0"/>
<feBlend mode="normal" in2="BackgroundImageFix" result="effect1_dropShadow_49_5"/>
<feBlend mode="normal" in="SourceGraphic" in2="effect1_dropShadow_49_5" result="shape"/>
</filter>
<linearGradient id="paint0_linear_49_5" x1="215" y1="-2" x2="215" y2="41" gradientUnits="userSpaceOnUse">
<stop stop-color="#B3AEAE" stop-opacity="0.88"/>
<stop offset="1" stop-color="#5F5F5F" stop-opacity="0.2"/>
</linearGradient>
</defs>
</svg>
