<svg width="227" height="61" viewBox="0 0 227 61" fill="none" xmlns="http://www.w3.org/2000/svg">
<g filter="url(#filter0_d_49_3)">
<path d="M9 -2H218V1C218 23.0914 200.091 41 178 41H49C26.9086 41 9 23.0914 9 0.999999V-2Z" fill="url(#paint0_linear_49_3)" shape-rendering="crispEdges"/>
</g>
<path d="M53.4186 33L57.1936 15.15H60.9186L59.1436 23.5L65.7436 15.15H69.9436L62.8436 23.975L66.4436 33H62.3186L58.9936 24.225L57.1436 33H53.4186ZM73.4617 33.25C72.4451 33.25 71.5367 33.0417 70.7367 32.625C69.9534 32.1917 69.3367 31.5833 68.8867 30.8C68.4534 30.0167 68.2367 29.0833 68.2367 28C68.2367 26.8 68.3867 25.6667 68.6867 24.6C68.9867 23.5167 69.4367 22.5667 70.0367 21.75C70.6367 20.9167 71.3867 20.2667 72.2867 19.8C73.2034 19.3333 74.2701 19.1 75.4867 19.1C77.0701 19.1 78.3284 19.575 79.2617 20.525C80.1951 21.475 80.6617 22.8 80.6617 24.5C80.6617 25.65 80.5201 26.75 80.2367 27.8C79.9534 28.85 79.5117 29.7833 78.9117 30.6C78.3284 31.4167 77.5784 32.0667 76.6617 32.55C75.7617 33.0167 74.6951 33.25 73.4617 33.25ZM73.7617 30.25C74.4451 30.25 75.0201 29.975 75.4867 29.425C75.9701 28.875 76.3367 28.1667 76.5867 27.3C76.8367 26.4167 76.9617 25.4833 76.9617 24.5C76.9617 23.8167 76.8284 23.25 76.5617 22.8C76.3117 22.3333 75.8617 22.1 75.2117 22.1C74.6617 22.1 74.1784 22.2917 73.7617 22.675C73.3451 23.0417 73.0034 23.525 72.7367 24.125C72.4701 24.725 72.2701 25.3667 72.1367 26.05C72.0034 26.7333 71.9367 27.3833 71.9367 28C71.9367 29.5 72.5451 30.25 73.7617 30.25ZM87.4357 33.25C86.5024 33.25 85.6441 33.0833 84.8607 32.75C84.0941 32.4 83.4857 31.8583 83.0357 31.125C82.5857 30.3917 82.3607 29.425 82.3607 28.225C82.3607 26.9917 82.5191 25.8333 82.8357 24.75C83.1524 23.65 83.6191 22.675 84.2357 21.825C84.8524 20.975 85.6107 20.3083 86.5107 19.825C87.4107 19.3417 88.4357 19.1 89.5857 19.1C90.4024 19.1 91.1274 19.175 91.7607 19.325C92.4107 19.475 93.0191 19.6917 93.5857 19.975L92.4607 22.775C92.0274 22.5917 91.5941 22.4333 91.1607 22.3C90.7441 22.15 90.2691 22.075 89.7357 22.075C88.9691 22.075 88.3107 22.3667 87.7607 22.95C87.2107 23.5167 86.7941 24.25 86.5107 25.15C86.2274 26.0333 86.0857 26.9583 86.0857 27.925C86.0857 28.6917 86.2691 29.275 86.6357 29.675C87.0024 30.075 87.5191 30.275 88.1857 30.275C88.8024 30.275 89.3691 30.1833 89.8857 30C90.4191 29.8 90.9691 29.5583 91.5357 29.275V32.275C90.9691 32.575 90.3524 32.8167 89.6857 33C89.0357 33.1667 88.2857 33.25 87.4357 33.25ZM93.2957 33L96.1957 19.35H98.9957L98.7457 21.875H98.8457C99.379 21.0583 99.9874 20.3917 100.671 19.875C101.371 19.3583 102.196 19.1 103.146 19.1C104.079 19.1 104.804 19.35 105.321 19.85C105.837 20.3333 106.179 21.0083 106.346 21.875H106.446C106.962 21.0583 107.579 20.3917 108.296 19.875C109.012 19.3583 109.846 19.1 110.796 19.1C111.929 19.1 112.779 19.4583 113.346 20.175C113.912 20.875 114.196 21.825 114.196 23.025C114.196 23.625 114.104 24.3583 113.921 25.225L112.296 33H108.621L110.296 25.025C110.429 24.4417 110.496 23.9583 110.496 23.575C110.496 22.575 110.096 22.075 109.296 22.075C108.746 22.075 108.246 22.3083 107.796 22.775C107.346 23.2417 106.954 23.875 106.621 24.675C106.287 25.4583 106.021 26.3417 105.821 27.325L104.646 33H100.971L102.646 25.025C102.779 24.4417 102.846 23.9583 102.846 23.575C102.846 22.575 102.446 22.075 101.646 22.075C101.096 22.075 100.596 22.3167 100.146 22.8C99.6957 23.2667 99.304 23.9 98.9707 24.7C98.654 25.5 98.3874 26.3833 98.1707 27.35L96.9707 33H93.2957ZM127.853 33.25C126.286 33.25 125.061 32.7917 124.178 31.875C123.294 30.9417 122.853 29.6583 122.853 28.025V27.375H120.328L119.128 33H115.428L118.353 19.35H122.053L120.928 24.6H123.278C123.561 23.5333 123.986 22.5917 124.553 21.775C125.136 20.9417 125.861 20.2917 126.728 19.825C127.594 19.3417 128.611 19.1 129.778 19.1C131.394 19.1 132.628 19.5833 133.478 20.55C134.328 21.5167 134.753 22.8333 134.753 24.5C134.753 25.65 134.611 26.75 134.328 27.8C134.061 28.85 133.644 29.7833 133.078 30.6C132.511 31.4167 131.794 32.0667 130.928 32.55C130.061 33.0167 129.036 33.25 127.853 33.25ZM128.128 30.25C128.694 30.25 129.194 29.975 129.628 29.425C130.078 28.875 130.428 28.1667 130.678 27.3C130.928 26.4167 131.053 25.4833 131.053 24.5C131.053 23.8167 130.936 23.25 130.703 22.8C130.469 22.3333 130.053 22.1 129.453 22.1C128.969 22.1 128.536 22.2917 128.153 22.675C127.786 23.0417 127.478 23.525 127.228 24.125C126.978 24.725 126.786 25.3667 126.653 26.05C126.519 26.7333 126.453 27.3833 126.453 28C126.453 29.5 127.011 30.25 128.128 30.25ZM135.902 33L138.777 19.35H143.852L144.377 28.875H144.452L149.352 19.35H154.577L151.652 33H148.252L149.752 26.25C149.885 25.6167 150.027 25.0083 150.177 24.425C150.327 23.825 150.46 23.3417 150.577 22.975H150.502L145.327 33H141.802L141.252 22.975H141.202C141.118 23.6417 141.027 24.25 140.927 24.8C140.827 25.3333 140.718 25.8667 140.602 26.4L139.277 33H135.902ZM160.213 33.25C159.013 33.25 158.063 33.075 157.363 32.725C156.68 32.375 156.188 31.9 155.888 31.3C155.605 30.6833 155.463 30.0083 155.463 29.275C155.463 29.0583 155.48 28.75 155.513 28.35C155.546 27.9333 155.621 27.475 155.738 26.975L157.388 19.35H161.063L159.863 24.9C160.196 24.8167 160.571 24.75 160.988 24.7C161.405 24.65 161.855 24.625 162.338 24.625C163.455 24.625 164.371 24.95 165.088 25.6C165.805 26.25 166.163 27.1333 166.163 28.25C166.163 29.1 165.955 29.9083 165.538 30.675C165.138 31.425 164.496 32.0417 163.613 32.525C162.746 33.0083 161.613 33.25 160.213 33.25ZM167.238 33L170.138 19.35H173.813L170.913 33H167.238ZM160.513 30.675C161.096 30.675 161.571 30.4917 161.938 30.125C162.305 29.7583 162.488 29.2667 162.488 28.65C162.488 27.6833 161.98 27.2 160.963 27.2C160.496 27.2 159.963 27.275 159.363 27.425C159.263 27.8583 159.196 28.1833 159.163 28.4C159.13 28.6 159.113 28.8583 159.113 29.175C159.113 29.7083 159.255 30.0917 159.538 30.325C159.821 30.5583 160.146 30.675 160.513 30.675Z" fill="#FF228C"/>
<defs>
<filter id="filter0_d_49_3" x="0" y="-2" width="227" height="63" filterUnits="userSpaceOnUse" color-interpolation-filters="sRGB">
<feFlood flood-opacity="0" result="BackgroundImageFix"/>
<feColorMatrix in="SourceAlpha" type="matrix" values="0 0 0 0 0 0 0 0 0 0 0 0 0 0 0 0 0 0 127 0" result="hardAlpha"/>
<feOffset dy="11"/>
<feGaussianBlur stdDeviation="4.5"/>
<feComposite in2="hardAlpha" operator="out"/>
<feColorMatrix type="matrix" values="0 0 0 0 0 0 0 0 0 0 0 0 0 0 0 0 0 0 0.53 0"/>
<feBlend mode="normal" in2="BackgroundImageFix" result="effect1_dropShadow_49_3"/>
<feBlend mode="normal" in="SourceGraphic" in2="effect1_dropShadow_49_3" result="shape"/>
</filter>
<linearGradient id="paint0_linear_49_3" x1="113.5" y1="-2" x2="113.5" y2="41" gradientUnits="userSpaceOnUse">
<stop stop-color="#B3AEAE" stop-opacity="0.88"/>
<stop offset="1" stop-color="#5F5F5F" stop-opacity="0.2"/>
</linearGradient>
</defs>
</svg>
