<svg width="151" height="104" viewBox="0 0 151 104" fill="none" xmlns="http://www.w3.org/2000/svg">
<path d="M48.9687 0.218298C39.1902 1.36367 30.76 5.71337 23.9806 13.0765C18.726 18.7897 15.0338 25.8392 13.2193 33.6114C12.8664 35.1795 12.6018 36.6248 12.2994 38.861C12.0348 40.8518 11.997 47.2741 12.2364 49.224C13.3075 57.7734 15.5631 64.1275 19.7971 70.6179C22.7835 75.1858 27.2317 79.6309 31.8941 82.6989C32.3226 82.9852 32.6754 83.2579 32.6754 83.3261C32.6754 83.4352 30.5206 84.6897 23.7916 88.4939C20.0113 90.6347 17.9951 91.9164 9.64054 97.4797C4.27246 101.039 -0.0623274 103.984 0.000678237 103.997C0.0636839 104.025 0.555128 103.834 1.08438 103.575C5.16714 101.557 18.3479 95.4616 18.4613 95.5298C18.5495 95.5844 18.5621 95.5707 18.5117 95.4753C18.4487 95.3662 18.5243 95.3253 18.7134 95.3389C19.3056 95.3798 22.4937 93.7299 29.7771 89.5848C33.5953 87.4031 34.616 86.9259 35.9895 86.6668C38.5475 86.1896 38.2451 86.1759 40.1101 86.8304C43.273 87.9213 46.272 88.603 49.3467 88.9166C51.4511 89.1212 56.6932 89.0121 58.5707 88.7121C63.8884 87.8531 68.2862 86.2986 72.684 83.7079C80.7613 78.9628 87.0493 71.4906 90.8296 62.1776C91.4219 60.7323 92.7702 56.5053 92.7954 56.0689C92.7954 55.9326 92.8332 55.9053 92.871 56.0008C92.9088 56.1098 93.1734 55.8099 93.5011 55.319C93.8161 54.8554 94.6478 53.86 95.3534 53.1101C96.7647 51.5965 97.168 51.3102 101.226 49.0194C106.216 46.1969 106.72 45.9106 107.589 45.406C108.081 45.1197 109.215 44.4788 110.109 43.9743C111.017 43.4698 112.151 42.8153 112.63 42.5426C113.121 42.2563 114.167 41.6563 114.961 41.2063C119.573 38.602 124.349 35.8885 125.231 35.384C126.932 34.4023 130.347 32.5342 131.443 31.9888C132.01 31.7025 132.476 31.4025 132.476 31.3343C132.476 31.2661 132.539 31.2525 132.602 31.2934C132.678 31.3343 132.728 31.3207 132.728 31.2525C132.728 31.1843 133.825 30.5844 135.16 29.9299C139.987 27.5437 141.675 26.5346 147.409 22.6622C149.223 21.4486 150.496 20.4942 150.584 20.3033C150.685 20.1124 150.748 20.0578 150.748 20.1805C150.761 20.5896 151 20.0033 151 19.5669C151 19.2533 150.962 19.1988 150.874 19.3624C150.786 19.5124 150.748 19.4715 150.748 19.1442C150.748 18.5579 150.37 18.0943 149.614 17.7398L148.984 17.4398L147.119 18.2852C139.47 21.7486 137.126 23.0576 130.397 27.6118C127.575 29.5208 125.004 31.0343 112.063 38.3838C103.784 43.088 96.3363 47.3014 95.5298 47.7377L94.0555 48.5422L94.1311 46.1151C94.2823 41.1518 93.5767 35.7522 92.1275 30.8298C87.8305 16.199 76.4643 4.78616 62.6661 1.24095C58.2179 0.0955792 53.1774 -0.286212 48.9687 0.218298ZM147.572 20.2078C147.875 20.9169 147.648 21.1487 145.493 22.3622C144.397 22.9894 141.297 24.7484 138.613 26.2756C133.421 29.2345 133.094 29.3981 133.144 29.1526C133.195 28.8663 132.628 28.6618 132.061 28.7845C131.771 28.839 131.506 28.8663 131.481 28.8254C131.267 28.6072 132.174 27.9527 134.568 26.5892C136.093 25.7302 139.394 23.8485 141.927 22.4031C146.93 19.5397 147.22 19.4306 147.572 20.2078ZM64.2286 24.6802C65.7534 25.2393 67.1017 26.3983 67.883 27.8027C69.2313 30.2162 69.2061 33.3933 67.8326 35.7249C67.2907 36.6521 66.0684 37.8248 65.1737 38.3293C62.9811 39.5155 60.3601 39.3792 58.3187 37.9747C56.6175 36.8021 55.5843 35.0431 55.2188 32.6842C54.6392 28.9208 57.361 24.9666 60.9649 24.353C61.7336 24.2303 63.4978 24.4075 64.2286 24.6802ZM42.9831 27.8982C45.1883 28.58 46.8643 30.3389 47.6077 32.7115C48.0488 34.1023 48.0488 35.9703 47.6203 37.3475C45.957 42.6517 39.8076 44.2061 36.2037 40.2382C34.9436 38.8474 34.2001 36.9112 34.1875 35.0295C34.1875 33.9932 34.6034 32.3161 35.0948 31.3752C35.9139 29.8208 37.5142 28.4436 39.165 27.8845C39.9211 27.6255 42.1263 27.6391 42.9831 27.8982ZM67.1269 46.8378C69.3069 47.6013 70.9072 49.333 71.6003 51.6647C71.9279 52.7692 71.9657 54.8145 71.6633 55.919C70.7434 59.3278 67.5679 61.6731 64.3798 61.3049C62.1242 61.0459 60.0325 59.546 58.974 57.4461C58.5329 56.5462 58.1297 54.8554 58.1297 53.8736C58.1549 50.6284 60.3349 47.5741 63.2457 46.7014C64.3168 46.3878 66.018 46.4423 67.1269 46.8378ZM45.642 49.9739C48.0866 50.6011 50.0524 52.6328 50.7454 55.2508C51.0352 56.328 51.01 58.1688 50.695 59.3005C49.8255 62.4639 47.1289 64.632 44.0668 64.632C40.4251 64.632 37.4764 61.6049 37.237 57.6234C36.9598 52.7555 41.2442 48.8558 45.642 49.9739Z" fill="#FF228C"/>
</svg>
