<svg width="166" height="113" viewBox="0 0 166 113" fill="none" xmlns="http://www.w3.org/2000/svg">
<path d="M112.167 0.237188C122.917 1.48168 132.184 6.20779 139.637 14.2081C145.414 20.4158 149.473 28.0753 151.468 36.5201C151.855 38.2239 152.146 39.7943 152.479 42.224C152.77 44.3871 152.811 51.3651 152.548 53.4837C151.371 62.773 148.891 69.677 144.236 76.7291C140.953 81.6922 136.063 86.5221 130.938 89.8555C130.467 90.1667 130.079 90.463 130.079 90.537C130.079 90.6556 132.448 92.0186 139.845 96.1521C144.001 98.4781 146.217 99.8707 155.402 105.915C161.303 109.782 166.069 112.982 165.999 112.997C165.93 113.027 165.39 112.819 164.808 112.538C160.32 110.345 145.829 103.723 145.705 103.797C145.608 103.856 145.594 103.841 145.649 103.738C145.719 103.619 145.635 103.575 145.428 103.589C144.777 103.634 141.272 101.841 133.265 97.3373C129.067 94.9668 127.945 94.4483 126.435 94.1668C123.623 93.6483 123.956 93.6335 121.905 94.3446C118.428 95.5298 115.131 96.2706 111.751 96.6114C109.438 96.8336 103.675 96.7151 101.611 96.3891C95.7651 95.4557 90.9304 93.7668 86.0958 90.9519C77.216 85.7961 70.3034 77.6773 66.1476 67.5584C65.4965 65.9879 64.0142 61.3952 63.9865 60.9211C63.9865 60.7729 63.945 60.7433 63.9034 60.847C63.8619 60.9655 63.5709 60.6396 63.2108 60.1062C62.8644 59.6025 61.9502 58.521 61.1744 57.7061C59.6229 56.0616 59.1796 55.7505 54.7189 53.2615C49.2332 50.1947 48.6791 49.8836 47.7232 49.3354C47.183 49.0243 45.9362 48.328 44.9526 47.7798C43.9552 47.2316 42.7085 46.5205 42.1821 46.2242C41.6418 45.9131 40.492 45.2612 39.6193 44.7723C34.5491 41.9425 29.2989 38.9943 28.3292 38.4461C26.459 37.3794 22.7049 35.3497 21.4997 34.7571C20.8763 34.4459 20.3638 34.12 20.3638 34.0459C20.3638 33.9718 20.2945 33.957 20.2252 34.0015C20.1421 34.0459 20.0867 34.0311 20.0867 33.957C20.0867 33.883 18.8815 33.2311 17.4131 32.5199C12.1074 29.9272 10.2511 28.8309 3.94808 24.6233C1.95326 23.3048 0.554117 22.2677 0.457147 22.0603C0.346324 21.8529 0.277059 21.7936 0.277059 21.9269C0.263206 22.3714 1.15689e-06 21.7343 1.15689e-06 21.2602C1.15689e-06 20.9195 0.0415598 20.8602 0.13853 21.038C0.2355 21.201 0.277059 21.1565 0.277059 20.801C0.277059 20.1639 0.692646 19.6602 1.52382 19.275L2.21646 18.949L4.26669 19.8676C12.6754 23.6307 15.252 25.053 22.6495 30.0013C25.7525 32.0755 28.5785 33.72 42.8055 41.7055C51.9068 46.8168 60.0939 51.3948 60.9805 51.8688L62.6012 52.743L62.5181 50.1058C62.3519 44.713 63.1276 38.8461 64.7207 33.4978C69.4446 17.6008 81.9399 5.20035 97.1088 1.34834C101.999 0.103849 107.54 -0.310982 112.167 0.237188ZM3.76799 21.9566C3.43552 22.727 3.68487 22.9788 6.05372 24.2974C7.25892 24.9789 10.6667 26.8901 13.6174 28.5494C19.3248 31.7644 19.685 31.9421 19.6296 31.6755C19.5741 31.3643 20.1975 31.1421 20.8209 31.2754C21.1395 31.3347 21.4304 31.3643 21.4581 31.3199C21.6936 31.0828 20.6962 30.3717 18.0642 28.8902C16.388 27.9568 12.7585 25.9123 9.97409 24.3418C4.47449 21.2306 4.15587 21.1121 3.76799 21.9566ZM95.391 26.816C93.7148 27.4234 92.2326 28.6828 91.3737 30.2087C89.8914 32.8311 89.9192 36.2831 91.4291 38.8165C92.0248 39.8239 93.3685 41.0981 94.3521 41.6462C96.7625 42.9352 99.6439 42.787 101.888 41.261C103.758 39.9869 104.894 38.0757 105.296 35.5126C105.933 31.4236 102.941 27.1271 98.9789 26.4604C98.1339 26.3271 96.1945 26.5197 95.391 26.816ZM118.747 30.3124C116.323 31.0532 114.48 32.9644 113.663 35.5423C113.178 37.0535 113.178 39.0832 113.649 40.5795C115.478 46.3427 122.238 48.0317 126.2 43.7204C127.585 42.2092 128.402 40.1054 128.416 38.0609C128.416 36.9349 127.959 35.1126 127.419 34.0904C126.519 32.4014 124.759 30.9051 122.944 30.2976C122.113 30.0161 119.689 30.031 118.747 30.3124ZM92.2049 50.891C89.8083 51.7207 88.049 53.6023 87.2871 56.1357C86.9269 57.3357 86.8854 59.558 87.2178 60.7581C88.2291 64.4619 91.72 67.0102 95.2248 66.6102C97.7045 66.3287 100.004 64.699 101.168 62.4174C101.653 61.4396 102.096 59.6025 102.096 58.5358C102.068 55.0097 99.6716 51.6911 96.4716 50.7429C95.2941 50.4021 93.4239 50.4614 92.2049 50.891ZM115.824 54.2986C113.137 54.9801 110.976 57.1876 110.214 60.0321C109.895 61.2026 109.923 63.2026 110.269 64.4323C111.225 67.8695 114.189 70.2251 117.556 70.2251C121.559 70.2251 124.801 66.9361 125.064 62.61C125.369 57.3209 120.659 53.0837 115.824 54.2986Z" fill="#FF228C"/>
</svg>
