<svg width="49" height="48" viewBox="0 0 49 48" fill="none" xmlns="http://www.w3.org/2000/svg">
<path d="M0.634277 24C0.634277 10.7452 11.3565 0 24.583 0C37.8094 0 48.5316 10.7452 48.5316 24C48.5316 37.2548 37.8094 48 24.583 48C11.3565 48 0.634277 37.2548 0.634277 24Z" fill="#DADADA"/>
<path d="M24.0843 12.635C21.2417 12.635 18.2784 12.9375 16.0223 14.4104C13.7323 15.9054 12.2439 18.5538 12.2439 23.0625C12.2439 25.4736 12.6627 27.4632 13.536 29.0347C14.3749 30.5444 15.6208 31.6455 17.2644 32.3613V34.7781C17.2644 35.4265 17.6358 35.9802 18.1831 36.2545C18.3134 36.3198 18.4547 36.3435 18.5612 36.3542C18.6692 36.365 18.774 36.365 18.8438 36.365H18.8486C19.2315 36.365 19.6833 36.1834 19.9677 35.8984L22.4411 33.4197C22.6594 33.4243 22.8812 33.4377 23.1173 33.4521L23.1388 33.4534C23.4339 33.4713 23.7491 33.49 24.0843 33.49C26.9269 33.49 29.8902 33.1875 32.1463 31.7146C34.4363 30.2196 35.9247 27.5712 35.9247 23.0625C35.9247 18.5538 34.4363 15.9054 32.1463 14.4104C29.8902 12.9375 26.9269 12.635 24.0843 12.635Z" fill="#FF0A80" stroke="white" stroke-width="0.73"/>
<path d="M23.8234 19.0897C25.7012 19.0897 27.2661 20.6578 27.2661 22.5397C27.2661 23.0101 27.579 23.3238 28.0485 23.3238C28.5179 23.3238 28.8309 23.0101 28.8309 22.5397C28.8309 19.7953 26.5619 17.5215 23.8234 17.5215C23.354 17.5215 23.041 17.8351 23.041 18.3056C23.041 18.776 23.354 19.0897 23.8234 19.0897Z" fill="white"/>
<path d="M23.8234 21.5203C24.3711 21.5203 24.8406 21.9908 24.8406 22.5396C24.8406 23.0101 25.1535 23.3237 25.623 23.3237C26.0924 23.3237 26.4054 23.0101 26.4054 22.5396C26.4054 21.1283 25.2318 19.9521 23.8234 19.9521C23.354 19.9521 23.041 20.2658 23.041 20.7362C23.041 21.2067 23.354 21.5203 23.8234 21.5203Z" fill="white"/>
<path d="M23.8234 15.0908C23.354 15.0908 23.041 15.4045 23.041 15.8749C23.041 16.3454 23.354 16.659 23.8234 16.659C27.0313 16.659 29.5724 18.7852 29.5724 22C29.5724 22.4705 30.0045 23.3238 30.474 23.3238C30.9434 23.3238 31.2564 23.0101 31.2564 22.5397C31.2564 18.4624 27.892 15.0908 23.8234 15.0908Z" fill="white"/>
<path d="M27.7374 26.2063L27.5847 26.125C27.5847 26.125 25.9057 25.2313 25.6004 25.15C24.9899 24.9062 24.3793 25.0687 23.9977 25.6375L23.9214 25.8C23.7688 26.0438 23.5398 26.3687 23.3872 26.5312C23.0056 26.3687 22.3187 26.0437 21.4028 25.2312C20.7923 24.6625 20.3344 23.9313 20.1054 23.525C20.1817 23.4438 20.1817 23.4438 20.258 23.3625C20.3344 23.2813 20.4107 23.2 20.487 23.1188C20.6396 22.9563 20.716 22.7938 20.8686 22.55C21.0212 22.1438 21.0212 21.7375 20.8686 21.25C20.7923 21.0875 20.487 20.3562 20.258 19.7875L19.9528 19.1375C19.6475 18.325 19.1896 18.1625 18.6553 18.1625C18.579 18 18.5027 18 18.3501 18C17.7395 18 17.2053 18.2438 16.8237 18.65C16.4421 19.0563 15.6025 19.95 15.6025 21.7375C15.6025 23.2 16.4421 24.5813 16.9 25.3125L16.9763 25.3938C18.4264 27.6687 20.258 29.2937 22.0897 30.1062C23.6924 30.8375 24.6083 31 25.2188 31C25.5241 31 25.7531 31 25.9057 30.9187C26.8979 30.675 28.0427 29.9438 28.3479 28.9688C28.5006 28.4 28.7295 27.425 28.4243 26.8562C28.2716 26.5312 27.9663 26.3688 27.7374 26.2063Z" fill="white"/>
</svg>
