<svg width="441" height="51" viewBox="0 0 441 51" fill="none" xmlns="http://www.w3.org/2000/svg">
<path d="M20.4984 3.328C22.2024 3.328 22.9824 4.324 22.8384 6.316C22.6704 8.356 22.2264 12.076 21.5064 17.476C20.5224 24.94 19.9824 29.704 19.8864 31.768C19.8384 32.584 19.5984 33.196 19.1664 33.604C18.7344 33.988 18.0504 34.18 17.1144 34.18C15.6744 34.18 14.9544 33.484 14.9544 32.092C14.9544 31.204 15.0384 30.208 15.2064 29.104C15.3744 27.976 15.6384 26.464 15.9984 24.568C16.4304 22.24 16.7064 20.512 16.8264 19.384C15.8184 21.472 14.5824 23.032 13.1184 24.064C11.6544 25.072 9.91437 25.576 7.89837 25.576C5.45037 25.576 3.56637 24.976 2.24637 23.776C0.950371 22.576 0.302371 20.872 0.302371 18.664C0.302371 17.968 0.350371 17.284 0.446371 16.612C0.566371 15.916 0.746371 14.98 0.986371 13.804C1.29837 12.292 1.52637 10.912 1.67037 9.664C1.83837 8.416 1.91037 7.072 1.88637 5.632C1.86237 4.912 2.09037 4.348 2.57037 3.94C3.05037 3.532 3.73437 3.328 4.62237 3.328C6.08637 3.328 6.89037 4.096 7.03437 5.632C7.08237 6.304 7.10637 6.808 7.10637 7.144C7.10637 8.344 7.01037 9.496 6.81837 10.6C6.65037 11.68 6.41037 12.916 6.09837 14.308C5.93037 15.004 5.78637 15.688 5.66637 16.36C5.54637 17.008 5.48637 17.56 5.48637 18.016C5.48637 18.976 5.77437 19.72 6.35037 20.248C6.92637 20.752 7.75437 21.004 8.83437 21.004C10.4664 21.004 11.9304 20.416 13.2264 19.24C14.5464 18.04 15.6024 16.336 16.3944 14.128C17.2104 11.92 17.7144 9.34 17.9064 6.388C18.0504 4.348 18.9144 3.328 20.4984 3.328ZM27.6781 34.18C26.7661 34.18 26.1181 33.7 25.7341 32.74C25.3741 31.78 25.1941 30.244 25.1941 28.132C25.1941 25.012 25.6381 22.048 26.5261 19.24C26.7421 18.544 27.0901 18.04 27.5701 17.728C28.0741 17.392 28.7701 17.224 29.6581 17.224C30.1381 17.224 30.4741 17.284 30.6661 17.404C30.8581 17.524 30.9541 17.752 30.9541 18.088C30.9541 18.472 30.7741 19.336 30.4141 20.68C30.1741 21.64 29.9821 22.48 29.8381 23.2C29.6941 23.896 29.5741 24.772 29.4781 25.828C30.1261 23.956 30.8941 22.372 31.7821 21.076C32.6941 19.78 33.6181 18.82 34.5541 18.196C35.5141 17.548 36.4141 17.224 37.2541 17.224C38.0941 17.224 38.6821 17.416 39.0181 17.8C39.3781 18.184 39.5581 18.772 39.5581 19.564C39.5581 20.332 39.3301 21.724 38.8741 23.74C38.6821 24.604 38.5501 25.252 38.4781 25.684C39.6781 22.732 41.0101 20.584 42.4741 19.24C43.9381 17.896 45.3061 17.224 46.5781 17.224C48.1381 17.224 48.9181 18.004 48.9181 19.564C48.9181 20.5 48.6541 22.192 48.1261 24.64C47.6701 26.728 47.4421 28.108 47.4421 28.78C47.4421 29.74 47.7901 30.22 48.4861 30.22C48.9661 30.22 49.5301 29.932 50.1781 29.356C50.8501 28.756 51.7381 27.796 52.8421 26.476C53.1301 26.14 53.4541 25.972 53.8141 25.972C54.1261 25.972 54.3661 26.116 54.5341 26.404C54.7261 26.692 54.8221 27.088 54.8221 27.592C54.8221 28.552 54.5941 29.296 54.1381 29.824C53.1061 31.096 51.9901 32.14 50.7901 32.956C49.6141 33.772 48.2701 34.18 46.7581 34.18C45.5341 34.18 44.6101 33.832 43.9861 33.136C43.3621 32.416 43.0501 31.384 43.0501 30.04C43.0501 29.368 43.2181 28.168 43.5541 26.44C43.8661 24.928 44.0221 23.884 44.0221 23.308C44.0221 22.924 43.8901 22.732 43.6261 22.732C43.3141 22.732 42.8701 23.14 42.2941 23.956C41.7181 24.748 41.1421 25.804 40.5661 27.124C39.9901 28.444 39.5221 29.836 39.1621 31.3C38.8981 32.452 38.5861 33.22 38.2261 33.604C37.8901 33.988 37.3381 34.18 36.5701 34.18C35.7781 34.18 35.1781 33.808 34.7701 33.064C34.3861 32.296 34.1941 31.372 34.1941 30.292C34.1941 29.38 34.3141 28.06 34.5541 26.332C34.7461 24.796 34.8421 23.788 34.8421 23.308C34.8421 22.924 34.7101 22.732 34.4461 22.732C34.0861 22.732 33.6301 23.164 33.0781 24.028C32.5261 24.892 31.9861 25.996 31.4581 27.34C30.9541 28.684 30.5461 30.004 30.2341 31.3C29.9701 32.428 29.6581 33.196 29.2981 33.604C28.9621 33.988 28.4221 34.18 27.6781 34.18ZM69.5512 22.948C69.8632 22.948 70.1032 23.104 70.2712 23.416C70.4392 23.728 70.5232 24.124 70.5232 24.604C70.5232 25.756 70.1752 26.44 69.4792 26.656C68.0392 27.16 66.4552 27.448 64.7272 27.52C64.2712 29.536 63.3712 31.156 62.0272 32.38C60.6832 33.58 59.1592 34.18 57.4552 34.18C56.0152 34.18 54.7792 33.832 53.7472 33.136C52.7392 32.44 51.9712 31.516 51.4432 30.364C50.9152 29.212 50.6512 27.964 50.6512 26.62C50.6512 24.796 50.9992 23.176 51.6952 21.76C52.3912 20.32 53.3512 19.204 54.5752 18.412C55.7992 17.596 57.1552 17.188 58.6432 17.188C60.4672 17.188 61.9312 17.824 63.0352 19.096C64.1632 20.344 64.8232 21.892 65.0152 23.74C66.1432 23.668 67.4872 23.428 69.0472 23.02C69.2392 22.972 69.4072 22.948 69.5512 22.948ZM57.7432 30.364C58.5112 30.364 59.1712 30.052 59.7232 29.428C60.2992 28.804 60.6832 27.904 60.8752 26.728C60.1312 26.224 59.5552 25.564 59.1472 24.748C58.7632 23.932 58.5712 23.068 58.5712 22.156C58.5712 21.772 58.6072 21.388 58.6792 21.004H58.4992C57.5392 21.004 56.7352 21.472 56.0872 22.408C55.4632 23.32 55.1512 24.616 55.1512 26.296C55.1512 27.616 55.4032 28.624 55.9072 29.32C56.4352 30.016 57.0472 30.364 57.7432 30.364ZM81.6767 16.9C83.4767 16.9 84.8327 17.224 85.7447 17.872C86.6807 18.496 87.1487 19.408 87.1487 20.608C87.1487 21.64 86.9327 22.504 86.5007 23.2C86.0687 23.896 85.5527 24.448 84.9527 24.856C84.3527 25.264 83.5727 25.708 82.6127 26.188C81.5807 26.716 80.8247 27.172 80.3447 27.556C79.8647 27.94 79.6247 28.456 79.6247 29.104C79.6247 29.632 79.8167 30.004 80.2007 30.22C80.5847 30.436 81.2567 30.544 82.2167 30.544C83.6327 30.544 85.0367 30.196 86.4287 29.5C87.8447 28.78 89.0927 27.772 90.1727 26.476C90.4367 26.14 90.7607 25.972 91.1447 25.972C91.4567 25.972 91.6967 26.116 91.8647 26.404C92.0567 26.692 92.1527 27.088 92.1527 27.592C92.1527 28.48 91.9247 29.224 91.4687 29.824C90.3167 31.36 88.9127 32.536 87.2567 33.352C85.6007 34.144 83.7647 34.54 81.7487 34.54C79.6367 34.54 78.0047 34.18 76.8527 33.46C75.7007 32.716 75.1247 31.528 75.1247 29.896C75.1247 28.864 75.3407 27.988 75.7727 27.268C76.2287 26.524 76.7687 25.924 77.3927 25.468C78.0407 24.988 78.8447 24.496 79.8047 23.992C80.7887 23.464 81.5087 23.008 81.9647 22.624C82.4207 22.216 82.6487 21.736 82.6487 21.184C82.6487 20.872 82.5167 20.632 82.2527 20.464C81.9887 20.272 81.6047 20.176 81.1007 20.176C80.6447 20.176 80.2367 20.248 79.8767 20.392C79.5167 20.512 79.1207 20.692 78.6887 20.932C78.4487 21.052 78.1967 21.172 77.9327 21.292C77.6927 21.388 77.4647 21.436 77.2487 21.436C76.7927 21.436 76.4327 21.292 76.1687 21.004C75.9287 20.692 75.8087 20.296 75.8087 19.816C75.8087 19.168 76.1087 18.616 76.7087 18.16C77.1887 17.8 77.8967 17.5 78.8327 17.26C79.7687 17.02 80.7167 16.9 81.6767 16.9ZM106.836 22.948C107.148 22.948 107.388 23.104 107.556 23.416C107.724 23.728 107.808 24.124 107.808 24.604C107.808 25.756 107.46 26.44 106.764 26.656C105.324 27.16 103.74 27.448 102.012 27.52C101.556 29.536 100.656 31.156 99.3125 32.38C97.9685 33.58 96.4445 34.18 94.7405 34.18C93.3005 34.18 92.0645 33.832 91.0325 33.136C90.0245 32.44 89.2565 31.516 88.7285 30.364C88.2005 29.212 87.9365 27.964 87.9365 26.62C87.9365 24.796 88.2845 23.176 88.9805 21.76C89.6765 20.32 90.6365 19.204 91.8605 18.412C93.0845 17.596 94.4405 17.188 95.9285 17.188C97.7525 17.188 99.2165 17.824 100.32 19.096C101.448 20.344 102.108 21.892 102.3 23.74C103.428 23.668 104.772 23.428 106.332 23.02C106.524 22.972 106.692 22.948 106.836 22.948ZM95.0285 30.364C95.7965 30.364 96.4565 30.052 97.0085 29.428C97.5845 28.804 97.9685 27.904 98.1605 26.728C97.4165 26.224 96.8405 25.564 96.4325 24.748C96.0485 23.932 95.8565 23.068 95.8565 22.156C95.8565 21.772 95.8925 21.388 95.9645 21.004H95.7845C94.8245 21.004 94.0205 21.472 93.3725 22.408C92.7485 23.32 92.4365 24.616 92.4365 26.296C92.4365 27.616 92.6885 28.624 93.1925 29.32C93.7205 30.016 94.3325 30.364 95.0285 30.364ZM123.151 22.948C123.463 22.948 123.703 23.104 123.871 23.416C124.039 23.728 124.123 24.124 124.123 24.604C124.123 25.204 124.039 25.672 123.871 26.008C123.703 26.32 123.439 26.536 123.079 26.656C121.639 27.16 120.055 27.448 118.327 27.52C117.847 29.512 116.935 31.12 115.591 32.344C114.271 33.568 112.807 34.18 111.199 34.18C108.775 34.18 107.011 33.256 105.907 31.408C104.803 29.56 104.251 26.884 104.251 23.38C104.251 20.284 104.635 16.924 105.403 13.3C106.171 9.652 107.287 6.556 108.751 4.012C110.239 1.444 112.003 0.159998 114.043 0.159998C115.147 0.159998 116.035 0.639998 116.707 1.6C117.379 2.536 117.715 3.76 117.715 5.272C117.715 7.24 117.343 9.196 116.599 11.14C115.855 13.084 114.619 15.124 112.891 17.26C114.499 17.38 115.807 18.052 116.815 19.276C117.823 20.476 118.423 21.964 118.615 23.74C119.743 23.668 121.087 23.428 122.647 23.02C122.791 22.972 122.959 22.948 123.151 22.948ZM113.215 3.724C112.735 3.724 112.207 4.444 111.631 5.884C111.079 7.3 110.563 9.232 110.083 11.68C109.603 14.128 109.243 16.804 109.003 19.708C110.587 16.804 111.847 14.248 112.783 12.04C113.743 9.808 114.223 7.828 114.223 6.1C114.223 5.332 114.127 4.744 113.935 4.336C113.767 3.928 113.527 3.724 113.215 3.724ZM111.343 30.364C112.087 30.364 112.747 30.052 113.323 29.428C113.899 28.804 114.283 27.904 114.475 26.728C113.731 26.224 113.155 25.564 112.747 24.748C112.363 23.932 112.171 23.068 112.171 22.156C112.171 21.82 112.219 21.364 112.315 20.788H112.207C111.223 20.788 110.395 21.28 109.723 22.264C109.075 23.224 108.751 24.52 108.751 26.152C108.751 27.52 109.003 28.564 109.507 29.284C110.035 30.004 110.647 30.364 111.343 30.364ZM138.654 22.948C138.966 22.948 139.206 23.104 139.374 23.416C139.542 23.728 139.626 24.124 139.626 24.604C139.626 25.756 139.278 26.44 138.582 26.656C137.142 27.16 135.558 27.448 133.83 27.52C133.374 29.536 132.474 31.156 131.13 32.38C129.786 33.58 128.262 34.18 126.558 34.18C125.118 34.18 123.882 33.832 122.85 33.136C121.842 32.44 121.074 31.516 120.546 30.364C120.018 29.212 119.754 27.964 119.754 26.62C119.754 24.796 120.102 23.176 120.798 21.76C121.494 20.32 122.454 19.204 123.678 18.412C124.902 17.596 126.258 17.188 127.746 17.188C129.57 17.188 131.034 17.824 132.138 19.096C133.266 20.344 133.926 21.892 134.118 23.74C135.246 23.668 136.59 23.428 138.15 23.02C138.342 22.972 138.51 22.948 138.654 22.948ZM126.846 30.364C127.614 30.364 128.274 30.052 128.826 29.428C129.402 28.804 129.786 27.904 129.978 26.728C129.234 26.224 128.658 25.564 128.25 24.748C127.866 23.932 127.674 23.068 127.674 22.156C127.674 21.772 127.71 21.388 127.782 21.004H127.602C126.642 21.004 125.838 21.472 125.19 22.408C124.566 23.32 124.254 24.616 124.254 26.296C124.254 27.616 124.506 28.624 125.01 29.32C125.538 30.016 126.15 30.364 126.846 30.364ZM155.041 25.972C155.353 25.972 155.593 26.116 155.761 26.404C155.953 26.692 156.049 27.088 156.049 27.592C156.049 28.552 155.821 29.296 155.365 29.824C154.333 31.096 153.217 32.14 152.017 32.956C150.841 33.772 149.497 34.18 147.985 34.18C146.713 34.18 145.681 33.724 144.889 32.812C143.521 33.7 142.093 34.156 140.605 34.18C140.293 38.812 139.585 42.676 138.481 45.772C137.377 48.892 135.757 50.452 133.621 50.452C132.325 50.452 131.365 49.984 130.741 49.048C130.117 48.112 129.805 46.816 129.805 45.16C129.805 42.808 130.345 40.06 131.425 36.916C132.505 33.796 134.173 30.352 136.429 26.584C136.429 23.08 136.405 20.644 136.357 19.276C136.333 18.58 136.609 18.028 137.185 17.62C137.761 17.212 138.481 17.008 139.345 17.008C139.849 17.008 140.209 17.116 140.425 17.332C140.665 17.524 140.797 17.92 140.821 18.52C140.821 19.12 140.833 19.564 140.857 19.852C141.625 18.892 142.381 18.208 143.125 17.8C143.869 17.368 144.661 17.152 145.501 17.152C146.845 17.152 147.937 17.692 148.777 18.772C149.641 19.852 150.073 21.268 150.073 23.02C150.073 24.292 149.869 25.528 149.461 26.728C149.053 27.928 148.489 29.02 147.769 30.004C148.273 30.148 148.693 30.22 149.029 30.22C149.821 30.22 150.577 29.932 151.297 29.356C152.017 28.78 152.941 27.82 154.069 26.476C154.357 26.14 154.681 25.972 155.041 25.972ZM140.785 30.724C141.649 30.532 142.441 30.064 143.161 29.32C143.905 28.552 144.493 27.616 144.925 26.512C145.357 25.384 145.573 24.208 145.573 22.984C145.573 22.264 145.429 21.724 145.141 21.364C144.853 20.98 144.469 20.788 143.989 20.788C143.125 20.788 142.081 21.7 140.857 23.524C140.833 24.58 140.821 26.128 140.821 28.168C140.821 29.272 140.809 30.124 140.785 30.724ZM133.909 46.924C134.557 46.924 135.097 45.508 135.529 42.676C135.961 39.868 136.237 36.364 136.357 32.164C135.325 34.564 134.509 36.856 133.909 39.04C133.309 41.224 133.009 43.06 133.009 44.548C133.009 45.316 133.105 45.904 133.297 46.312C133.465 46.72 133.669 46.924 133.909 46.924ZM173.885 25.972C174.197 25.972 174.437 26.116 174.605 26.404C174.797 26.692 174.893 27.088 174.893 27.592C174.893 28.552 174.665 29.296 174.209 29.824C172.961 31.288 171.761 32.38 170.609 33.1C169.457 33.82 168.317 34.18 167.189 34.18C166.205 34.18 165.449 33.832 164.921 33.136C164.393 32.44 164.129 31.444 164.129 30.148C164.129 29.452 164.201 28.696 164.345 27.88H164.273C162.041 32.08 159.197 34.18 155.741 34.18C154.253 34.18 153.041 33.748 152.105 32.884C151.193 32.02 150.737 30.88 150.737 29.464C150.737 28.216 151.013 27.232 151.565 26.512C152.141 25.792 152.921 25.432 153.905 25.432C154.769 25.432 155.201 25.78 155.201 26.476C155.201 26.572 155.177 26.74 155.129 26.98C155.081 27.364 155.057 27.652 155.057 27.844C155.057 28.612 155.225 29.248 155.561 29.752C155.897 30.256 156.353 30.508 156.929 30.508C157.673 30.508 158.429 30.28 159.197 29.824C159.965 29.344 160.721 28.672 161.465 27.808H160.997C159.557 27.808 158.405 27.352 157.541 26.44C156.701 25.528 156.281 24.304 156.281 22.768C156.281 20.992 156.797 19.624 157.829 18.664C158.861 17.68 160.301 17.188 162.149 17.188C163.445 17.188 164.777 17.392 166.145 17.8C166.409 17.44 166.961 17.26 167.801 17.26C168.281 17.26 168.653 17.38 168.917 17.62C169.205 17.836 169.325 18.136 169.277 18.52C169.229 19.12 169.013 20.188 168.629 21.724C168.269 23.26 167.993 24.58 167.801 25.684C167.609 26.788 167.513 27.82 167.513 28.78C167.513 29.236 167.597 29.596 167.765 29.86C167.957 30.1 168.221 30.22 168.557 30.22C169.013 30.22 169.565 29.944 170.213 29.392C170.861 28.84 171.761 27.868 172.913 26.476C173.177 26.14 173.501 25.972 173.885 25.972ZM163.373 25.036C164.189 23.62 164.837 22.108 165.317 20.5C164.453 20.236 163.685 20.104 163.013 20.104C162.053 20.104 161.309 20.332 160.781 20.788C160.253 21.244 159.989 21.892 159.989 22.732C159.989 23.404 160.205 23.968 160.637 24.424C161.093 24.88 161.657 25.108 162.329 25.108C162.641 25.108 162.989 25.084 163.373 25.036ZM173.811 34.18C172.899 34.18 172.251 33.7 171.867 32.74C171.507 31.78 171.327 30.244 171.327 28.132C171.327 25.012 171.771 22.048 172.659 19.24C172.875 18.544 173.223 18.04 173.703 17.728C174.207 17.392 174.903 17.224 175.791 17.224C176.271 17.224 176.607 17.284 176.799 17.404C176.991 17.524 177.087 17.752 177.087 18.088C177.087 18.472 176.907 19.336 176.547 20.68C176.307 21.64 176.115 22.48 175.971 23.2C175.827 23.896 175.707 24.772 175.611 25.828C176.259 23.956 177.027 22.372 177.915 21.076C178.827 19.78 179.751 18.82 180.687 18.196C181.647 17.548 182.547 17.224 183.387 17.224C184.227 17.224 184.815 17.416 185.151 17.8C185.511 18.184 185.691 18.772 185.691 19.564C185.691 20.332 185.463 21.724 185.007 23.74C184.815 24.604 184.683 25.252 184.611 25.684C185.811 22.732 187.143 20.584 188.607 19.24C190.071 17.896 191.439 17.224 192.711 17.224C194.271 17.224 195.051 18.004 195.051 19.564C195.051 20.5 194.787 22.192 194.259 24.64C193.803 26.728 193.575 28.108 193.575 28.78C193.575 29.74 193.923 30.22 194.619 30.22C195.099 30.22 195.663 29.932 196.311 29.356C196.983 28.756 197.871 27.796 198.975 26.476C199.263 26.14 199.587 25.972 199.947 25.972C200.259 25.972 200.499 26.116 200.667 26.404C200.859 26.692 200.955 27.088 200.955 27.592C200.955 28.552 200.727 29.296 200.271 29.824C199.239 31.096 198.123 32.14 196.923 32.956C195.747 33.772 194.403 34.18 192.891 34.18C191.667 34.18 190.743 33.832 190.119 33.136C189.495 32.416 189.183 31.384 189.183 30.04C189.183 29.368 189.351 28.168 189.687 26.44C189.999 24.928 190.155 23.884 190.155 23.308C190.155 22.924 190.023 22.732 189.759 22.732C189.447 22.732 189.003 23.14 188.427 23.956C187.851 24.748 187.275 25.804 186.699 27.124C186.123 28.444 185.655 29.836 185.295 31.3C185.031 32.452 184.719 33.22 184.359 33.604C184.023 33.988 183.471 34.18 182.703 34.18C181.911 34.18 181.311 33.808 180.903 33.064C180.519 32.296 180.327 31.372 180.327 30.292C180.327 29.38 180.447 28.06 180.687 26.332C180.879 24.796 180.975 23.788 180.975 23.308C180.975 22.924 180.843 22.732 180.579 22.732C180.219 22.732 179.763 23.164 179.211 24.028C178.659 24.892 178.119 25.996 177.591 27.34C177.087 28.684 176.679 30.004 176.367 31.3C176.103 32.428 175.791 33.196 175.431 33.604C175.095 33.988 174.555 34.18 173.811 34.18ZM225.14 25.972C225.452 25.972 225.692 26.116 225.86 26.404C226.052 26.692 226.148 27.088 226.148 27.592C226.148 28.552 225.92 29.296 225.464 29.824C224.36 31.096 223.22 32.14 222.044 32.956C220.892 33.772 219.572 34.18 218.084 34.18C216.836 34.18 215.96 33.796 215.456 33.028C214.952 32.26 214.7 31.108 214.7 29.572C214.7 28.924 214.76 28.144 214.88 27.232C212.768 27.232 211.304 27.208 210.488 27.16C210.44 27.832 210.416 28.3 210.416 28.564V29.32C210.392 30.808 210.356 31.852 210.308 32.452C210.26 33.052 210.116 33.496 209.876 33.784C209.636 34.048 209.24 34.18 208.688 34.18C207.776 34.18 207.128 33.7 206.744 32.74C206.384 31.78 206.204 30.244 206.204 28.132C206.204 25.012 206.648 22.048 207.536 19.24C207.752 18.544 208.1 18.04 208.58 17.728C209.06 17.392 209.756 17.224 210.668 17.224C211.148 17.224 211.484 17.284 211.676 17.404C211.868 17.524 211.964 17.752 211.964 18.088C211.964 18.472 211.784 19.336 211.424 20.68C211.232 21.472 211.052 22.432 210.884 23.56H215.492C215.732 22.432 216.08 20.992 216.536 19.24C216.728 18.52 217.016 18.004 217.4 17.692C217.808 17.38 218.408 17.224 219.2 17.224C219.752 17.224 220.136 17.296 220.352 17.44C220.568 17.56 220.676 17.8 220.676 18.16C220.676 18.76 220.376 20.404 219.776 23.092C219.104 26.164 218.768 28.06 218.768 28.78C218.768 29.236 218.864 29.596 219.056 29.86C219.248 30.1 219.5 30.22 219.812 30.22C220.292 30.22 220.856 29.932 221.504 29.356C222.176 28.756 223.064 27.796 224.168 26.476C224.456 26.14 224.78 25.972 225.14 25.972ZM226.926 34.18C225.438 34.18 224.25 33.64 223.362 32.56C222.474 31.48 222.03 30.064 222.03 28.312C222.03 26.392 222.474 24.58 223.362 22.876C224.25 21.148 225.426 19.768 226.89 18.736C228.378 17.68 229.95 17.152 231.606 17.152C232.134 17.152 232.482 17.26 232.65 17.476C232.842 17.668 232.998 18.028 233.118 18.556C233.622 18.46 234.15 18.412 234.702 18.412C235.878 18.412 236.466 18.832 236.466 19.672C236.466 20.176 236.286 21.376 235.926 23.272C235.374 26.032 235.098 27.952 235.098 29.032C235.098 29.392 235.182 29.68 235.35 29.896C235.542 30.112 235.782 30.22 236.07 30.22C236.526 30.22 237.078 29.932 237.726 29.356C238.374 28.756 239.25 27.796 240.354 26.476C240.642 26.14 240.966 25.972 241.326 25.972C241.638 25.972 241.878 26.116 242.046 26.404C242.238 26.692 242.334 27.088 242.334 27.592C242.334 28.552 242.106 29.296 241.65 29.824C240.666 31.048 239.622 32.08 238.518 32.92C237.414 33.76 236.346 34.18 235.314 34.18C234.522 34.18 233.79 33.916 233.118 33.388C232.47 32.836 231.978 32.092 231.642 31.156C230.394 33.172 228.822 34.18 226.926 34.18ZM228.222 30.544C228.75 30.544 229.254 30.232 229.734 29.608C230.214 28.984 230.562 28.156 230.778 27.124L232.11 20.5C231.102 20.524 230.166 20.908 229.302 21.652C228.462 22.372 227.79 23.332 227.286 24.532C226.782 25.732 226.53 27.004 226.53 28.348C226.53 29.092 226.674 29.644 226.962 30.004C227.274 30.364 227.694 30.544 228.222 30.544ZM265.544 25.972C265.856 25.972 266.096 26.116 266.264 26.404C266.456 26.692 266.552 27.088 266.552 27.592C266.552 28.552 266.324 29.296 265.868 29.824C264.764 31.096 263.624 32.14 262.448 32.956C261.296 33.772 259.976 34.18 258.488 34.18C257.336 34.18 256.484 33.736 255.932 32.848C255.38 31.936 255.116 30.688 255.14 29.104C254.732 30.736 254.12 31.996 253.304 32.884C252.488 33.748 251.612 34.18 250.676 34.18C248.492 34.18 247.4 32.884 247.4 30.292C247.4 29.836 247.436 29.356 247.508 28.852C246.788 30.58 246.02 31.9 245.204 32.812C244.388 33.724 243.44 34.18 242.36 34.18C241.28 34.18 240.392 33.688 239.696 32.704C239.024 31.696 238.688 30.448 238.688 28.96C238.688 27.16 238.808 25.516 239.048 24.028C239.288 22.516 239.684 20.92 240.236 19.24C240.476 18.52 240.812 18.004 241.244 17.692C241.676 17.38 242.36 17.224 243.296 17.224C243.824 17.224 244.184 17.308 244.376 17.476C244.592 17.644 244.7 17.896 244.7 18.232C244.7 18.424 244.568 19.072 244.304 20.176C244.064 21.064 243.872 21.868 243.728 22.588C243.248 25.108 243.008 26.788 243.008 27.628C243.008 28.132 243.068 28.492 243.188 28.708C243.308 28.9 243.5 28.996 243.764 28.996C244.556 28.996 245.324 28.108 246.068 26.332C246.836 24.532 247.664 22.168 248.552 19.24C248.768 18.52 249.02 18.04 249.308 17.8C249.596 17.536 250.124 17.404 250.892 17.404C251.516 17.404 251.948 17.512 252.188 17.728C252.428 17.92 252.548 18.268 252.548 18.772C252.548 19.252 252.38 20.416 252.044 22.264C251.564 25.048 251.324 26.836 251.324 27.628C251.324 28.132 251.384 28.492 251.504 28.708C251.624 28.9 251.816 28.996 252.08 28.996C252.44 28.996 252.884 28.636 253.412 27.916C253.964 27.196 254.54 26.104 255.14 24.64C255.764 23.176 256.364 21.376 256.94 19.24C257.132 18.52 257.42 18.004 257.804 17.692C258.212 17.38 258.812 17.224 259.604 17.224C260.156 17.224 260.54 17.296 260.756 17.44C260.972 17.56 261.08 17.8 261.08 18.16C261.08 18.76 260.78 20.404 260.18 23.092C259.508 26.164 259.172 28.06 259.172 28.78C259.172 29.236 259.268 29.596 259.46 29.86C259.652 30.1 259.904 30.22 260.216 30.22C260.696 30.22 261.26 29.932 261.908 29.356C262.58 28.756 263.468 27.796 264.572 26.476C264.86 26.14 265.184 25.972 265.544 25.972ZM266.601 34.18C265.521 34.18 264.633 33.688 263.937 32.704C263.265 31.696 262.929 30.448 262.929 28.96C262.929 27.16 263.049 25.516 263.289 24.028C263.529 22.516 263.925 20.92 264.477 19.24C264.717 18.52 265.053 18.004 265.485 17.692C265.917 17.38 266.601 17.224 267.537 17.224C268.065 17.224 268.425 17.308 268.617 17.476C268.833 17.644 268.941 17.896 268.941 18.232C268.941 18.424 268.809 19.072 268.545 20.176C268.305 21.064 268.113 21.868 267.969 22.588C267.489 25.108 267.249 26.788 267.249 27.628C267.249 28.132 267.309 28.492 267.429 28.708C267.549 28.9 267.741 28.996 268.005 28.996C268.365 28.996 268.809 28.636 269.337 27.916C269.889 27.196 270.465 26.104 271.065 24.64C271.689 23.176 272.289 21.376 272.865 19.24C273.057 18.52 273.345 18.004 273.729 17.692C274.137 17.38 274.737 17.224 275.529 17.224C276.081 17.224 276.465 17.296 276.681 17.44C276.897 17.56 277.005 17.8 277.005 18.16C277.005 18.76 276.705 20.404 276.105 23.092C275.433 26.164 275.097 28.06 275.097 28.78C275.097 29.236 275.193 29.596 275.385 29.86C275.577 30.1 275.829 30.22 276.141 30.22C276.621 30.22 277.185 29.932 277.833 29.356C278.505 28.756 279.393 27.796 280.497 26.476C280.785 26.14 281.109 25.972 281.469 25.972C281.781 25.972 282.021 26.116 282.189 26.404C282.381 26.692 282.477 27.088 282.477 27.592C282.477 28.552 282.249 29.296 281.793 29.824C280.761 31.096 279.645 32.14 278.445 32.956C277.269 33.772 275.925 34.18 274.413 34.18C273.261 34.18 272.409 33.736 271.857 32.848C271.329 31.96 271.065 30.712 271.065 29.104C270.657 30.736 270.045 31.996 269.229 32.884C268.413 33.748 267.537 34.18 266.601 34.18ZM290.201 34.18C289.289 34.18 288.641 33.7 288.257 32.74C287.897 31.78 287.717 30.244 287.717 28.132C287.717 25.012 288.161 22.048 289.049 19.24C289.265 18.544 289.613 18.04 290.093 17.728C290.597 17.392 291.293 17.224 292.181 17.224C292.661 17.224 292.997 17.284 293.189 17.404C293.381 17.524 293.477 17.752 293.477 18.088C293.477 18.472 293.297 19.336 292.937 20.68C292.889 20.848 292.781 21.232 292.613 21.832C292.469 22.432 292.325 23.14 292.181 23.956C292.061 24.748 291.977 25.624 291.929 26.584C292.793 23.224 293.885 20.824 295.205 19.384C296.525 17.944 298.121 17.224 299.993 17.224C301.241 17.224 302.213 17.62 302.909 18.412C303.629 19.18 303.989 20.176 303.989 21.4C303.989 22.408 303.761 23.26 303.305 23.956C302.873 24.652 302.297 25 301.577 25C301.121 25 300.749 24.892 300.461 24.676C300.197 24.46 300.065 24.16 300.065 23.776C300.065 23.608 300.089 23.416 300.137 23.2C300.185 22.984 300.221 22.828 300.245 22.732C300.365 22.372 300.425 22.036 300.425 21.724C300.425 21.076 300.113 20.752 299.489 20.752C299.009 20.752 298.541 21.004 298.085 21.508C297.629 21.988 297.257 22.648 296.969 23.488C296.705 24.304 296.573 25.192 296.573 26.152C296.573 27.448 296.873 28.492 297.473 29.284C298.073 30.052 298.937 30.436 300.065 30.436C300.953 30.436 301.745 30.148 302.441 29.572C303.137 28.972 304.097 27.94 305.321 26.476C305.609 26.14 305.933 25.972 306.293 25.972C306.605 25.972 306.845 26.116 307.013 26.404C307.205 26.692 307.301 27.088 307.301 27.592C307.301 28.552 307.073 29.296 306.617 29.824C305.537 31.12 304.457 32.176 303.377 32.992C302.297 33.784 301.073 34.18 299.705 34.18C298.577 34.18 297.545 33.94 296.609 33.46C295.697 32.956 294.953 32.356 294.377 31.66C293.801 30.964 293.429 30.292 293.261 29.644C293.213 29.836 293.033 30.508 292.721 31.66C292.457 32.62 292.145 33.28 291.785 33.64C291.449 34 290.921 34.18 290.201 34.18ZM324.899 25.972C325.211 25.972 325.451 26.116 325.619 26.404C325.811 26.692 325.907 27.088 325.907 27.592C325.907 28.552 325.679 29.296 325.223 29.824C324.431 30.76 323.735 31.516 323.135 32.092C322.559 32.644 321.839 33.136 320.975 33.568C320.135 33.976 319.175 34.18 318.095 34.18C316.679 34.18 315.671 33.628 315.071 32.524C314.471 31.396 314.171 29.704 314.171 27.448C314.171 26.32 314.219 25.228 314.315 24.172H314.243C313.283 27.364 312.095 29.824 310.679 31.552C309.287 33.28 307.691 34.144 305.891 34.144C304.667 34.144 303.707 33.7 303.011 32.812C302.315 31.924 301.967 30.808 301.967 29.464C301.967 28.264 302.243 27.292 302.795 26.548C303.347 25.804 304.127 25.432 305.135 25.432C305.591 25.432 305.927 25.528 306.143 25.72C306.383 25.912 306.479 26.176 306.431 26.512C306.239 27.664 306.143 28.456 306.143 28.888C306.143 29.752 306.359 30.184 306.791 30.184C307.031 30.184 307.295 30.004 307.583 29.644C307.895 29.284 308.411 28.408 309.131 27.016C309.683 25.96 310.247 24.772 310.823 23.452C311.423 22.132 311.915 20.956 312.299 19.924C312.683 18.916 313.127 18.232 313.631 17.872C314.135 17.488 314.855 17.296 315.791 17.296C316.703 17.296 317.375 17.476 317.807 17.836C318.239 18.196 318.455 18.784 318.455 19.6L318.383 22.264C318.287 24.28 318.239 25.732 318.239 26.62C318.239 29.14 318.755 30.4 319.787 30.4C320.219 30.4 320.639 30.196 321.047 29.788C321.479 29.38 322.139 28.636 323.027 27.556L323.927 26.476C324.215 26.14 324.539 25.972 324.899 25.972ZM326.369 34.18C325.289 34.18 324.401 33.688 323.705 32.704C323.033 31.696 322.697 30.448 322.697 28.96C322.697 27.16 322.817 25.516 323.057 24.028C323.297 22.516 323.693 20.92 324.245 19.24C324.485 18.52 324.821 18.004 325.253 17.692C325.685 17.38 326.369 17.224 327.305 17.224C327.833 17.224 328.193 17.308 328.385 17.476C328.601 17.644 328.709 17.896 328.709 18.232C328.709 18.424 328.577 19.072 328.313 20.176C328.073 21.064 327.881 21.868 327.737 22.588C327.257 25.108 327.017 26.788 327.017 27.628C327.017 28.132 327.077 28.492 327.197 28.708C327.317 28.9 327.509 28.996 327.773 28.996C328.133 28.996 328.577 28.636 329.105 27.916C329.657 27.196 330.233 26.104 330.833 24.64C331.457 23.176 332.057 21.376 332.633 19.24C332.825 18.52 333.113 18.004 333.497 17.692C333.905 17.38 334.505 17.224 335.297 17.224C335.849 17.224 336.233 17.296 336.449 17.44C336.665 17.56 336.773 17.8 336.773 18.16C336.773 18.76 336.473 20.404 335.873 23.092C335.201 26.164 334.865 28.06 334.865 28.78C334.865 29.236 334.961 29.596 335.153 29.86C335.345 30.1 335.597 30.22 335.909 30.22C336.389 30.22 336.953 29.932 337.601 29.356C338.273 28.756 339.161 27.796 340.265 26.476C340.553 26.14 340.877 25.972 341.237 25.972C341.549 25.972 341.789 26.116 341.957 26.404C342.149 26.692 342.245 27.088 342.245 27.592C342.245 28.552 342.017 29.296 341.561 29.824C340.529 31.096 339.413 32.14 338.213 32.956C337.037 33.772 335.693 34.18 334.181 34.18C333.029 34.18 332.177 33.736 331.625 32.848C331.097 31.96 330.833 30.712 330.833 29.104C330.425 30.736 329.813 31.996 328.997 32.884C328.181 33.748 327.305 34.18 326.369 34.18ZM354.662 25.972C354.974 25.972 355.214 26.116 355.382 26.404C355.574 26.692 355.67 27.088 355.67 27.592C355.67 28.552 355.442 29.296 354.986 29.824C354.098 30.904 352.838 31.9 351.206 32.812C349.598 33.724 347.87 34.18 346.022 34.18C343.502 34.18 341.546 33.496 340.154 32.128C338.762 30.76 338.066 28.888 338.066 26.512C338.066 24.856 338.414 23.32 339.11 21.904C339.806 20.464 340.766 19.324 341.99 18.484C343.238 17.644 344.642 17.224 346.202 17.224C347.594 17.224 348.71 17.644 349.55 18.484C350.39 19.3 350.81 20.416 350.81 21.832C350.81 23.488 350.21 24.916 349.01 26.116C347.834 27.292 345.83 28.228 342.998 28.924C343.598 30.028 344.738 30.58 346.418 30.58C347.498 30.58 348.722 30.208 350.09 29.464C351.482 28.696 352.682 27.7 353.69 26.476C353.978 26.14 354.302 25.972 354.662 25.972ZM345.59 20.752C344.702 20.752 343.946 21.268 343.322 22.3C342.722 23.332 342.422 24.58 342.422 26.044V26.116C343.838 25.78 344.954 25.276 345.77 24.604C346.586 23.932 346.994 23.152 346.994 22.264C346.994 21.808 346.862 21.448 346.598 21.184C346.358 20.896 346.022 20.752 345.59 20.752ZM371.027 25.972C371.339 25.972 371.579 26.116 371.747 26.404C371.939 26.692 372.035 27.088 372.035 27.592C372.035 28.552 371.807 29.296 371.351 29.824C370.247 31.096 369.107 32.14 367.931 32.956C366.779 33.772 365.459 34.18 363.971 34.18C362.723 34.18 361.847 33.796 361.343 33.028C360.839 32.26 360.587 31.108 360.587 29.572C360.587 28.924 360.647 28.144 360.767 27.232C358.655 27.232 357.191 27.208 356.375 27.16C356.327 27.832 356.303 28.3 356.303 28.564V29.32C356.279 30.808 356.243 31.852 356.195 32.452C356.147 33.052 356.003 33.496 355.763 33.784C355.523 34.048 355.127 34.18 354.575 34.18C353.663 34.18 353.015 33.7 352.631 32.74C352.271 31.78 352.091 30.244 352.091 28.132C352.091 25.012 352.535 22.048 353.423 19.24C353.639 18.544 353.987 18.04 354.467 17.728C354.947 17.392 355.643 17.224 356.555 17.224C357.035 17.224 357.371 17.284 357.563 17.404C357.755 17.524 357.851 17.752 357.851 18.088C357.851 18.472 357.671 19.336 357.311 20.68C357.119 21.472 356.939 22.432 356.771 23.56H361.379C361.619 22.432 361.967 20.992 362.423 19.24C362.615 18.52 362.903 18.004 363.287 17.692C363.695 17.38 364.295 17.224 365.087 17.224C365.639 17.224 366.023 17.296 366.239 17.44C366.455 17.56 366.563 17.8 366.563 18.16C366.563 18.76 366.263 20.404 365.663 23.092C364.991 26.164 364.655 28.06 364.655 28.78C364.655 29.236 364.751 29.596 364.943 29.86C365.135 30.1 365.387 30.22 365.699 30.22C366.179 30.22 366.743 29.932 367.391 29.356C368.063 28.756 368.951 27.796 370.055 26.476C370.343 26.14 370.667 25.972 371.027 25.972ZM370.941 34.18C370.029 34.18 369.381 33.7 368.997 32.74C368.637 31.78 368.457 30.244 368.457 28.132C368.457 25.012 368.901 22.048 369.789 19.24C370.005 18.544 370.353 18.04 370.833 17.728C371.337 17.392 372.033 17.224 372.921 17.224C373.401 17.224 373.737 17.284 373.929 17.404C374.121 17.524 374.217 17.752 374.217 18.088C374.217 18.472 374.037 19.336 373.677 20.68C373.437 21.64 373.245 22.48 373.101 23.2C372.957 23.896 372.837 24.772 372.741 25.828C373.389 23.956 374.157 22.372 375.045 21.076C375.957 19.78 376.881 18.82 377.817 18.196C378.777 17.548 379.677 17.224 380.517 17.224C381.357 17.224 381.945 17.416 382.281 17.8C382.641 18.184 382.821 18.772 382.821 19.564C382.821 20.332 382.593 21.724 382.137 23.74C381.945 24.604 381.813 25.252 381.741 25.684C382.941 22.732 384.273 20.584 385.737 19.24C387.201 17.896 388.569 17.224 389.841 17.224C391.401 17.224 392.181 18.004 392.181 19.564C392.181 20.5 391.917 22.192 391.389 24.64C390.933 26.728 390.705 28.108 390.705 28.78C390.705 29.74 391.053 30.22 391.749 30.22C392.229 30.22 392.793 29.932 393.441 29.356C394.113 28.756 395.001 27.796 396.105 26.476C396.393 26.14 396.717 25.972 397.077 25.972C397.389 25.972 397.629 26.116 397.797 26.404C397.989 26.692 398.085 27.088 398.085 27.592C398.085 28.552 397.857 29.296 397.401 29.824C396.369 31.096 395.253 32.14 394.053 32.956C392.877 33.772 391.533 34.18 390.021 34.18C388.797 34.18 387.873 33.832 387.249 33.136C386.625 32.416 386.313 31.384 386.313 30.04C386.313 29.368 386.481 28.168 386.817 26.44C387.129 24.928 387.285 23.884 387.285 23.308C387.285 22.924 387.153 22.732 386.889 22.732C386.577 22.732 386.133 23.14 385.557 23.956C384.981 24.748 384.405 25.804 383.829 27.124C383.253 28.444 382.785 29.836 382.425 31.3C382.161 32.452 381.849 33.22 381.489 33.604C381.153 33.988 380.601 34.18 379.833 34.18C379.041 34.18 378.441 33.808 378.033 33.064C377.649 32.296 377.457 31.372 377.457 30.292C377.457 29.38 377.577 28.06 377.817 26.332C378.009 24.796 378.105 23.788 378.105 23.308C378.105 22.924 377.973 22.732 377.709 22.732C377.349 22.732 376.893 23.164 376.341 24.028C375.789 24.892 375.249 25.996 374.721 27.34C374.217 28.684 373.809 30.004 373.497 31.3C373.233 32.428 372.921 33.196 372.561 33.604C372.225 33.988 371.685 34.18 370.941 34.18ZM421.634 25.972C421.946 25.972 422.186 26.116 422.354 26.404C422.546 26.692 422.642 27.088 422.642 27.592C422.642 28.552 422.414 29.296 421.958 29.824C419.582 32.728 417.362 34.18 415.298 34.18C413.738 34.18 412.598 33.628 411.878 32.524C411.182 31.42 410.834 29.956 410.834 28.132V27.592C409.514 29.584 408.05 31.18 406.442 32.38C404.858 33.58 403.19 34.18 401.438 34.18C399.35 34.18 397.682 33.556 396.434 32.308C395.21 31.06 394.598 29.452 394.598 27.484C394.598 26.044 394.706 24.676 394.922 23.38C395.138 22.084 395.474 20.704 395.93 19.24C396.146 18.544 396.494 18.04 396.974 17.728C397.478 17.392 398.198 17.224 399.134 17.224C400.214 17.224 400.754 17.512 400.754 18.088C400.754 18.328 400.574 19.192 400.214 20.68L399.962 21.76L399.458 23.92C400.106 23.272 400.874 22.744 401.762 22.336C402.674 21.904 403.598 21.688 404.534 21.688C405.638 21.688 406.55 22.024 407.27 22.696C407.99 23.344 408.398 24.268 408.494 25.468C409.43 24.34 410.198 23.284 410.798 22.3C411.398 21.292 411.914 20.248 412.346 19.168C412.562 18.448 412.838 17.944 413.174 17.656C413.534 17.368 414.11 17.224 414.902 17.224C416.126 17.224 416.738 17.632 416.738 18.448C416.738 19.048 416.51 20.44 416.054 22.624C415.478 25.264 415.19 27.052 415.19 27.988C415.19 28.708 415.286 29.26 415.478 29.644C415.67 30.028 415.994 30.22 416.45 30.22C416.882 30.22 417.422 29.92 418.07 29.32C418.718 28.72 419.582 27.772 420.662 26.476C420.95 26.14 421.274 25.972 421.634 25.972ZM404.786 27.376C404.786 26.104 404.102 25.468 402.734 25.468C401.918 25.468 401.198 25.696 400.574 26.152C399.974 26.608 399.494 27.136 399.134 27.736C399.23 28.624 399.482 29.284 399.89 29.716C400.298 30.148 400.922 30.364 401.762 30.364C402.722 30.364 403.466 30.1 403.994 29.572C404.522 29.044 404.786 28.312 404.786 27.376ZM428.484 25.576C428.052 25.576 427.704 25.456 427.44 25.216C427.176 24.952 427.056 24.532 427.08 23.956C427.176 22.444 427.536 21.1 428.16 19.924C428.784 18.748 429.828 17.428 431.292 15.964C432.66 14.62 433.644 13.48 434.244 12.544C434.844 11.608 435.144 10.636 435.144 9.628C435.144 7.972 434.22 7.144 432.372 7.144C431.268 7.144 430.428 7.396 429.852 7.9C429.276 8.38 428.988 8.992 428.988 9.736L429.024 11.212C429.024 11.62 428.868 11.98 428.556 12.292C428.268 12.58 427.8 12.724 427.152 12.724C426.408 12.724 425.832 12.508 425.424 12.076C425.04 11.62 424.848 10.984 424.848 10.168C424.848 8.968 425.136 7.876 425.712 6.892C426.312 5.884 427.212 5.08 428.412 4.48C429.612 3.88 431.088 3.58 432.84 3.58C435.216 3.58 437.052 4.096 438.348 5.128C439.668 6.136 440.328 7.6 440.328 9.52C440.328 11.032 439.944 12.4 439.176 13.624C438.408 14.848 437.256 16.12 435.72 17.44C434.424 18.544 433.44 19.444 432.768 20.14C432.096 20.836 431.604 21.448 431.292 21.976C431.004 22.48 430.764 23.068 430.572 23.74C430.404 24.364 430.128 24.832 429.744 25.144C429.384 25.432 428.964 25.576 428.484 25.576ZM427.116 34.18C426.06 34.18 425.256 33.892 424.704 33.316C424.176 32.74 423.912 31.984 423.912 31.048C423.912 29.968 424.212 29.104 424.812 28.456C425.436 27.808 426.3 27.484 427.404 27.484C428.46 27.484 429.252 27.748 429.78 28.276C430.332 28.78 430.608 29.536 430.608 30.544C430.608 31.648 430.296 32.536 429.672 33.208C429.048 33.856 428.196 34.18 427.116 34.18Z" fill="#040404" fill-opacity="0.8"/>
<path d="M20.4984 3.328C22.2024 3.328 22.9824 4.324 22.8384 6.316C22.6704 8.356 22.2264 12.076 21.5064 17.476C20.5224 24.94 19.9824 29.704 19.8864 31.768C19.8384 32.584 19.5984 33.196 19.1664 33.604C18.7344 33.988 18.0504 34.18 17.1144 34.18C15.6744 34.18 14.9544 33.484 14.9544 32.092C14.9544 31.204 15.0384 30.208 15.2064 29.104C15.3744 27.976 15.6384 26.464 15.9984 24.568C16.4304 22.24 16.7064 20.512 16.8264 19.384C15.8184 21.472 14.5824 23.032 13.1184 24.064C11.6544 25.072 9.91437 25.576 7.89837 25.576C5.45037 25.576 3.56637 24.976 2.24637 23.776C0.950371 22.576 0.302371 20.872 0.302371 18.664C0.302371 17.968 0.350371 17.284 0.446371 16.612C0.566371 15.916 0.746371 14.98 0.986371 13.804C1.29837 12.292 1.52637 10.912 1.67037 9.664C1.83837 8.416 1.91037 7.072 1.88637 5.632C1.86237 4.912 2.09037 4.348 2.57037 3.94C3.05037 3.532 3.73437 3.328 4.62237 3.328C6.08637 3.328 6.89037 4.096 7.03437 5.632C7.08237 6.304 7.10637 6.808 7.10637 7.144C7.10637 8.344 7.01037 9.496 6.81837 10.6C6.65037 11.68 6.41037 12.916 6.09837 14.308C5.93037 15.004 5.78637 15.688 5.66637 16.36C5.54637 17.008 5.48637 17.56 5.48637 18.016C5.48637 18.976 5.77437 19.72 6.35037 20.248C6.92637 20.752 7.75437 21.004 8.83437 21.004C10.4664 21.004 11.9304 20.416 13.2264 19.24C14.5464 18.04 15.6024 16.336 16.3944 14.128C17.2104 11.92 17.7144 9.34 17.9064 6.388C18.0504 4.348 18.9144 3.328 20.4984 3.328ZM27.6781 34.18C26.7661 34.18 26.1181 33.7 25.7341 32.74C25.3741 31.78 25.1941 30.244 25.1941 28.132C25.1941 25.012 25.6381 22.048 26.5261 19.24C26.7421 18.544 27.0901 18.04 27.5701 17.728C28.0741 17.392 28.7701 17.224 29.6581 17.224C30.1381 17.224 30.4741 17.284 30.6661 17.404C30.8581 17.524 30.9541 17.752 30.9541 18.088C30.9541 18.472 30.7741 19.336 30.4141 20.68C30.1741 21.64 29.9821 22.48 29.8381 23.2C29.6941 23.896 29.5741 24.772 29.4781 25.828C30.1261 23.956 30.8941 22.372 31.7821 21.076C32.6941 19.78 33.6181 18.82 34.5541 18.196C35.5141 17.548 36.4141 17.224 37.2541 17.224C38.0941 17.224 38.6821 17.416 39.0181 17.8C39.3781 18.184 39.5581 18.772 39.5581 19.564C39.5581 20.332 39.3301 21.724 38.8741 23.74C38.6821 24.604 38.5501 25.252 38.4781 25.684C39.6781 22.732 41.0101 20.584 42.4741 19.24C43.9381 17.896 45.3061 17.224 46.5781 17.224C48.1381 17.224 48.9181 18.004 48.9181 19.564C48.9181 20.5 48.6541 22.192 48.1261 24.64C47.6701 26.728 47.4421 28.108 47.4421 28.78C47.4421 29.74 47.7901 30.22 48.4861 30.22C48.9661 30.22 49.5301 29.932 50.1781 29.356C50.8501 28.756 51.7381 27.796 52.8421 26.476C53.1301 26.14 53.4541 25.972 53.8141 25.972C54.1261 25.972 54.3661 26.116 54.5341 26.404C54.7261 26.692 54.8221 27.088 54.8221 27.592C54.8221 28.552 54.5941 29.296 54.1381 29.824C53.1061 31.096 51.9901 32.14 50.7901 32.956C49.6141 33.772 48.2701 34.18 46.7581 34.18C45.5341 34.18 44.6101 33.832 43.9861 33.136C43.3621 32.416 43.0501 31.384 43.0501 30.04C43.0501 29.368 43.2181 28.168 43.5541 26.44C43.8661 24.928 44.0221 23.884 44.0221 23.308C44.0221 22.924 43.8901 22.732 43.6261 22.732C43.3141 22.732 42.8701 23.14 42.2941 23.956C41.7181 24.748 41.1421 25.804 40.5661 27.124C39.9901 28.444 39.5221 29.836 39.1621 31.3C38.8981 32.452 38.5861 33.22 38.2261 33.604C37.8901 33.988 37.3381 34.18 36.5701 34.18C35.7781 34.18 35.1781 33.808 34.7701 33.064C34.3861 32.296 34.1941 31.372 34.1941 30.292C34.1941 29.38 34.3141 28.06 34.5541 26.332C34.7461 24.796 34.8421 23.788 34.8421 23.308C34.8421 22.924 34.7101 22.732 34.4461 22.732C34.0861 22.732 33.6301 23.164 33.0781 24.028C32.5261 24.892 31.9861 25.996 31.4581 27.34C30.9541 28.684 30.5461 30.004 30.2341 31.3C29.9701 32.428 29.6581 33.196 29.2981 33.604C28.9621 33.988 28.4221 34.18 27.6781 34.18ZM69.5512 22.948C69.8632 22.948 70.1032 23.104 70.2712 23.416C70.4392 23.728 70.5232 24.124 70.5232 24.604C70.5232 25.756 70.1752 26.44 69.4792 26.656C68.0392 27.16 66.4552 27.448 64.7272 27.52C64.2712 29.536 63.3712 31.156 62.0272 32.38C60.6832 33.58 59.1592 34.18 57.4552 34.18C56.0152 34.18 54.7792 33.832 53.7472 33.136C52.7392 32.44 51.9712 31.516 51.4432 30.364C50.9152 29.212 50.6512 27.964 50.6512 26.62C50.6512 24.796 50.9992 23.176 51.6952 21.76C52.3912 20.32 53.3512 19.204 54.5752 18.412C55.7992 17.596 57.1552 17.188 58.6432 17.188C60.4672 17.188 61.9312 17.824 63.0352 19.096C64.1632 20.344 64.8232 21.892 65.0152 23.74C66.1432 23.668 67.4872 23.428 69.0472 23.02C69.2392 22.972 69.4072 22.948 69.5512 22.948ZM57.7432 30.364C58.5112 30.364 59.1712 30.052 59.7232 29.428C60.2992 28.804 60.6832 27.904 60.8752 26.728C60.1312 26.224 59.5552 25.564 59.1472 24.748C58.7632 23.932 58.5712 23.068 58.5712 22.156C58.5712 21.772 58.6072 21.388 58.6792 21.004H58.4992C57.5392 21.004 56.7352 21.472 56.0872 22.408C55.4632 23.32 55.1512 24.616 55.1512 26.296C55.1512 27.616 55.4032 28.624 55.9072 29.32C56.4352 30.016 57.0472 30.364 57.7432 30.364ZM81.6767 16.9C83.4767 16.9 84.8327 17.224 85.7447 17.872C86.6807 18.496 87.1487 19.408 87.1487 20.608C87.1487 21.64 86.9327 22.504 86.5007 23.2C86.0687 23.896 85.5527 24.448 84.9527 24.856C84.3527 25.264 83.5727 25.708 82.6127 26.188C81.5807 26.716 80.8247 27.172 80.3447 27.556C79.8647 27.94 79.6247 28.456 79.6247 29.104C79.6247 29.632 79.8167 30.004 80.2007 30.22C80.5847 30.436 81.2567 30.544 82.2167 30.544C83.6327 30.544 85.0367 30.196 86.4287 29.5C87.8447 28.78 89.0927 27.772 90.1727 26.476C90.4367 26.14 90.7607 25.972 91.1447 25.972C91.4567 25.972 91.6967 26.116 91.8647 26.404C92.0567 26.692 92.1527 27.088 92.1527 27.592C92.1527 28.48 91.9247 29.224 91.4687 29.824C90.3167 31.36 88.9127 32.536 87.2567 33.352C85.6007 34.144 83.7647 34.54 81.7487 34.54C79.6367 34.54 78.0047 34.18 76.8527 33.46C75.7007 32.716 75.1247 31.528 75.1247 29.896C75.1247 28.864 75.3407 27.988 75.7727 27.268C76.2287 26.524 76.7687 25.924 77.3927 25.468C78.0407 24.988 78.8447 24.496 79.8047 23.992C80.7887 23.464 81.5087 23.008 81.9647 22.624C82.4207 22.216 82.6487 21.736 82.6487 21.184C82.6487 20.872 82.5167 20.632 82.2527 20.464C81.9887 20.272 81.6047 20.176 81.1007 20.176C80.6447 20.176 80.2367 20.248 79.8767 20.392C79.5167 20.512 79.1207 20.692 78.6887 20.932C78.4487 21.052 78.1967 21.172 77.9327 21.292C77.6927 21.388 77.4647 21.436 77.2487 21.436C76.7927 21.436 76.4327 21.292 76.1687 21.004C75.9287 20.692 75.8087 20.296 75.8087 19.816C75.8087 19.168 76.1087 18.616 76.7087 18.16C77.1887 17.8 77.8967 17.5 78.8327 17.26C79.7687 17.02 80.7167 16.9 81.6767 16.9ZM106.836 22.948C107.148 22.948 107.388 23.104 107.556 23.416C107.724 23.728 107.808 24.124 107.808 24.604C107.808 25.756 107.46 26.44 106.764 26.656C105.324 27.16 103.74 27.448 102.012 27.52C101.556 29.536 100.656 31.156 99.3125 32.38C97.9685 33.58 96.4445 34.18 94.7405 34.18C93.3005 34.18 92.0645 33.832 91.0325 33.136C90.0245 32.44 89.2565 31.516 88.7285 30.364C88.2005 29.212 87.9365 27.964 87.9365 26.62C87.9365 24.796 88.2845 23.176 88.9805 21.76C89.6765 20.32 90.6365 19.204 91.8605 18.412C93.0845 17.596 94.4405 17.188 95.9285 17.188C97.7525 17.188 99.2165 17.824 100.32 19.096C101.448 20.344 102.108 21.892 102.3 23.74C103.428 23.668 104.772 23.428 106.332 23.02C106.524 22.972 106.692 22.948 106.836 22.948ZM95.0285 30.364C95.7965 30.364 96.4565 30.052 97.0085 29.428C97.5845 28.804 97.9685 27.904 98.1605 26.728C97.4165 26.224 96.8405 25.564 96.4325 24.748C96.0485 23.932 95.8565 23.068 95.8565 22.156C95.8565 21.772 95.8925 21.388 95.9645 21.004H95.7845C94.8245 21.004 94.0205 21.472 93.3725 22.408C92.7485 23.32 92.4365 24.616 92.4365 26.296C92.4365 27.616 92.6885 28.624 93.1925 29.32C93.7205 30.016 94.3325 30.364 95.0285 30.364ZM123.151 22.948C123.463 22.948 123.703 23.104 123.871 23.416C124.039 23.728 124.123 24.124 124.123 24.604C124.123 25.204 124.039 25.672 123.871 26.008C123.703 26.32 123.439 26.536 123.079 26.656C121.639 27.16 120.055 27.448 118.327 27.52C117.847 29.512 116.935 31.12 115.591 32.344C114.271 33.568 112.807 34.18 111.199 34.18C108.775 34.18 107.011 33.256 105.907 31.408C104.803 29.56 104.251 26.884 104.251 23.38C104.251 20.284 104.635 16.924 105.403 13.3C106.171 9.652 107.287 6.556 108.751 4.012C110.239 1.444 112.003 0.159998 114.043 0.159998C115.147 0.159998 116.035 0.639998 116.707 1.6C117.379 2.536 117.715 3.76 117.715 5.272C117.715 7.24 117.343 9.196 116.599 11.14C115.855 13.084 114.619 15.124 112.891 17.26C114.499 17.38 115.807 18.052 116.815 19.276C117.823 20.476 118.423 21.964 118.615 23.74C119.743 23.668 121.087 23.428 122.647 23.02C122.791 22.972 122.959 22.948 123.151 22.948ZM113.215 3.724C112.735 3.724 112.207 4.444 111.631 5.884C111.079 7.3 110.563 9.232 110.083 11.68C109.603 14.128 109.243 16.804 109.003 19.708C110.587 16.804 111.847 14.248 112.783 12.04C113.743 9.808 114.223 7.828 114.223 6.1C114.223 5.332 114.127 4.744 113.935 4.336C113.767 3.928 113.527 3.724 113.215 3.724ZM111.343 30.364C112.087 30.364 112.747 30.052 113.323 29.428C113.899 28.804 114.283 27.904 114.475 26.728C113.731 26.224 113.155 25.564 112.747 24.748C112.363 23.932 112.171 23.068 112.171 22.156C112.171 21.82 112.219 21.364 112.315 20.788H112.207C111.223 20.788 110.395 21.28 109.723 22.264C109.075 23.224 108.751 24.52 108.751 26.152C108.751 27.52 109.003 28.564 109.507 29.284C110.035 30.004 110.647 30.364 111.343 30.364ZM138.654 22.948C138.966 22.948 139.206 23.104 139.374 23.416C139.542 23.728 139.626 24.124 139.626 24.604C139.626 25.756 139.278 26.44 138.582 26.656C137.142 27.16 135.558 27.448 133.83 27.52C133.374 29.536 132.474 31.156 131.13 32.38C129.786 33.58 128.262 34.18 126.558 34.18C125.118 34.18 123.882 33.832 122.85 33.136C121.842 32.44 121.074 31.516 120.546 30.364C120.018 29.212 119.754 27.964 119.754 26.62C119.754 24.796 120.102 23.176 120.798 21.76C121.494 20.32 122.454 19.204 123.678 18.412C124.902 17.596 126.258 17.188 127.746 17.188C129.57 17.188 131.034 17.824 132.138 19.096C133.266 20.344 133.926 21.892 134.118 23.74C135.246 23.668 136.59 23.428 138.15 23.02C138.342 22.972 138.51 22.948 138.654 22.948ZM126.846 30.364C127.614 30.364 128.274 30.052 128.826 29.428C129.402 28.804 129.786 27.904 129.978 26.728C129.234 26.224 128.658 25.564 128.25 24.748C127.866 23.932 127.674 23.068 127.674 22.156C127.674 21.772 127.71 21.388 127.782 21.004H127.602C126.642 21.004 125.838 21.472 125.19 22.408C124.566 23.32 124.254 24.616 124.254 26.296C124.254 27.616 124.506 28.624 125.01 29.32C125.538 30.016 126.15 30.364 126.846 30.364ZM155.041 25.972C155.353 25.972 155.593 26.116 155.761 26.404C155.953 26.692 156.049 27.088 156.049 27.592C156.049 28.552 155.821 29.296 155.365 29.824C154.333 31.096 153.217 32.14 152.017 32.956C150.841 33.772 149.497 34.18 147.985 34.18C146.713 34.18 145.681 33.724 144.889 32.812C143.521 33.7 142.093 34.156 140.605 34.18C140.293 38.812 139.585 42.676 138.481 45.772C137.377 48.892 135.757 50.452 133.621 50.452C132.325 50.452 131.365 49.984 130.741 49.048C130.117 48.112 129.805 46.816 129.805 45.16C129.805 42.808 130.345 40.06 131.425 36.916C132.505 33.796 134.173 30.352 136.429 26.584C136.429 23.08 136.405 20.644 136.357 19.276C136.333 18.58 136.609 18.028 137.185 17.62C137.761 17.212 138.481 17.008 139.345 17.008C139.849 17.008 140.209 17.116 140.425 17.332C140.665 17.524 140.797 17.92 140.821 18.52C140.821 19.12 140.833 19.564 140.857 19.852C141.625 18.892 142.381 18.208 143.125 17.8C143.869 17.368 144.661 17.152 145.501 17.152C146.845 17.152 147.937 17.692 148.777 18.772C149.641 19.852 150.073 21.268 150.073 23.02C150.073 24.292 149.869 25.528 149.461 26.728C149.053 27.928 148.489 29.02 147.769 30.004C148.273 30.148 148.693 30.22 149.029 30.22C149.821 30.22 150.577 29.932 151.297 29.356C152.017 28.78 152.941 27.82 154.069 26.476C154.357 26.14 154.681 25.972 155.041 25.972ZM140.785 30.724C141.649 30.532 142.441 30.064 143.161 29.32C143.905 28.552 144.493 27.616 144.925 26.512C145.357 25.384 145.573 24.208 145.573 22.984C145.573 22.264 145.429 21.724 145.141 21.364C144.853 20.98 144.469 20.788 143.989 20.788C143.125 20.788 142.081 21.7 140.857 23.524C140.833 24.58 140.821 26.128 140.821 28.168C140.821 29.272 140.809 30.124 140.785 30.724ZM133.909 46.924C134.557 46.924 135.097 45.508 135.529 42.676C135.961 39.868 136.237 36.364 136.357 32.164C135.325 34.564 134.509 36.856 133.909 39.04C133.309 41.224 133.009 43.06 133.009 44.548C133.009 45.316 133.105 45.904 133.297 46.312C133.465 46.72 133.669 46.924 133.909 46.924ZM173.885 25.972C174.197 25.972 174.437 26.116 174.605 26.404C174.797 26.692 174.893 27.088 174.893 27.592C174.893 28.552 174.665 29.296 174.209 29.824C172.961 31.288 171.761 32.38 170.609 33.1C169.457 33.82 168.317 34.18 167.189 34.18C166.205 34.18 165.449 33.832 164.921 33.136C164.393 32.44 164.129 31.444 164.129 30.148C164.129 29.452 164.201 28.696 164.345 27.88H164.273C162.041 32.08 159.197 34.18 155.741 34.18C154.253 34.18 153.041 33.748 152.105 32.884C151.193 32.02 150.737 30.88 150.737 29.464C150.737 28.216 151.013 27.232 151.565 26.512C152.141 25.792 152.921 25.432 153.905 25.432C154.769 25.432 155.201 25.78 155.201 26.476C155.201 26.572 155.177 26.74 155.129 26.98C155.081 27.364 155.057 27.652 155.057 27.844C155.057 28.612 155.225 29.248 155.561 29.752C155.897 30.256 156.353 30.508 156.929 30.508C157.673 30.508 158.429 30.28 159.197 29.824C159.965 29.344 160.721 28.672 161.465 27.808H160.997C159.557 27.808 158.405 27.352 157.541 26.44C156.701 25.528 156.281 24.304 156.281 22.768C156.281 20.992 156.797 19.624 157.829 18.664C158.861 17.68 160.301 17.188 162.149 17.188C163.445 17.188 164.777 17.392 166.145 17.8C166.409 17.44 166.961 17.26 167.801 17.26C168.281 17.26 168.653 17.38 168.917 17.62C169.205 17.836 169.325 18.136 169.277 18.52C169.229 19.12 169.013 20.188 168.629 21.724C168.269 23.26 167.993 24.58 167.801 25.684C167.609 26.788 167.513 27.82 167.513 28.78C167.513 29.236 167.597 29.596 167.765 29.86C167.957 30.1 168.221 30.22 168.557 30.22C169.013 30.22 169.565 29.944 170.213 29.392C170.861 28.84 171.761 27.868 172.913 26.476C173.177 26.14 173.501 25.972 173.885 25.972ZM163.373 25.036C164.189 23.62 164.837 22.108 165.317 20.5C164.453 20.236 163.685 20.104 163.013 20.104C162.053 20.104 161.309 20.332 160.781 20.788C160.253 21.244 159.989 21.892 159.989 22.732C159.989 23.404 160.205 23.968 160.637 24.424C161.093 24.88 161.657 25.108 162.329 25.108C162.641 25.108 162.989 25.084 163.373 25.036ZM173.811 34.18C172.899 34.18 172.251 33.7 171.867 32.74C171.507 31.78 171.327 30.244 171.327 28.132C171.327 25.012 171.771 22.048 172.659 19.24C172.875 18.544 173.223 18.04 173.703 17.728C174.207 17.392 174.903 17.224 175.791 17.224C176.271 17.224 176.607 17.284 176.799 17.404C176.991 17.524 177.087 17.752 177.087 18.088C177.087 18.472 176.907 19.336 176.547 20.68C176.307 21.64 176.115 22.48 175.971 23.2C175.827 23.896 175.707 24.772 175.611 25.828C176.259 23.956 177.027 22.372 177.915 21.076C178.827 19.78 179.751 18.82 180.687 18.196C181.647 17.548 182.547 17.224 183.387 17.224C184.227 17.224 184.815 17.416 185.151 17.8C185.511 18.184 185.691 18.772 185.691 19.564C185.691 20.332 185.463 21.724 185.007 23.74C184.815 24.604 184.683 25.252 184.611 25.684C185.811 22.732 187.143 20.584 188.607 19.24C190.071 17.896 191.439 17.224 192.711 17.224C194.271 17.224 195.051 18.004 195.051 19.564C195.051 20.5 194.787 22.192 194.259 24.64C193.803 26.728 193.575 28.108 193.575 28.78C193.575 29.74 193.923 30.22 194.619 30.22C195.099 30.22 195.663 29.932 196.311 29.356C196.983 28.756 197.871 27.796 198.975 26.476C199.263 26.14 199.587 25.972 199.947 25.972C200.259 25.972 200.499 26.116 200.667 26.404C200.859 26.692 200.955 27.088 200.955 27.592C200.955 28.552 200.727 29.296 200.271 29.824C199.239 31.096 198.123 32.14 196.923 32.956C195.747 33.772 194.403 34.18 192.891 34.18C191.667 34.18 190.743 33.832 190.119 33.136C189.495 32.416 189.183 31.384 189.183 30.04C189.183 29.368 189.351 28.168 189.687 26.44C189.999 24.928 190.155 23.884 190.155 23.308C190.155 22.924 190.023 22.732 189.759 22.732C189.447 22.732 189.003 23.14 188.427 23.956C187.851 24.748 187.275 25.804 186.699 27.124C186.123 28.444 185.655 29.836 185.295 31.3C185.031 32.452 184.719 33.22 184.359 33.604C184.023 33.988 183.471 34.18 182.703 34.18C181.911 34.18 181.311 33.808 180.903 33.064C180.519 32.296 180.327 31.372 180.327 30.292C180.327 29.38 180.447 28.06 180.687 26.332C180.879 24.796 180.975 23.788 180.975 23.308C180.975 22.924 180.843 22.732 180.579 22.732C180.219 22.732 179.763 23.164 179.211 24.028C178.659 24.892 178.119 25.996 177.591 27.34C177.087 28.684 176.679 30.004 176.367 31.3C176.103 32.428 175.791 33.196 175.431 33.604C175.095 33.988 174.555 34.18 173.811 34.18ZM225.14 25.972C225.452 25.972 225.692 26.116 225.86 26.404C226.052 26.692 226.148 27.088 226.148 27.592C226.148 28.552 225.92 29.296 225.464 29.824C224.36 31.096 223.22 32.14 222.044 32.956C220.892 33.772 219.572 34.18 218.084 34.18C216.836 34.18 215.96 33.796 215.456 33.028C214.952 32.26 214.7 31.108 214.7 29.572C214.7 28.924 214.76 28.144 214.88 27.232C212.768 27.232 211.304 27.208 210.488 27.16C210.44 27.832 210.416 28.3 210.416 28.564V29.32C210.392 30.808 210.356 31.852 210.308 32.452C210.26 33.052 210.116 33.496 209.876 33.784C209.636 34.048 209.24 34.18 208.688 34.18C207.776 34.18 207.128 33.7 206.744 32.74C206.384 31.78 206.204 30.244 206.204 28.132C206.204 25.012 206.648 22.048 207.536 19.24C207.752 18.544 208.1 18.04 208.58 17.728C209.06 17.392 209.756 17.224 210.668 17.224C211.148 17.224 211.484 17.284 211.676 17.404C211.868 17.524 211.964 17.752 211.964 18.088C211.964 18.472 211.784 19.336 211.424 20.68C211.232 21.472 211.052 22.432 210.884 23.56H215.492C215.732 22.432 216.08 20.992 216.536 19.24C216.728 18.52 217.016 18.004 217.4 17.692C217.808 17.38 218.408 17.224 219.2 17.224C219.752 17.224 220.136 17.296 220.352 17.44C220.568 17.56 220.676 17.8 220.676 18.16C220.676 18.76 220.376 20.404 219.776 23.092C219.104 26.164 218.768 28.06 218.768 28.78C218.768 29.236 218.864 29.596 219.056 29.86C219.248 30.1 219.5 30.22 219.812 30.22C220.292 30.22 220.856 29.932 221.504 29.356C222.176 28.756 223.064 27.796 224.168 26.476C224.456 26.14 224.78 25.972 225.14 25.972ZM226.926 34.18C225.438 34.18 224.25 33.64 223.362 32.56C222.474 31.48 222.03 30.064 222.03 28.312C222.03 26.392 222.474 24.58 223.362 22.876C224.25 21.148 225.426 19.768 226.89 18.736C228.378 17.68 229.95 17.152 231.606 17.152C232.134 17.152 232.482 17.26 232.65 17.476C232.842 17.668 232.998 18.028 233.118 18.556C233.622 18.46 234.15 18.412 234.702 18.412C235.878 18.412 236.466 18.832 236.466 19.672C236.466 20.176 236.286 21.376 235.926 23.272C235.374 26.032 235.098 27.952 235.098 29.032C235.098 29.392 235.182 29.68 235.35 29.896C235.542 30.112 235.782 30.22 236.07 30.22C236.526 30.22 237.078 29.932 237.726 29.356C238.374 28.756 239.25 27.796 240.354 26.476C240.642 26.14 240.966 25.972 241.326 25.972C241.638 25.972 241.878 26.116 242.046 26.404C242.238 26.692 242.334 27.088 242.334 27.592C242.334 28.552 242.106 29.296 241.65 29.824C240.666 31.048 239.622 32.08 238.518 32.92C237.414 33.76 236.346 34.18 235.314 34.18C234.522 34.18 233.79 33.916 233.118 33.388C232.47 32.836 231.978 32.092 231.642 31.156C230.394 33.172 228.822 34.18 226.926 34.18ZM228.222 30.544C228.75 30.544 229.254 30.232 229.734 29.608C230.214 28.984 230.562 28.156 230.778 27.124L232.11 20.5C231.102 20.524 230.166 20.908 229.302 21.652C228.462 22.372 227.79 23.332 227.286 24.532C226.782 25.732 226.53 27.004 226.53 28.348C226.53 29.092 226.674 29.644 226.962 30.004C227.274 30.364 227.694 30.544 228.222 30.544ZM265.544 25.972C265.856 25.972 266.096 26.116 266.264 26.404C266.456 26.692 266.552 27.088 266.552 27.592C266.552 28.552 266.324 29.296 265.868 29.824C264.764 31.096 263.624 32.14 262.448 32.956C261.296 33.772 259.976 34.18 258.488 34.18C257.336 34.18 256.484 33.736 255.932 32.848C255.38 31.936 255.116 30.688 255.14 29.104C254.732 30.736 254.12 31.996 253.304 32.884C252.488 33.748 251.612 34.18 250.676 34.18C248.492 34.18 247.4 32.884 247.4 30.292C247.4 29.836 247.436 29.356 247.508 28.852C246.788 30.58 246.02 31.9 245.204 32.812C244.388 33.724 243.44 34.18 242.36 34.18C241.28 34.18 240.392 33.688 239.696 32.704C239.024 31.696 238.688 30.448 238.688 28.96C238.688 27.16 238.808 25.516 239.048 24.028C239.288 22.516 239.684 20.92 240.236 19.24C240.476 18.52 240.812 18.004 241.244 17.692C241.676 17.38 242.36 17.224 243.296 17.224C243.824 17.224 244.184 17.308 244.376 17.476C244.592 17.644 244.7 17.896 244.7 18.232C244.7 18.424 244.568 19.072 244.304 20.176C244.064 21.064 243.872 21.868 243.728 22.588C243.248 25.108 243.008 26.788 243.008 27.628C243.008 28.132 243.068 28.492 243.188 28.708C243.308 28.9 243.5 28.996 243.764 28.996C244.556 28.996 245.324 28.108 246.068 26.332C246.836 24.532 247.664 22.168 248.552 19.24C248.768 18.52 249.02 18.04 249.308 17.8C249.596 17.536 250.124 17.404 250.892 17.404C251.516 17.404 251.948 17.512 252.188 17.728C252.428 17.92 252.548 18.268 252.548 18.772C252.548 19.252 252.38 20.416 252.044 22.264C251.564 25.048 251.324 26.836 251.324 27.628C251.324 28.132 251.384 28.492 251.504 28.708C251.624 28.9 251.816 28.996 252.08 28.996C252.44 28.996 252.884 28.636 253.412 27.916C253.964 27.196 254.54 26.104 255.14 24.64C255.764 23.176 256.364 21.376 256.94 19.24C257.132 18.52 257.42 18.004 257.804 17.692C258.212 17.38 258.812 17.224 259.604 17.224C260.156 17.224 260.54 17.296 260.756 17.44C260.972 17.56 261.08 17.8 261.08 18.16C261.08 18.76 260.78 20.404 260.18 23.092C259.508 26.164 259.172 28.06 259.172 28.78C259.172 29.236 259.268 29.596 259.46 29.86C259.652 30.1 259.904 30.22 260.216 30.22C260.696 30.22 261.26 29.932 261.908 29.356C262.58 28.756 263.468 27.796 264.572 26.476C264.86 26.14 265.184 25.972 265.544 25.972ZM266.601 34.18C265.521 34.18 264.633 33.688 263.937 32.704C263.265 31.696 262.929 30.448 262.929 28.96C262.929 27.16 263.049 25.516 263.289 24.028C263.529 22.516 263.925 20.92 264.477 19.24C264.717 18.52 265.053 18.004 265.485 17.692C265.917 17.38 266.601 17.224 267.537 17.224C268.065 17.224 268.425 17.308 268.617 17.476C268.833 17.644 268.941 17.896 268.941 18.232C268.941 18.424 268.809 19.072 268.545 20.176C268.305 21.064 268.113 21.868 267.969 22.588C267.489 25.108 267.249 26.788 267.249 27.628C267.249 28.132 267.309 28.492 267.429 28.708C267.549 28.9 267.741 28.996 268.005 28.996C268.365 28.996 268.809 28.636 269.337 27.916C269.889 27.196 270.465 26.104 271.065 24.64C271.689 23.176 272.289 21.376 272.865 19.24C273.057 18.52 273.345 18.004 273.729 17.692C274.137 17.38 274.737 17.224 275.529 17.224C276.081 17.224 276.465 17.296 276.681 17.44C276.897 17.56 277.005 17.8 277.005 18.16C277.005 18.76 276.705 20.404 276.105 23.092C275.433 26.164 275.097 28.06 275.097 28.78C275.097 29.236 275.193 29.596 275.385 29.86C275.577 30.1 275.829 30.22 276.141 30.22C276.621 30.22 277.185 29.932 277.833 29.356C278.505 28.756 279.393 27.796 280.497 26.476C280.785 26.14 281.109 25.972 281.469 25.972C281.781 25.972 282.021 26.116 282.189 26.404C282.381 26.692 282.477 27.088 282.477 27.592C282.477 28.552 282.249 29.296 281.793 29.824C280.761 31.096 279.645 32.14 278.445 32.956C277.269 33.772 275.925 34.18 274.413 34.18C273.261 34.18 272.409 33.736 271.857 32.848C271.329 31.96 271.065 30.712 271.065 29.104C270.657 30.736 270.045 31.996 269.229 32.884C268.413 33.748 267.537 34.18 266.601 34.18ZM290.201 34.18C289.289 34.18 288.641 33.7 288.257 32.74C287.897 31.78 287.717 30.244 287.717 28.132C287.717 25.012 288.161 22.048 289.049 19.24C289.265 18.544 289.613 18.04 290.093 17.728C290.597 17.392 291.293 17.224 292.181 17.224C292.661 17.224 292.997 17.284 293.189 17.404C293.381 17.524 293.477 17.752 293.477 18.088C293.477 18.472 293.297 19.336 292.937 20.68C292.889 20.848 292.781 21.232 292.613 21.832C292.469 22.432 292.325 23.14 292.181 23.956C292.061 24.748 291.977 25.624 291.929 26.584C292.793 23.224 293.885 20.824 295.205 19.384C296.525 17.944 298.121 17.224 299.993 17.224C301.241 17.224 302.213 17.62 302.909 18.412C303.629 19.18 303.989 20.176 303.989 21.4C303.989 22.408 303.761 23.26 303.305 23.956C302.873 24.652 302.297 25 301.577 25C301.121 25 300.749 24.892 300.461 24.676C300.197 24.46 300.065 24.16 300.065 23.776C300.065 23.608 300.089 23.416 300.137 23.2C300.185 22.984 300.221 22.828 300.245 22.732C300.365 22.372 300.425 22.036 300.425 21.724C300.425 21.076 300.113 20.752 299.489 20.752C299.009 20.752 298.541 21.004 298.085 21.508C297.629 21.988 297.257 22.648 296.969 23.488C296.705 24.304 296.573 25.192 296.573 26.152C296.573 27.448 296.873 28.492 297.473 29.284C298.073 30.052 298.937 30.436 300.065 30.436C300.953 30.436 301.745 30.148 302.441 29.572C303.137 28.972 304.097 27.94 305.321 26.476C305.609 26.14 305.933 25.972 306.293 25.972C306.605 25.972 306.845 26.116 307.013 26.404C307.205 26.692 307.301 27.088 307.301 27.592C307.301 28.552 307.073 29.296 306.617 29.824C305.537 31.12 304.457 32.176 303.377 32.992C302.297 33.784 301.073 34.18 299.705 34.18C298.577 34.18 297.545 33.94 296.609 33.46C295.697 32.956 294.953 32.356 294.377 31.66C293.801 30.964 293.429 30.292 293.261 29.644C293.213 29.836 293.033 30.508 292.721 31.66C292.457 32.62 292.145 33.28 291.785 33.64C291.449 34 290.921 34.18 290.201 34.18ZM324.899 25.972C325.211 25.972 325.451 26.116 325.619 26.404C325.811 26.692 325.907 27.088 325.907 27.592C325.907 28.552 325.679 29.296 325.223 29.824C324.431 30.76 323.735 31.516 323.135 32.092C322.559 32.644 321.839 33.136 320.975 33.568C320.135 33.976 319.175 34.18 318.095 34.18C316.679 34.18 315.671 33.628 315.071 32.524C314.471 31.396 314.171 29.704 314.171 27.448C314.171 26.32 314.219 25.228 314.315 24.172H314.243C313.283 27.364 312.095 29.824 310.679 31.552C309.287 33.28 307.691 34.144 305.891 34.144C304.667 34.144 303.707 33.7 303.011 32.812C302.315 31.924 301.967 30.808 301.967 29.464C301.967 28.264 302.243 27.292 302.795 26.548C303.347 25.804 304.127 25.432 305.135 25.432C305.591 25.432 305.927 25.528 306.143 25.72C306.383 25.912 306.479 26.176 306.431 26.512C306.239 27.664 306.143 28.456 306.143 28.888C306.143 29.752 306.359 30.184 306.791 30.184C307.031 30.184 307.295 30.004 307.583 29.644C307.895 29.284 308.411 28.408 309.131 27.016C309.683 25.96 310.247 24.772 310.823 23.452C311.423 22.132 311.915 20.956 312.299 19.924C312.683 18.916 313.127 18.232 313.631 17.872C314.135 17.488 314.855 17.296 315.791 17.296C316.703 17.296 317.375 17.476 317.807 17.836C318.239 18.196 318.455 18.784 318.455 19.6L318.383 22.264C318.287 24.28 318.239 25.732 318.239 26.62C318.239 29.14 318.755 30.4 319.787 30.4C320.219 30.4 320.639 30.196 321.047 29.788C321.479 29.38 322.139 28.636 323.027 27.556L323.927 26.476C324.215 26.14 324.539 25.972 324.899 25.972ZM326.369 34.18C325.289 34.18 324.401 33.688 323.705 32.704C323.033 31.696 322.697 30.448 322.697 28.96C322.697 27.16 322.817 25.516 323.057 24.028C323.297 22.516 323.693 20.92 324.245 19.24C324.485 18.52 324.821 18.004 325.253 17.692C325.685 17.38 326.369 17.224 327.305 17.224C327.833 17.224 328.193 17.308 328.385 17.476C328.601 17.644 328.709 17.896 328.709 18.232C328.709 18.424 328.577 19.072 328.313 20.176C328.073 21.064 327.881 21.868 327.737 22.588C327.257 25.108 327.017 26.788 327.017 27.628C327.017 28.132 327.077 28.492 327.197 28.708C327.317 28.9 327.509 28.996 327.773 28.996C328.133 28.996 328.577 28.636 329.105 27.916C329.657 27.196 330.233 26.104 330.833 24.64C331.457 23.176 332.057 21.376 332.633 19.24C332.825 18.52 333.113 18.004 333.497 17.692C333.905 17.38 334.505 17.224 335.297 17.224C335.849 17.224 336.233 17.296 336.449 17.44C336.665 17.56 336.773 17.8 336.773 18.16C336.773 18.76 336.473 20.404 335.873 23.092C335.201 26.164 334.865 28.06 334.865 28.78C334.865 29.236 334.961 29.596 335.153 29.86C335.345 30.1 335.597 30.22 335.909 30.22C336.389 30.22 336.953 29.932 337.601 29.356C338.273 28.756 339.161 27.796 340.265 26.476C340.553 26.14 340.877 25.972 341.237 25.972C341.549 25.972 341.789 26.116 341.957 26.404C342.149 26.692 342.245 27.088 342.245 27.592C342.245 28.552 342.017 29.296 341.561 29.824C340.529 31.096 339.413 32.14 338.213 32.956C337.037 33.772 335.693 34.18 334.181 34.18C333.029 34.18 332.177 33.736 331.625 32.848C331.097 31.96 330.833 30.712 330.833 29.104C330.425 30.736 329.813 31.996 328.997 32.884C328.181 33.748 327.305 34.18 326.369 34.18ZM354.662 25.972C354.974 25.972 355.214 26.116 355.382 26.404C355.574 26.692 355.67 27.088 355.67 27.592C355.67 28.552 355.442 29.296 354.986 29.824C354.098 30.904 352.838 31.9 351.206 32.812C349.598 33.724 347.87 34.18 346.022 34.18C343.502 34.18 341.546 33.496 340.154 32.128C338.762 30.76 338.066 28.888 338.066 26.512C338.066 24.856 338.414 23.32 339.11 21.904C339.806 20.464 340.766 19.324 341.99 18.484C343.238 17.644 344.642 17.224 346.202 17.224C347.594 17.224 348.71 17.644 349.55 18.484C350.39 19.3 350.81 20.416 350.81 21.832C350.81 23.488 350.21 24.916 349.01 26.116C347.834 27.292 345.83 28.228 342.998 28.924C343.598 30.028 344.738 30.58 346.418 30.58C347.498 30.58 348.722 30.208 350.09 29.464C351.482 28.696 352.682 27.7 353.69 26.476C353.978 26.14 354.302 25.972 354.662 25.972ZM345.59 20.752C344.702 20.752 343.946 21.268 343.322 22.3C342.722 23.332 342.422 24.58 342.422 26.044V26.116C343.838 25.78 344.954 25.276 345.77 24.604C346.586 23.932 346.994 23.152 346.994 22.264C346.994 21.808 346.862 21.448 346.598 21.184C346.358 20.896 346.022 20.752 345.59 20.752ZM371.027 25.972C371.339 25.972 371.579 26.116 371.747 26.404C371.939 26.692 372.035 27.088 372.035 27.592C372.035 28.552 371.807 29.296 371.351 29.824C370.247 31.096 369.107 32.14 367.931 32.956C366.779 33.772 365.459 34.18 363.971 34.18C362.723 34.18 361.847 33.796 361.343 33.028C360.839 32.26 360.587 31.108 360.587 29.572C360.587 28.924 360.647 28.144 360.767 27.232C358.655 27.232 357.191 27.208 356.375 27.16C356.327 27.832 356.303 28.3 356.303 28.564V29.32C356.279 30.808 356.243 31.852 356.195 32.452C356.147 33.052 356.003 33.496 355.763 33.784C355.523 34.048 355.127 34.18 354.575 34.18C353.663 34.18 353.015 33.7 352.631 32.74C352.271 31.78 352.091 30.244 352.091 28.132C352.091 25.012 352.535 22.048 353.423 19.24C353.639 18.544 353.987 18.04 354.467 17.728C354.947 17.392 355.643 17.224 356.555 17.224C357.035 17.224 357.371 17.284 357.563 17.404C357.755 17.524 357.851 17.752 357.851 18.088C357.851 18.472 357.671 19.336 357.311 20.68C357.119 21.472 356.939 22.432 356.771 23.56H361.379C361.619 22.432 361.967 20.992 362.423 19.24C362.615 18.52 362.903 18.004 363.287 17.692C363.695 17.38 364.295 17.224 365.087 17.224C365.639 17.224 366.023 17.296 366.239 17.44C366.455 17.56 366.563 17.8 366.563 18.16C366.563 18.76 366.263 20.404 365.663 23.092C364.991 26.164 364.655 28.06 364.655 28.78C364.655 29.236 364.751 29.596 364.943 29.86C365.135 30.1 365.387 30.22 365.699 30.22C366.179 30.22 366.743 29.932 367.391 29.356C368.063 28.756 368.951 27.796 370.055 26.476C370.343 26.14 370.667 25.972 371.027 25.972ZM370.941 34.18C370.029 34.18 369.381 33.7 368.997 32.74C368.637 31.78 368.457 30.244 368.457 28.132C368.457 25.012 368.901 22.048 369.789 19.24C370.005 18.544 370.353 18.04 370.833 17.728C371.337 17.392 372.033 17.224 372.921 17.224C373.401 17.224 373.737 17.284 373.929 17.404C374.121 17.524 374.217 17.752 374.217 18.088C374.217 18.472 374.037 19.336 373.677 20.68C373.437 21.64 373.245 22.48 373.101 23.2C372.957 23.896 372.837 24.772 372.741 25.828C373.389 23.956 374.157 22.372 375.045 21.076C375.957 19.78 376.881 18.82 377.817 18.196C378.777 17.548 379.677 17.224 380.517 17.224C381.357 17.224 381.945 17.416 382.281 17.8C382.641 18.184 382.821 18.772 382.821 19.564C382.821 20.332 382.593 21.724 382.137 23.74C381.945 24.604 381.813 25.252 381.741 25.684C382.941 22.732 384.273 20.584 385.737 19.24C387.201 17.896 388.569 17.224 389.841 17.224C391.401 17.224 392.181 18.004 392.181 19.564C392.181 20.5 391.917 22.192 391.389 24.64C390.933 26.728 390.705 28.108 390.705 28.78C390.705 29.74 391.053 30.22 391.749 30.22C392.229 30.22 392.793 29.932 393.441 29.356C394.113 28.756 395.001 27.796 396.105 26.476C396.393 26.14 396.717 25.972 397.077 25.972C397.389 25.972 397.629 26.116 397.797 26.404C397.989 26.692 398.085 27.088 398.085 27.592C398.085 28.552 397.857 29.296 397.401 29.824C396.369 31.096 395.253 32.14 394.053 32.956C392.877 33.772 391.533 34.18 390.021 34.18C388.797 34.18 387.873 33.832 387.249 33.136C386.625 32.416 386.313 31.384 386.313 30.04C386.313 29.368 386.481 28.168 386.817 26.44C387.129 24.928 387.285 23.884 387.285 23.308C387.285 22.924 387.153 22.732 386.889 22.732C386.577 22.732 386.133 23.14 385.557 23.956C384.981 24.748 384.405 25.804 383.829 27.124C383.253 28.444 382.785 29.836 382.425 31.3C382.161 32.452 381.849 33.22 381.489 33.604C381.153 33.988 380.601 34.18 379.833 34.18C379.041 34.18 378.441 33.808 378.033 33.064C377.649 32.296 377.457 31.372 377.457 30.292C377.457 29.38 377.577 28.06 377.817 26.332C378.009 24.796 378.105 23.788 378.105 23.308C378.105 22.924 377.973 22.732 377.709 22.732C377.349 22.732 376.893 23.164 376.341 24.028C375.789 24.892 375.249 25.996 374.721 27.34C374.217 28.684 373.809 30.004 373.497 31.3C373.233 32.428 372.921 33.196 372.561 33.604C372.225 33.988 371.685 34.18 370.941 34.18ZM421.634 25.972C421.946 25.972 422.186 26.116 422.354 26.404C422.546 26.692 422.642 27.088 422.642 27.592C422.642 28.552 422.414 29.296 421.958 29.824C419.582 32.728 417.362 34.18 415.298 34.18C413.738 34.18 412.598 33.628 411.878 32.524C411.182 31.42 410.834 29.956 410.834 28.132V27.592C409.514 29.584 408.05 31.18 406.442 32.38C404.858 33.58 403.19 34.18 401.438 34.18C399.35 34.18 397.682 33.556 396.434 32.308C395.21 31.06 394.598 29.452 394.598 27.484C394.598 26.044 394.706 24.676 394.922 23.38C395.138 22.084 395.474 20.704 395.93 19.24C396.146 18.544 396.494 18.04 396.974 17.728C397.478 17.392 398.198 17.224 399.134 17.224C400.214 17.224 400.754 17.512 400.754 18.088C400.754 18.328 400.574 19.192 400.214 20.68L399.962 21.76L399.458 23.92C400.106 23.272 400.874 22.744 401.762 22.336C402.674 21.904 403.598 21.688 404.534 21.688C405.638 21.688 406.55 22.024 407.27 22.696C407.99 23.344 408.398 24.268 408.494 25.468C409.43 24.34 410.198 23.284 410.798 22.3C411.398 21.292 411.914 20.248 412.346 19.168C412.562 18.448 412.838 17.944 413.174 17.656C413.534 17.368 414.11 17.224 414.902 17.224C416.126 17.224 416.738 17.632 416.738 18.448C416.738 19.048 416.51 20.44 416.054 22.624C415.478 25.264 415.19 27.052 415.19 27.988C415.19 28.708 415.286 29.26 415.478 29.644C415.67 30.028 415.994 30.22 416.45 30.22C416.882 30.22 417.422 29.92 418.07 29.32C418.718 28.72 419.582 27.772 420.662 26.476C420.95 26.14 421.274 25.972 421.634 25.972ZM404.786 27.376C404.786 26.104 404.102 25.468 402.734 25.468C401.918 25.468 401.198 25.696 400.574 26.152C399.974 26.608 399.494 27.136 399.134 27.736C399.23 28.624 399.482 29.284 399.89 29.716C400.298 30.148 400.922 30.364 401.762 30.364C402.722 30.364 403.466 30.1 403.994 29.572C404.522 29.044 404.786 28.312 404.786 27.376ZM428.484 25.576C428.052 25.576 427.704 25.456 427.44 25.216C427.176 24.952 427.056 24.532 427.08 23.956C427.176 22.444 427.536 21.1 428.16 19.924C428.784 18.748 429.828 17.428 431.292 15.964C432.66 14.62 433.644 13.48 434.244 12.544C434.844 11.608 435.144 10.636 435.144 9.628C435.144 7.972 434.22 7.144 432.372 7.144C431.268 7.144 430.428 7.396 429.852 7.9C429.276 8.38 428.988 8.992 428.988 9.736L429.024 11.212C429.024 11.62 428.868 11.98 428.556 12.292C428.268 12.58 427.8 12.724 427.152 12.724C426.408 12.724 425.832 12.508 425.424 12.076C425.04 11.62 424.848 10.984 424.848 10.168C424.848 8.968 425.136 7.876 425.712 6.892C426.312 5.884 427.212 5.08 428.412 4.48C429.612 3.88 431.088 3.58 432.84 3.58C435.216 3.58 437.052 4.096 438.348 5.128C439.668 6.136 440.328 7.6 440.328 9.52C440.328 11.032 439.944 12.4 439.176 13.624C438.408 14.848 437.256 16.12 435.72 17.44C434.424 18.544 433.44 19.444 432.768 20.14C432.096 20.836 431.604 21.448 431.292 21.976C431.004 22.48 430.764 23.068 430.572 23.74C430.404 24.364 430.128 24.832 429.744 25.144C429.384 25.432 428.964 25.576 428.484 25.576ZM427.116 34.18C426.06 34.18 425.256 33.892 424.704 33.316C424.176 32.74 423.912 31.984 423.912 31.048C423.912 29.968 424.212 29.104 424.812 28.456C425.436 27.808 426.3 27.484 427.404 27.484C428.46 27.484 429.252 27.748 429.78 28.276C430.332 28.78 430.608 29.536 430.608 30.544C430.608 31.648 430.296 32.536 429.672 33.208C429.048 33.856 428.196 34.18 427.116 34.18Z" fill="url(#paint0_linear_248_209)"/>
<defs>
<linearGradient id="paint0_linear_248_209" x1="-4.00049" y1="14" x2="434.5" y2="21" gradientUnits="userSpaceOnUse">
<stop offset="0.303248" stop-color="white"/>
<stop offset="1" stop-color="#FF0A7F"/>
</linearGradient>
</defs>
</svg>
