<svg width="157" height="32" viewBox="0 0 157 32" fill="none" xmlns="http://www.w3.org/2000/svg">
<path d="M37.3112 22.972C37.6232 22.972 37.8632 23.116 38.0312 23.404C38.2232 23.692 38.3192 24.088 38.3192 24.592C38.3192 25.528 38.0912 26.272 37.6352 26.824C36.4832 28.216 35.3192 29.296 34.1432 30.064C32.9672 30.808 31.5752 31.18 29.9672 31.18C28.1912 31.18 26.7392 30.664 25.6112 29.632C24.4832 28.576 23.4272 26.944 22.4432 24.736C21.7232 23.152 21.1232 21.976 20.6432 21.208C20.1872 20.416 19.7312 19.864 19.2752 19.552C18.8192 19.216 18.2432 19.012 17.5472 18.94L17.1512 21.604C16.6472 25.036 15.6632 27.508 14.1992 29.02C12.7592 30.532 10.7672 31.288 8.22321 31.288C6.56721 31.288 5.09121 30.892 3.79521 30.1C2.52321 29.284 1.63521 28.252 1.13121 27.004C0.963207 26.572 0.879207 26.104 0.879207 25.6C0.879207 24.88 1.04721 24.256 1.38321 23.728C1.71921 23.2 2.15121 22.936 2.67921 22.936C2.99121 22.936 3.25521 23.02 3.47121 23.188C3.68721 23.332 3.89121 23.596 4.08321 23.98C4.82721 25.372 5.47521 26.344 6.02721 26.896C6.60321 27.448 7.31121 27.724 8.15121 27.724C9.11121 27.724 9.92721 27.292 10.5992 26.428C11.2952 25.54 11.7872 24.184 12.0752 22.36L12.5792 18.94H12.0032C11.4512 18.94 11.0192 18.784 10.7072 18.472C10.3952 18.16 10.2392 17.728 10.2392 17.176C10.2392 16.552 10.3952 16.06 10.7072 15.7C11.0432 15.316 11.4512 15.124 11.9312 15.124H13.1192C13.2872 13.948 13.4072 13.132 13.4792 12.676L14.5952 4.576C13.9712 4.504 13.3832 4.468 12.8312 4.468C10.7912 4.468 9.24321 4.828 8.18721 5.548C7.13121 6.244 6.60321 7.252 6.60321 8.572C6.60321 9.172 6.66321 9.664 6.78321 10.048C6.92721 10.408 7.10721 10.816 7.32321 11.272C7.41921 11.464 7.46721 11.68 7.46721 11.92C7.46721 12.448 7.21521 12.916 6.71121 13.324C6.23121 13.708 5.69121 13.9 5.09121 13.9C4.32321 13.9 3.75921 13.564 3.39921 12.892C2.67921 11.62 2.31921 10.252 2.31921 8.788C2.31921 7.276 2.72721 5.896 3.54321 4.648C4.38321 3.4 5.64321 2.404 7.32321 1.66C9.00321 0.891998 11.0792 0.507998 13.5512 0.507998C14.6312 0.507998 15.6152 0.567998 16.5032 0.687998C17.4152 0.807999 18.4112 1.036 19.4912 1.372C20.6672 1.732 21.2552 2.404 21.2552 3.388C21.2552 4.708 20.6912 5.368 19.5632 5.368L18.1592 15.052C20.9672 14.764 23.2472 13.564 24.9992 11.452C26.7752 9.316 28.2512 6.424 29.4272 2.776C29.6432 2.104 30.0032 1.588 30.5072 1.228C31.0352 0.867998 31.6952 0.687998 32.4872 0.687998C33.1592 0.687998 33.6752 0.843998 34.0352 1.156C34.4192 1.444 34.6112 1.864 34.6112 2.416C34.6112 2.584 34.5632 2.86 34.4672 3.244C33.2672 7.204 31.5512 10.348 29.3192 12.676C27.0872 15.004 24.6512 16.552 22.0112 17.32C22.9232 17.536 23.6672 17.86 24.2432 18.292C24.8432 18.724 25.3472 19.264 25.7552 19.912C26.1632 20.536 26.6312 21.412 27.1592 22.54C27.9032 24.124 28.5992 25.252 29.2472 25.924C29.8952 26.572 30.6512 26.896 31.5152 26.896C32.2832 26.896 33.0152 26.644 33.7112 26.14C34.4072 25.612 35.2832 24.724 36.3392 23.476C36.6272 23.14 36.9512 22.972 37.3112 22.972ZM37.222 31.18C36.31 31.18 35.662 30.7 35.278 29.74C34.918 28.78 34.738 27.244 34.738 25.132C34.738 22.012 35.182 19.048 36.07 16.24C36.286 15.544 36.634 15.04 37.114 14.728C37.618 14.392 38.314 14.224 39.202 14.224C39.682 14.224 40.018 14.284 40.21 14.404C40.402 14.524 40.498 14.752 40.498 15.088C40.498 15.472 40.318 16.336 39.958 17.68C39.718 18.64 39.526 19.48 39.382 20.2C39.238 20.896 39.118 21.772 39.022 22.828C39.67 20.956 40.438 19.372 41.326 18.076C42.2381 16.78 43.1621 15.82 44.098 15.196C45.058 14.548 45.9581 14.224 46.7981 14.224C47.638 14.224 48.226 14.416 48.562 14.8C48.9221 15.184 49.1021 15.772 49.1021 16.564C49.1021 17.332 48.8741 18.724 48.418 20.74C48.226 21.604 48.0941 22.252 48.0221 22.684C49.222 19.732 50.554 17.584 52.0181 16.24C53.4821 14.896 54.8501 14.224 56.1221 14.224C57.6821 14.224 58.4621 15.004 58.4621 16.564C58.4621 17.5 58.1981 19.192 57.6701 21.64C57.2141 23.728 56.9861 25.108 56.9861 25.78C56.9861 26.74 57.3341 27.22 58.0301 27.22C58.51 27.22 59.074 26.932 59.722 26.356C60.394 25.756 61.282 24.796 62.386 23.476C62.6741 23.14 62.9981 22.972 63.3581 22.972C63.6701 22.972 63.9101 23.116 64.0781 23.404C64.2701 23.692 64.3661 24.088 64.3661 24.592C64.3661 25.552 64.1381 26.296 63.6821 26.824C62.6501 28.096 61.5341 29.14 60.3341 29.956C59.1581 30.772 57.8141 31.18 56.3021 31.18C55.0781 31.18 54.1541 30.832 53.5301 30.136C52.906 29.416 52.594 28.384 52.594 27.04C52.594 26.368 52.762 25.168 53.098 23.44C53.41 21.928 53.566 20.884 53.566 20.308C53.566 19.924 53.4341 19.732 53.1701 19.732C52.8581 19.732 52.4141 20.14 51.8381 20.956C51.2621 21.748 50.6861 22.804 50.1101 24.124C49.534 25.444 49.066 26.836 48.7061 28.3C48.442 29.452 48.1301 30.22 47.7701 30.604C47.4341 30.988 46.8821 31.18 46.1141 31.18C45.322 31.18 44.722 30.808 44.314 30.064C43.93 29.296 43.738 28.372 43.738 27.292C43.738 26.38 43.858 25.06 44.098 23.332C44.29 21.796 44.386 20.788 44.386 20.308C44.386 19.924 44.254 19.732 43.99 19.732C43.6301 19.732 43.1741 20.164 42.6221 21.028C42.07 21.892 41.53 22.996 41.002 24.34C40.498 25.684 40.09 27.004 39.778 28.3C39.514 29.428 39.202 30.196 38.842 30.604C38.506 30.988 37.966 31.18 37.222 31.18ZM79.0951 19.948C79.4071 19.948 79.6471 20.104 79.8151 20.416C79.9831 20.728 80.0671 21.124 80.0671 21.604C80.0671 22.756 79.7191 23.44 79.0231 23.656C77.5831 24.16 75.9991 24.448 74.2711 24.52C73.8151 26.536 72.9151 28.156 71.5711 29.38C70.2271 30.58 68.7031 31.18 66.9991 31.18C65.5591 31.18 64.3231 30.832 63.2911 30.136C62.2831 29.44 61.5151 28.516 60.9871 27.364C60.4591 26.212 60.1951 24.964 60.1951 23.62C60.1951 21.796 60.5431 20.176 61.2391 18.76C61.9351 17.32 62.8951 16.204 64.1191 15.412C65.3431 14.596 66.6991 14.188 68.1871 14.188C70.0111 14.188 71.4751 14.824 72.5791 16.096C73.7071 17.344 74.3671 18.892 74.5591 20.74C75.6871 20.668 77.0311 20.428 78.5911 20.02C78.7831 19.972 78.9511 19.948 79.0951 19.948ZM67.2871 27.364C68.0551 27.364 68.7151 27.052 69.2671 26.428C69.8431 25.804 70.2271 24.904 70.4191 23.728C69.6751 23.224 69.0991 22.564 68.6911 21.748C68.3071 20.932 68.1151 20.068 68.1151 19.156C68.1151 18.772 68.1511 18.388 68.2231 18.004H68.0431C67.0831 18.004 66.2791 18.472 65.6311 19.408C65.0071 20.32 64.6951 21.616 64.6951 23.296C64.6951 24.616 64.9471 25.624 65.4511 26.32C65.9791 27.016 66.5911 27.364 67.2871 27.364ZM113.397 22.972C113.709 22.972 113.949 23.116 114.117 23.404C114.309 23.692 114.405 24.088 114.405 24.592C114.405 25.576 114.177 26.332 113.721 26.86C112.617 28.156 111.537 29.2 110.481 29.992C109.449 30.784 108.309 31.18 107.061 31.18C105.789 31.18 104.877 30.7 104.325 29.74C103.773 28.78 103.497 27.388 103.497 25.564C103.497 23.98 103.689 22 104.073 19.624H104.001C103.401 20.656 102.837 21.82 102.309 23.116C101.781 24.412 101.193 25.948 100.545 27.724L99.9326 29.344C99.6686 30.064 99.3566 30.556 98.9966 30.82C98.6366 31.06 98.2046 31.18 97.7006 31.18C97.1726 31.18 96.7886 31.036 96.5486 30.748C96.3086 30.46 96.0926 30.004 95.9006 29.38C95.6846 28.66 95.5046 27.676 95.3606 26.428C95.2166 25.156 95.1446 23.872 95.1446 22.576C95.1446 21.784 95.1806 21.028 95.2526 20.308H95.1806C94.5806 22.636 93.9926 24.556 93.4166 26.068C92.8406 27.556 92.0606 28.78 91.0766 29.74C90.0926 30.676 88.8446 31.144 87.3326 31.144C86.0606 31.144 85.0766 30.7 84.3806 29.812C83.7086 28.924 83.3726 27.808 83.3726 26.464C83.3726 25.264 83.6486 24.268 84.2006 23.476C84.7526 22.66 85.5326 22.252 86.5406 22.252C87.5006 22.252 87.9806 22.576 87.9806 23.224C87.9806 23.344 87.9686 23.44 87.9446 23.512C87.7526 24.664 87.6566 25.48 87.6566 25.96C87.6566 26.776 87.8366 27.184 88.1966 27.184C88.5326 27.184 88.8686 26.944 89.2046 26.464C89.5406 25.96 90.0086 24.88 90.6086 23.224C91.4246 20.992 92.1926 18.712 92.9126 16.384C93.1526 15.64 93.5006 15.1 93.9566 14.764C94.4366 14.404 95.0726 14.224 95.8646 14.224C96.5366 14.224 97.0886 14.356 97.5206 14.62C97.9766 14.884 98.2046 15.316 98.2046 15.916C98.2046 19.396 98.2886 22.048 98.4566 23.872H98.5286C98.9366 22.504 99.5726 20.932 100.437 19.156C101.301 17.38 101.985 16.216 102.489 15.664C102.945 15.184 103.401 14.824 103.857 14.584C104.337 14.32 104.865 14.188 105.441 14.188C106.305 14.188 106.893 14.38 107.205 14.764C107.517 15.124 107.673 15.808 107.673 16.816C107.673 17.368 107.661 17.92 107.637 18.472C107.613 19 107.589 19.492 107.565 19.948C107.469 21.724 107.421 23.044 107.421 23.908C107.421 25.276 107.517 26.2 107.709 26.68C107.901 27.16 108.261 27.4 108.789 27.4C109.749 27.4 110.961 26.14 112.425 23.62C112.689 23.188 113.013 22.972 113.397 22.972ZM137.962 22.972C138.274 22.972 138.514 23.116 138.682 23.404C138.874 23.692 138.97 24.088 138.97 24.592C138.97 25.552 138.742 26.296 138.286 26.824C135.91 29.728 133.69 31.18 131.626 31.18C130.066 31.18 128.926 30.628 128.206 29.524C127.51 28.42 127.162 26.956 127.162 25.132V24.592C125.842 26.584 124.378 28.18 122.77 29.38C121.186 30.58 119.518 31.18 117.766 31.18C115.678 31.18 114.01 30.556 112.762 29.308C111.538 28.06 110.926 26.452 110.926 24.484C110.926 23.044 111.034 21.676 111.25 20.38C111.466 19.084 111.802 17.704 112.258 16.24C112.474 15.544 112.822 15.04 113.302 14.728C113.806 14.392 114.526 14.224 115.462 14.224C116.542 14.224 117.082 14.512 117.082 15.088C117.082 15.328 116.902 16.192 116.542 17.68L116.29 18.76L115.786 20.92C116.434 20.272 117.202 19.744 118.09 19.336C119.002 18.904 119.926 18.688 120.862 18.688C121.966 18.688 122.878 19.024 123.598 19.696C124.318 20.344 124.726 21.268 124.822 22.468C125.758 21.34 126.526 20.284 127.126 19.3C127.726 18.292 128.242 17.248 128.674 16.168C128.89 15.448 129.166 14.944 129.502 14.656C129.862 14.368 130.438 14.224 131.23 14.224C132.454 14.224 133.066 14.632 133.066 15.448C133.066 16.048 132.838 17.44 132.382 19.624C131.806 22.264 131.518 24.052 131.518 24.988C131.518 25.708 131.614 26.26 131.806 26.644C131.998 27.028 132.322 27.22 132.778 27.22C133.21 27.22 133.75 26.92 134.398 26.32C135.046 25.72 135.91 24.772 136.99 23.476C137.278 23.14 137.602 22.972 137.962 22.972ZM121.114 24.376C121.114 23.104 120.43 22.468 119.062 22.468C118.246 22.468 117.526 22.696 116.902 23.152C116.302 23.608 115.822 24.136 115.462 24.736C115.558 25.624 115.81 26.284 116.218 26.716C116.626 27.148 117.25 27.364 118.09 27.364C119.05 27.364 119.794 27.1 120.322 26.572C120.85 26.044 121.114 25.312 121.114 24.376ZM144.812 22.576C144.38 22.576 144.032 22.456 143.768 22.216C143.504 21.952 143.384 21.532 143.408 20.956C143.504 19.444 143.864 18.1 144.488 16.924C145.112 15.748 146.156 14.428 147.62 12.964C148.988 11.62 149.972 10.48 150.572 9.544C151.172 8.608 151.472 7.636 151.472 6.628C151.472 4.972 150.548 4.144 148.7 4.144C147.596 4.144 146.756 4.396 146.18 4.9C145.604 5.38 145.316 5.992 145.316 6.736L145.352 8.212C145.352 8.62 145.196 8.98 144.884 9.292C144.596 9.58 144.128 9.724 143.48 9.724C142.736 9.724 142.16 9.508 141.752 9.076C141.368 8.62 141.176 7.984 141.176 7.168C141.176 5.968 141.464 4.876 142.04 3.892C142.64 2.884 143.54 2.08 144.74 1.48C145.94 0.879999 147.416 0.579999 149.168 0.579999C151.544 0.579999 153.38 1.096 154.676 2.128C155.996 3.136 156.656 4.6 156.656 6.52C156.656 8.032 156.272 9.4 155.504 10.624C154.736 11.848 153.584 13.12 152.048 14.44C150.752 15.544 149.768 16.444 149.096 17.14C148.424 17.836 147.932 18.448 147.62 18.976C147.332 19.48 147.092 20.068 146.9 20.74C146.732 21.364 146.456 21.832 146.072 22.144C145.712 22.432 145.292 22.576 144.812 22.576ZM143.444 31.18C142.388 31.18 141.584 30.892 141.032 30.316C140.504 29.74 140.24 28.984 140.24 28.048C140.24 26.968 140.54 26.104 141.14 25.456C141.764 24.808 142.628 24.484 143.732 24.484C144.788 24.484 145.58 24.748 146.108 25.276C146.66 25.78 146.936 26.536 146.936 27.544C146.936 28.648 146.624 29.536 146 30.208C145.376 30.856 144.524 31.18 143.444 31.18Z" fill="#F703A6" fill-opacity="0.8"/>
<path d="M37.3112 22.972C37.6232 22.972 37.8632 23.116 38.0312 23.404C38.2232 23.692 38.3192 24.088 38.3192 24.592C38.3192 25.528 38.0912 26.272 37.6352 26.824C36.4832 28.216 35.3192 29.296 34.1432 30.064C32.9672 30.808 31.5752 31.18 29.9672 31.18C28.1912 31.18 26.7392 30.664 25.6112 29.632C24.4832 28.576 23.4272 26.944 22.4432 24.736C21.7232 23.152 21.1232 21.976 20.6432 21.208C20.1872 20.416 19.7312 19.864 19.2752 19.552C18.8192 19.216 18.2432 19.012 17.5472 18.94L17.1512 21.604C16.6472 25.036 15.6632 27.508 14.1992 29.02C12.7592 30.532 10.7672 31.288 8.22321 31.288C6.56721 31.288 5.09121 30.892 3.79521 30.1C2.52321 29.284 1.63521 28.252 1.13121 27.004C0.963207 26.572 0.879207 26.104 0.879207 25.6C0.879207 24.88 1.04721 24.256 1.38321 23.728C1.71921 23.2 2.15121 22.936 2.67921 22.936C2.99121 22.936 3.25521 23.02 3.47121 23.188C3.68721 23.332 3.89121 23.596 4.08321 23.98C4.82721 25.372 5.47521 26.344 6.02721 26.896C6.60321 27.448 7.31121 27.724 8.15121 27.724C9.11121 27.724 9.92721 27.292 10.5992 26.428C11.2952 25.54 11.7872 24.184 12.0752 22.36L12.5792 18.94H12.0032C11.4512 18.94 11.0192 18.784 10.7072 18.472C10.3952 18.16 10.2392 17.728 10.2392 17.176C10.2392 16.552 10.3952 16.06 10.7072 15.7C11.0432 15.316 11.4512 15.124 11.9312 15.124H13.1192C13.2872 13.948 13.4072 13.132 13.4792 12.676L14.5952 4.576C13.9712 4.504 13.3832 4.468 12.8312 4.468C10.7912 4.468 9.24321 4.828 8.18721 5.548C7.13121 6.244 6.60321 7.252 6.60321 8.572C6.60321 9.172 6.66321 9.664 6.78321 10.048C6.92721 10.408 7.10721 10.816 7.32321 11.272C7.41921 11.464 7.46721 11.68 7.46721 11.92C7.46721 12.448 7.21521 12.916 6.71121 13.324C6.23121 13.708 5.69121 13.9 5.09121 13.9C4.32321 13.9 3.75921 13.564 3.39921 12.892C2.67921 11.62 2.31921 10.252 2.31921 8.788C2.31921 7.276 2.72721 5.896 3.54321 4.648C4.38321 3.4 5.64321 2.404 7.32321 1.66C9.00321 0.891998 11.0792 0.507998 13.5512 0.507998C14.6312 0.507998 15.6152 0.567998 16.5032 0.687998C17.4152 0.807999 18.4112 1.036 19.4912 1.372C20.6672 1.732 21.2552 2.404 21.2552 3.388C21.2552 4.708 20.6912 5.368 19.5632 5.368L18.1592 15.052C20.9672 14.764 23.2472 13.564 24.9992 11.452C26.7752 9.316 28.2512 6.424 29.4272 2.776C29.6432 2.104 30.0032 1.588 30.5072 1.228C31.0352 0.867998 31.6952 0.687998 32.4872 0.687998C33.1592 0.687998 33.6752 0.843998 34.0352 1.156C34.4192 1.444 34.6112 1.864 34.6112 2.416C34.6112 2.584 34.5632 2.86 34.4672 3.244C33.2672 7.204 31.5512 10.348 29.3192 12.676C27.0872 15.004 24.6512 16.552 22.0112 17.32C22.9232 17.536 23.6672 17.86 24.2432 18.292C24.8432 18.724 25.3472 19.264 25.7552 19.912C26.1632 20.536 26.6312 21.412 27.1592 22.54C27.9032 24.124 28.5992 25.252 29.2472 25.924C29.8952 26.572 30.6512 26.896 31.5152 26.896C32.2832 26.896 33.0152 26.644 33.7112 26.14C34.4072 25.612 35.2832 24.724 36.3392 23.476C36.6272 23.14 36.9512 22.972 37.3112 22.972ZM37.222 31.18C36.31 31.18 35.662 30.7 35.278 29.74C34.918 28.78 34.738 27.244 34.738 25.132C34.738 22.012 35.182 19.048 36.07 16.24C36.286 15.544 36.634 15.04 37.114 14.728C37.618 14.392 38.314 14.224 39.202 14.224C39.682 14.224 40.018 14.284 40.21 14.404C40.402 14.524 40.498 14.752 40.498 15.088C40.498 15.472 40.318 16.336 39.958 17.68C39.718 18.64 39.526 19.48 39.382 20.2C39.238 20.896 39.118 21.772 39.022 22.828C39.67 20.956 40.438 19.372 41.326 18.076C42.2381 16.78 43.1621 15.82 44.098 15.196C45.058 14.548 45.9581 14.224 46.7981 14.224C47.638 14.224 48.226 14.416 48.562 14.8C48.9221 15.184 49.1021 15.772 49.1021 16.564C49.1021 17.332 48.8741 18.724 48.418 20.74C48.226 21.604 48.0941 22.252 48.0221 22.684C49.222 19.732 50.554 17.584 52.0181 16.24C53.4821 14.896 54.8501 14.224 56.1221 14.224C57.6821 14.224 58.4621 15.004 58.4621 16.564C58.4621 17.5 58.1981 19.192 57.6701 21.64C57.2141 23.728 56.9861 25.108 56.9861 25.78C56.9861 26.74 57.3341 27.22 58.0301 27.22C58.51 27.22 59.074 26.932 59.722 26.356C60.394 25.756 61.282 24.796 62.386 23.476C62.6741 23.14 62.9981 22.972 63.3581 22.972C63.6701 22.972 63.9101 23.116 64.0781 23.404C64.2701 23.692 64.3661 24.088 64.3661 24.592C64.3661 25.552 64.1381 26.296 63.6821 26.824C62.6501 28.096 61.5341 29.14 60.3341 29.956C59.1581 30.772 57.8141 31.18 56.3021 31.18C55.0781 31.18 54.1541 30.832 53.5301 30.136C52.906 29.416 52.594 28.384 52.594 27.04C52.594 26.368 52.762 25.168 53.098 23.44C53.41 21.928 53.566 20.884 53.566 20.308C53.566 19.924 53.4341 19.732 53.1701 19.732C52.8581 19.732 52.4141 20.14 51.8381 20.956C51.2621 21.748 50.6861 22.804 50.1101 24.124C49.534 25.444 49.066 26.836 48.7061 28.3C48.442 29.452 48.1301 30.22 47.7701 30.604C47.4341 30.988 46.8821 31.18 46.1141 31.18C45.322 31.18 44.722 30.808 44.314 30.064C43.93 29.296 43.738 28.372 43.738 27.292C43.738 26.38 43.858 25.06 44.098 23.332C44.29 21.796 44.386 20.788 44.386 20.308C44.386 19.924 44.254 19.732 43.99 19.732C43.6301 19.732 43.1741 20.164 42.6221 21.028C42.07 21.892 41.53 22.996 41.002 24.34C40.498 25.684 40.09 27.004 39.778 28.3C39.514 29.428 39.202 30.196 38.842 30.604C38.506 30.988 37.966 31.18 37.222 31.18ZM79.0951 19.948C79.4071 19.948 79.6471 20.104 79.8151 20.416C79.9831 20.728 80.0671 21.124 80.0671 21.604C80.0671 22.756 79.7191 23.44 79.0231 23.656C77.5831 24.16 75.9991 24.448 74.2711 24.52C73.8151 26.536 72.9151 28.156 71.5711 29.38C70.2271 30.58 68.7031 31.18 66.9991 31.18C65.5591 31.18 64.3231 30.832 63.2911 30.136C62.2831 29.44 61.5151 28.516 60.9871 27.364C60.4591 26.212 60.1951 24.964 60.1951 23.62C60.1951 21.796 60.5431 20.176 61.2391 18.76C61.9351 17.32 62.8951 16.204 64.1191 15.412C65.3431 14.596 66.6991 14.188 68.1871 14.188C70.0111 14.188 71.4751 14.824 72.5791 16.096C73.7071 17.344 74.3671 18.892 74.5591 20.74C75.6871 20.668 77.0311 20.428 78.5911 20.02C78.7831 19.972 78.9511 19.948 79.0951 19.948ZM67.2871 27.364C68.0551 27.364 68.7151 27.052 69.2671 26.428C69.8431 25.804 70.2271 24.904 70.4191 23.728C69.6751 23.224 69.0991 22.564 68.6911 21.748C68.3071 20.932 68.1151 20.068 68.1151 19.156C68.1151 18.772 68.1511 18.388 68.2231 18.004H68.0431C67.0831 18.004 66.2791 18.472 65.6311 19.408C65.0071 20.32 64.6951 21.616 64.6951 23.296C64.6951 24.616 64.9471 25.624 65.4511 26.32C65.9791 27.016 66.5911 27.364 67.2871 27.364ZM113.397 22.972C113.709 22.972 113.949 23.116 114.117 23.404C114.309 23.692 114.405 24.088 114.405 24.592C114.405 25.576 114.177 26.332 113.721 26.86C112.617 28.156 111.537 29.2 110.481 29.992C109.449 30.784 108.309 31.18 107.061 31.18C105.789 31.18 104.877 30.7 104.325 29.74C103.773 28.78 103.497 27.388 103.497 25.564C103.497 23.98 103.689 22 104.073 19.624H104.001C103.401 20.656 102.837 21.82 102.309 23.116C101.781 24.412 101.193 25.948 100.545 27.724L99.9326 29.344C99.6686 30.064 99.3566 30.556 98.9966 30.82C98.6366 31.06 98.2046 31.18 97.7006 31.18C97.1726 31.18 96.7886 31.036 96.5486 30.748C96.3086 30.46 96.0926 30.004 95.9006 29.38C95.6846 28.66 95.5046 27.676 95.3606 26.428C95.2166 25.156 95.1446 23.872 95.1446 22.576C95.1446 21.784 95.1806 21.028 95.2526 20.308H95.1806C94.5806 22.636 93.9926 24.556 93.4166 26.068C92.8406 27.556 92.0606 28.78 91.0766 29.74C90.0926 30.676 88.8446 31.144 87.3326 31.144C86.0606 31.144 85.0766 30.7 84.3806 29.812C83.7086 28.924 83.3726 27.808 83.3726 26.464C83.3726 25.264 83.6486 24.268 84.2006 23.476C84.7526 22.66 85.5326 22.252 86.5406 22.252C87.5006 22.252 87.9806 22.576 87.9806 23.224C87.9806 23.344 87.9686 23.44 87.9446 23.512C87.7526 24.664 87.6566 25.48 87.6566 25.96C87.6566 26.776 87.8366 27.184 88.1966 27.184C88.5326 27.184 88.8686 26.944 89.2046 26.464C89.5406 25.96 90.0086 24.88 90.6086 23.224C91.4246 20.992 92.1926 18.712 92.9126 16.384C93.1526 15.64 93.5006 15.1 93.9566 14.764C94.4366 14.404 95.0726 14.224 95.8646 14.224C96.5366 14.224 97.0886 14.356 97.5206 14.62C97.9766 14.884 98.2046 15.316 98.2046 15.916C98.2046 19.396 98.2886 22.048 98.4566 23.872H98.5286C98.9366 22.504 99.5726 20.932 100.437 19.156C101.301 17.38 101.985 16.216 102.489 15.664C102.945 15.184 103.401 14.824 103.857 14.584C104.337 14.32 104.865 14.188 105.441 14.188C106.305 14.188 106.893 14.38 107.205 14.764C107.517 15.124 107.673 15.808 107.673 16.816C107.673 17.368 107.661 17.92 107.637 18.472C107.613 19 107.589 19.492 107.565 19.948C107.469 21.724 107.421 23.044 107.421 23.908C107.421 25.276 107.517 26.2 107.709 26.68C107.901 27.16 108.261 27.4 108.789 27.4C109.749 27.4 110.961 26.14 112.425 23.62C112.689 23.188 113.013 22.972 113.397 22.972ZM137.962 22.972C138.274 22.972 138.514 23.116 138.682 23.404C138.874 23.692 138.97 24.088 138.97 24.592C138.97 25.552 138.742 26.296 138.286 26.824C135.91 29.728 133.69 31.18 131.626 31.18C130.066 31.18 128.926 30.628 128.206 29.524C127.51 28.42 127.162 26.956 127.162 25.132V24.592C125.842 26.584 124.378 28.18 122.77 29.38C121.186 30.58 119.518 31.18 117.766 31.18C115.678 31.18 114.01 30.556 112.762 29.308C111.538 28.06 110.926 26.452 110.926 24.484C110.926 23.044 111.034 21.676 111.25 20.38C111.466 19.084 111.802 17.704 112.258 16.24C112.474 15.544 112.822 15.04 113.302 14.728C113.806 14.392 114.526 14.224 115.462 14.224C116.542 14.224 117.082 14.512 117.082 15.088C117.082 15.328 116.902 16.192 116.542 17.68L116.29 18.76L115.786 20.92C116.434 20.272 117.202 19.744 118.09 19.336C119.002 18.904 119.926 18.688 120.862 18.688C121.966 18.688 122.878 19.024 123.598 19.696C124.318 20.344 124.726 21.268 124.822 22.468C125.758 21.34 126.526 20.284 127.126 19.3C127.726 18.292 128.242 17.248 128.674 16.168C128.89 15.448 129.166 14.944 129.502 14.656C129.862 14.368 130.438 14.224 131.23 14.224C132.454 14.224 133.066 14.632 133.066 15.448C133.066 16.048 132.838 17.44 132.382 19.624C131.806 22.264 131.518 24.052 131.518 24.988C131.518 25.708 131.614 26.26 131.806 26.644C131.998 27.028 132.322 27.22 132.778 27.22C133.21 27.22 133.75 26.92 134.398 26.32C135.046 25.72 135.91 24.772 136.99 23.476C137.278 23.14 137.602 22.972 137.962 22.972ZM121.114 24.376C121.114 23.104 120.43 22.468 119.062 22.468C118.246 22.468 117.526 22.696 116.902 23.152C116.302 23.608 115.822 24.136 115.462 24.736C115.558 25.624 115.81 26.284 116.218 26.716C116.626 27.148 117.25 27.364 118.09 27.364C119.05 27.364 119.794 27.1 120.322 26.572C120.85 26.044 121.114 25.312 121.114 24.376ZM144.812 22.576C144.38 22.576 144.032 22.456 143.768 22.216C143.504 21.952 143.384 21.532 143.408 20.956C143.504 19.444 143.864 18.1 144.488 16.924C145.112 15.748 146.156 14.428 147.62 12.964C148.988 11.62 149.972 10.48 150.572 9.544C151.172 8.608 151.472 7.636 151.472 6.628C151.472 4.972 150.548 4.144 148.7 4.144C147.596 4.144 146.756 4.396 146.18 4.9C145.604 5.38 145.316 5.992 145.316 6.736L145.352 8.212C145.352 8.62 145.196 8.98 144.884 9.292C144.596 9.58 144.128 9.724 143.48 9.724C142.736 9.724 142.16 9.508 141.752 9.076C141.368 8.62 141.176 7.984 141.176 7.168C141.176 5.968 141.464 4.876 142.04 3.892C142.64 2.884 143.54 2.08 144.74 1.48C145.94 0.879999 147.416 0.579999 149.168 0.579999C151.544 0.579999 153.38 1.096 154.676 2.128C155.996 3.136 156.656 4.6 156.656 6.52C156.656 8.032 156.272 9.4 155.504 10.624C154.736 11.848 153.584 13.12 152.048 14.44C150.752 15.544 149.768 16.444 149.096 17.14C148.424 17.836 147.932 18.448 147.62 18.976C147.332 19.48 147.092 20.068 146.9 20.74C146.732 21.364 146.456 21.832 146.072 22.144C145.712 22.432 145.292 22.576 144.812 22.576ZM143.444 31.18C142.388 31.18 141.584 30.892 141.032 30.316C140.504 29.74 140.24 28.984 140.24 28.048C140.24 26.968 140.54 26.104 141.14 25.456C141.764 24.808 142.628 24.484 143.732 24.484C144.788 24.484 145.58 24.748 146.108 25.276C146.66 25.78 146.936 26.536 146.936 27.544C146.936 28.648 146.624 29.536 146 30.208C145.376 30.856 144.524 31.18 143.444 31.18Z" fill="url(#paint0_linear_248_145)"/>
<defs>
<linearGradient id="paint0_linear_248_145" x1="30.5" y1="16" x2="152.5" y2="16" gradientUnits="userSpaceOnUse">
<stop offset="0.148901" stop-color="white"/>
<stop offset="1" stop-color="#FF0980"/>
</linearGradient>
</defs>
</svg>
