<svg width="296" height="105" viewBox="0 0 296 105" fill="none" xmlns="http://www.w3.org/2000/svg">
<g filter="url(#filter0_d_26_7)">
<path d="M9 -2H287V45C287 67.0914 269.091 85 247 85H49C26.9086 85 9 67.0914 9 45V-2Z" fill="url(#paint0_linear_26_7)" shape-rendering="crispEdges"/>
</g>
<path d="M59.0795 45L64.6665 18.582H70.1795L67.5525 30.94L77.3205 18.582H83.5365L73.0285 31.643L78.3565 45H72.2515L67.3305 32.013L64.5925 45H59.0795ZM88.7433 45.37C87.2387 45.37 85.8943 45.0617 84.7103 44.445C83.551 43.8037 82.6383 42.9033 81.9723 41.744C81.331 40.5847 81.0103 39.2033 81.0103 37.6C81.0103 35.824 81.2323 34.1467 81.6763 32.568C82.1203 30.9647 82.7863 29.5587 83.6743 28.35C84.5623 27.1167 85.6723 26.1547 87.0043 25.464C88.361 24.7733 89.9397 24.428 91.7403 24.428C94.0837 24.428 95.946 25.131 97.3273 26.537C98.7087 27.943 99.3993 29.904 99.3993 32.42C99.3993 34.122 99.1897 35.75 98.7703 37.304C98.351 38.858 97.6973 40.2393 96.8093 41.448C95.946 42.6567 94.836 43.6187 93.4793 44.334C92.1473 45.0247 90.5687 45.37 88.7433 45.37ZM89.1873 40.93C90.1987 40.93 91.0497 40.523 91.7403 39.709C92.4557 38.895 92.9983 37.8467 93.3683 36.564C93.7383 35.2567 93.9233 33.8753 93.9233 32.42C93.9233 31.4087 93.726 30.57 93.3313 29.904C92.9613 29.2133 92.2953 28.868 91.3333 28.868C90.5193 28.868 89.804 29.1517 89.1873 29.719C88.5707 30.2617 88.065 30.977 87.6703 31.865C87.2757 32.753 86.9797 33.7027 86.7823 34.714C86.585 35.7253 86.4863 36.6873 86.4863 37.6C86.4863 39.82 87.3867 40.93 89.1873 40.93ZM109.425 45.37C108.044 45.37 106.773 45.1233 105.614 44.63C104.479 44.112 103.579 43.3103 102.913 42.225C102.247 41.1397 101.914 39.709 101.914 37.933C101.914 36.1077 102.148 34.3933 102.617 32.79C103.086 31.162 103.776 29.719 104.689 28.461C105.602 27.203 106.724 26.2163 108.056 25.501C109.388 24.7857 110.905 24.428 112.607 24.428C113.816 24.428 114.889 24.539 115.826 24.761C116.788 24.983 117.688 25.3037 118.527 25.723L116.862 29.867C116.221 29.5957 115.579 29.3613 114.938 29.164C114.321 28.942 113.618 28.831 112.829 28.831C111.694 28.831 110.72 29.2627 109.906 30.126C109.092 30.9647 108.475 32.05 108.056 33.382C107.637 34.6893 107.427 36.0583 107.427 37.489C107.427 38.6237 107.698 39.487 108.241 40.079C108.784 40.671 109.548 40.967 110.535 40.967C111.448 40.967 112.286 40.8313 113.051 40.56C113.84 40.264 114.654 39.9063 115.493 39.487V43.927C114.654 44.371 113.742 44.7287 112.755 45C111.793 45.2467 110.683 45.37 109.425 45.37ZM118.098 45L122.39 24.798H126.534L126.164 28.535H126.312C127.101 27.3263 128.001 26.3397 129.013 25.575C130.049 24.8103 131.27 24.428 132.676 24.428C134.057 24.428 135.13 24.798 135.895 25.538C136.659 26.2533 137.165 27.2523 137.412 28.535H137.56C138.324 27.3263 139.237 26.3397 140.298 25.575C141.358 24.8103 142.592 24.428 143.998 24.428C145.675 24.428 146.933 24.9583 147.772 26.019C148.61 27.055 149.03 28.461 149.03 30.237C149.03 31.125 148.894 32.2103 148.623 33.493L146.218 45H140.779L143.258 33.197C143.455 32.3337 143.554 31.6183 143.554 31.051C143.554 29.571 142.962 28.831 141.778 28.831C140.964 28.831 140.224 29.1763 139.558 29.867C138.892 30.5577 138.312 31.495 137.819 32.679C137.325 33.8383 136.931 35.1457 136.635 36.601L134.896 45H129.457L131.936 33.197C132.133 32.3337 132.232 31.6183 132.232 31.051C132.232 29.571 131.64 28.831 130.456 28.831C129.642 28.831 128.902 29.1887 128.236 29.904C127.57 30.5947 126.99 31.532 126.497 32.716C126.028 33.9 125.633 35.2073 125.313 36.638L123.537 45H118.098ZM169.242 45.37C166.923 45.37 165.11 44.6917 163.803 43.335C162.495 41.9537 161.842 40.0543 161.842 37.637V36.675H158.105L156.329 45H150.853L155.182 24.798H160.658L158.993 32.568H162.471C162.89 30.9893 163.519 29.5957 164.358 28.387C165.221 27.1537 166.294 26.1917 167.577 25.501C168.859 24.7857 170.364 24.428 172.091 24.428C174.483 24.428 176.309 25.1433 177.567 26.574C178.825 28.0047 179.454 29.9533 179.454 32.42C179.454 34.122 179.244 35.75 178.825 37.304C178.43 38.858 177.813 40.2393 176.975 41.448C176.136 42.6567 175.075 43.6187 173.793 44.334C172.51 45.0247 170.993 45.37 169.242 45.37ZM169.649 40.93C170.487 40.93 171.227 40.523 171.869 39.709C172.535 38.895 173.053 37.8467 173.423 36.564C173.793 35.2567 173.978 33.8753 173.978 32.42C173.978 31.4087 173.805 30.57 173.46 29.904C173.114 29.2133 172.498 28.868 171.61 28.868C170.894 28.868 170.253 29.1517 169.686 29.719C169.143 30.2617 168.687 30.977 168.317 31.865C167.947 32.753 167.663 33.7027 167.466 34.714C167.268 35.7253 167.17 36.6873 167.17 37.6C167.17 39.82 167.996 40.93 169.649 40.93ZM181.154 45L185.409 24.798H192.92L193.697 38.895H193.808L201.06 24.798H208.793L204.464 45H199.432L201.652 35.01C201.85 34.0727 202.059 33.1723 202.281 32.309C202.503 31.421 202.701 30.7057 202.873 30.163H202.762L195.103 45H189.886L189.072 30.163H188.998C188.875 31.1497 188.739 32.05 188.591 32.864C188.443 33.6533 188.283 34.4427 188.11 35.232L186.149 45H181.154ZM217.135 45.37C215.359 45.37 213.953 45.111 212.917 44.593C211.906 44.075 211.178 43.372 210.734 42.484C210.315 41.5713 210.105 40.5723 210.105 39.487C210.105 39.1663 210.13 38.71 210.179 38.118C210.229 37.5013 210.34 36.823 210.512 36.083L212.954 24.798H218.393L216.617 33.012C217.111 32.8887 217.666 32.79 218.282 32.716C218.899 32.642 219.565 32.605 220.28 32.605C221.933 32.605 223.29 33.086 224.35 34.048C225.411 35.01 225.941 36.3173 225.941 37.97C225.941 39.228 225.633 40.4243 225.016 41.559C224.424 42.669 223.475 43.5817 222.167 44.297C220.885 45.0123 219.207 45.37 217.135 45.37ZM227.532 45L231.824 24.798H237.263L232.971 45H227.532ZM217.579 41.559C218.443 41.559 219.146 41.2877 219.688 40.745C220.231 40.2023 220.502 39.4747 220.502 38.562C220.502 37.1313 219.75 36.416 218.245 36.416C217.555 36.416 216.765 36.527 215.877 36.749C215.729 37.3903 215.631 37.8713 215.581 38.192C215.532 38.488 215.507 38.8703 215.507 39.339C215.507 40.1283 215.717 40.6957 216.136 41.041C216.556 41.3863 217.037 41.559 217.579 41.559Z" fill="#FF228C"/>
<defs>
<filter id="filter0_d_26_7" x="0" y="-2" width="296" height="107" filterUnits="userSpaceOnUse" color-interpolation-filters="sRGB">
<feFlood flood-opacity="0" result="BackgroundImageFix"/>
<feColorMatrix in="SourceAlpha" type="matrix" values="0 0 0 0 0 0 0 0 0 0 0 0 0 0 0 0 0 0 127 0" result="hardAlpha"/>
<feOffset dy="11"/>
<feGaussianBlur stdDeviation="4.5"/>
<feComposite in2="hardAlpha" operator="out"/>
<feColorMatrix type="matrix" values="0 0 0 0 0 0 0 0 0 0 0 0 0 0 0 0 0 0 0.53 0"/>
<feBlend mode="normal" in2="BackgroundImageFix" result="effect1_dropShadow_26_7"/>
<feBlend mode="normal" in="SourceGraphic" in2="effect1_dropShadow_26_7" result="shape"/>
</filter>
<linearGradient id="paint0_linear_26_7" x1="148" y1="-2" x2="148" y2="85" gradientUnits="userSpaceOnUse">
<stop stop-color="#B3AEAE" stop-opacity="0.88"/>
<stop offset="1" stop-color="#5F5F5F" stop-opacity="0.2"/>
</linearGradient>
</defs>
</svg>
