<svg width="287" height="105" viewBox="0 0 287 105" fill="none" xmlns="http://www.w3.org/2000/svg">
<g filter="url(#filter0_d_26_4)">
<path d="M9 -2H287V45C287 67.0914 269.091 85 247 85H49C26.9086 85 9 67.0914 9 45V-2Z" fill="url(#paint0_linear_26_4)" shape-rendering="crispEdges"/>
</g>
<path d="M43.3154 45L48.9024 18.582H54.4154L51.7884 30.94L61.5564 18.582H67.7724L57.2644 31.643L62.5924 45H56.4874L51.5664 32.013L48.8284 45H43.3154ZM63.7293 53.88C63.088 53.88 62.5577 53.843 62.1383 53.769C61.719 53.7197 61.3613 53.6457 61.0653 53.547V49.218C61.386 49.2673 61.719 49.3167 62.0643 49.366C62.385 49.4153 62.755 49.44 63.1743 49.44C64.3337 49.44 65.2833 49.107 66.0233 48.441C66.7633 47.775 67.4047 46.924 67.9473 45.888L68.4283 45L65.4683 24.798H70.7963L71.7953 34.159C71.894 34.9977 71.9557 35.9103 71.9803 36.897C72.005 37.8837 72.0173 38.7347 72.0173 39.45H72.1653C72.412 38.8333 72.6833 38.118 72.9793 37.304C73.2753 36.4653 73.6577 35.5403 74.1263 34.529L78.8253 24.798H84.7453L72.4613 47.886C71.376 49.9333 70.0933 51.438 68.6133 52.4C67.158 53.3867 65.53 53.88 63.7293 53.88ZM82.7308 45L87.0228 24.798H91.1669L90.7969 28.535H90.9449C91.7342 27.3263 92.6345 26.3397 93.6459 25.575C94.6819 24.8103 95.9029 24.428 97.3089 24.428C99.0602 24.428 100.368 24.9583 101.231 26.019C102.094 27.055 102.526 28.461 102.526 30.237C102.526 31.125 102.39 32.2103 102.119 33.493L99.7139 45H94.2749L96.7539 33.197C96.9512 32.3337 97.0499 31.6183 97.0499 31.051C97.0499 29.571 96.3962 28.831 95.0889 28.831C94.2749 28.831 93.5349 29.1887 92.8689 29.904C92.2029 30.5947 91.6232 31.532 91.1299 32.716C90.6612 33.9 90.2665 35.2073 89.9459 36.638L88.1699 45H82.7308ZM110.981 45.37C110.019 45.37 109.094 45.1357 108.206 44.667C107.343 44.1737 106.64 43.3967 106.097 42.336C105.554 41.2507 105.283 39.82 105.283 38.044C105.283 36.3913 105.505 34.7633 105.949 33.16C106.393 31.5567 107.022 30.1013 107.836 28.794C108.65 27.462 109.624 26.4013 110.759 25.612C111.918 24.8227 113.213 24.428 114.644 24.428C115.927 24.428 116.963 24.6993 117.752 25.242C118.566 25.7847 119.195 26.5 119.639 27.388H119.787L120.823 24.798H125.004L120.712 45H116.642L116.901 42.373H116.753C116.038 43.261 115.211 43.9887 114.274 44.556C113.361 45.0987 112.264 45.37 110.981 45.37ZM113.127 40.967C113.867 40.967 114.558 40.671 115.199 40.079C115.84 39.487 116.383 38.7223 116.827 37.785C117.296 36.8477 117.629 35.861 117.826 34.825C117.999 33.937 118.085 32.9257 118.085 31.791C118.085 30.9277 117.863 30.2247 117.419 29.682C116.975 29.1147 116.358 28.831 115.569 28.831C114.903 28.831 114.274 29.1023 113.682 29.645C113.115 30.163 112.609 30.8537 112.165 31.717C111.746 32.5803 111.413 33.5423 111.166 34.603C110.919 35.6637 110.796 36.7243 110.796 37.785C110.796 39.9063 111.573 40.967 113.127 40.967ZM126.512 45.37C125.476 45.37 124.575 45.222 123.811 44.926V40.449C124.279 40.6463 124.785 40.745 125.328 40.745C125.969 40.745 126.499 40.4613 126.919 39.894C127.338 39.302 127.72 38.525 128.066 37.563C128.411 36.601 128.781 35.5527 129.176 34.418C129.768 32.716 130.36 31.236 130.952 29.978C131.544 28.72 132.234 27.684 133.024 26.87C133.813 26.056 134.812 25.4517 136.021 25.057C137.229 24.6377 138.746 24.428 140.572 24.428C141.805 24.428 142.977 24.539 144.087 24.761C145.221 24.9583 146.134 25.1927 146.825 25.464L142.718 45H137.279L140.683 29.016C140.51 28.9667 140.325 28.9297 140.128 28.905C139.93 28.8803 139.733 28.868 139.536 28.868C138.549 28.868 137.747 29.1517 137.131 29.719C136.539 30.2863 136.021 31.125 135.577 32.235C135.133 33.345 134.627 34.7263 134.06 36.379C133.64 37.6123 133.221 38.7717 132.802 39.857C132.407 40.9423 131.938 41.9043 131.396 42.743C130.853 43.557 130.187 44.1983 129.398 44.667C128.633 45.1357 127.671 45.37 126.512 45.37ZM156.009 45.37C154.258 45.37 152.852 45.111 151.791 44.593C150.731 44.075 149.966 43.372 149.497 42.484C149.029 41.5713 148.794 40.56 148.794 39.45C148.794 38.6113 148.942 37.526 149.238 36.194L151.68 24.798H157.119L155.343 33.012C155.861 32.8887 156.441 32.79 157.082 32.716C157.724 32.642 158.451 32.605 159.265 32.605C161.387 32.605 162.978 33.1353 164.038 34.196C165.124 35.232 165.666 36.527 165.666 38.081C165.666 39.265 165.358 40.412 164.741 41.522C164.125 42.632 163.113 43.557 161.707 44.297C160.301 45.0123 158.402 45.37 156.009 45.37ZM156.786 41.559C157.921 41.559 158.772 41.2753 159.339 40.708C159.907 40.116 160.19 39.4253 160.19 38.636C160.19 37.97 159.993 37.4397 159.598 37.045C159.204 36.6257 158.501 36.416 157.489 36.416C156.651 36.416 155.689 36.527 154.603 36.749C154.455 37.3903 154.344 37.8837 154.27 38.229C154.221 38.5743 154.196 38.9197 154.196 39.265C154.196 39.8817 154.394 40.4243 154.788 40.893C155.183 41.337 155.849 41.559 156.786 41.559ZM167.682 45L172.011 24.798H177.487L175.822 32.568H182.112L183.74 24.798H189.179L184.887 45H179.448L181.187 36.675H174.934L173.158 45H167.682ZM196.217 45.37C194.49 45.37 193.195 44.852 192.332 43.816C191.493 42.7553 191.074 41.337 191.074 39.561C191.074 39.117 191.111 38.5497 191.185 37.859C191.259 37.1437 191.37 36.4283 191.518 35.713L193.812 24.798H199.251L196.772 36.601C196.574 37.4643 196.476 38.1797 196.476 38.747C196.476 40.227 197.129 40.967 198.437 40.967C199.275 40.967 200.015 40.6217 200.657 39.931C201.323 39.2157 201.902 38.266 202.396 37.082C202.889 35.898 203.284 34.5907 203.58 33.16L205.356 24.798H210.795L206.503 45H202.359L202.729 41.263H202.544C201.779 42.4717 200.879 43.4583 199.843 44.223C198.831 44.9877 197.623 45.37 196.217 45.37ZM211.332 45L215.661 24.798H221.1L219.102 34.196L227.057 24.798H233.273L224.615 34.936L229.61 45H223.505L218.88 35.158L216.771 45H211.332ZM238.457 45.37C236.731 45.37 235.436 44.852 234.572 43.816C233.734 42.7553 233.314 41.337 233.314 39.561C233.314 39.117 233.351 38.5497 233.425 37.859C233.499 37.1437 233.61 36.4283 233.758 35.713L236.052 24.798H241.491L239.012 36.601C238.815 37.4643 238.716 38.1797 238.716 38.747C238.716 40.227 239.37 40.967 240.677 40.967C241.516 40.967 242.256 40.6217 242.897 39.931C243.563 39.2157 244.143 38.266 244.636 37.082C245.13 35.898 245.524 34.5907 245.82 33.16L247.596 24.798H253.035L248.743 45H244.599L244.969 41.263H244.784C244.02 42.4717 243.119 43.4583 242.083 44.223C241.072 44.9877 239.863 45.37 238.457 45.37Z" fill="#FF228C"/>
<defs>
<filter id="filter0_d_26_4" x="0" y="-2" width="296" height="107" filterUnits="userSpaceOnUse" color-interpolation-filters="sRGB">
<feFlood flood-opacity="0" result="BackgroundImageFix"/>
<feColorMatrix in="SourceAlpha" type="matrix" values="0 0 0 0 0 0 0 0 0 0 0 0 0 0 0 0 0 0 127 0" result="hardAlpha"/>
<feOffset dy="11"/>
<feGaussianBlur stdDeviation="4.5"/>
<feComposite in2="hardAlpha" operator="out"/>
<feColorMatrix type="matrix" values="0 0 0 0 0 0 0 0 0 0 0 0 0 0 0 0 0 0 0.53 0"/>
<feBlend mode="normal" in2="BackgroundImageFix" result="effect1_dropShadow_26_4"/>
<feBlend mode="normal" in="SourceGraphic" in2="effect1_dropShadow_26_4" result="shape"/>
</filter>
<linearGradient id="paint0_linear_26_4" x1="148" y1="-2" x2="148" y2="85" gradientUnits="userSpaceOnUse">
<stop stop-color="#B3AEAE" stop-opacity="0.88"/>
<stop offset="1" stop-color="#5F5F5F" stop-opacity="0.2"/>
</linearGradient>
</defs>
</svg>
