<svg width="287" height="105" viewBox="0 0 287 105" fill="none" xmlns="http://www.w3.org/2000/svg">
<g filter="url(#filter0_d_26_8)">
<path d="M0 -2H278V45C278 67.0914 260.091 85 238 85H40C17.9086 85 0 67.0914 0 45V-2Z" fill="url(#paint0_linear_26_8)" shape-rendering="crispEdges"/>
</g>
<path d="M68.6431 45L74.2301 18.582H93.5811L87.9941 45H82.4811L87.1061 23.244H78.7811L74.1561 45H68.6431ZM94.2956 45.37C93.2596 45.37 92.3593 45.222 91.5946 44.926V40.449C92.0633 40.6463 92.569 40.745 93.1116 40.745C93.753 40.745 94.2833 40.4613 94.7026 39.894C95.122 39.302 95.5043 38.525 95.8496 37.563C96.195 36.601 96.565 35.5527 96.9596 34.418C97.5516 32.716 98.1436 31.236 98.7356 29.978C99.3276 28.72 100.018 27.684 100.808 26.87C101.597 26.056 102.596 25.4517 103.805 25.057C105.013 24.6377 106.53 24.428 108.356 24.428C109.589 24.428 110.761 24.539 111.871 24.761C113.005 24.9583 113.918 25.1927 114.609 25.464L110.502 45H105.063L108.467 29.016C108.294 28.9667 108.109 28.9297 107.912 28.905C107.714 28.8803 107.517 28.868 107.32 28.868C106.333 28.868 105.531 29.1517 104.915 29.719C104.323 30.2863 103.805 31.125 103.361 32.235C102.917 33.345 102.411 34.7263 101.844 36.379C101.424 37.6123 101.005 38.7717 100.586 39.857C100.191 40.9423 99.7223 41.9043 99.1796 42.743C98.637 43.557 97.971 44.1983 97.1816 44.667C96.417 45.1357 95.455 45.37 94.2956 45.37ZM122.017 45.37C121.055 45.37 120.13 45.1357 119.242 44.667C118.379 44.1737 117.676 43.3967 117.133 42.336C116.591 41.2507 116.319 39.82 116.319 38.044C116.319 36.3913 116.541 34.7633 116.985 33.16C117.429 31.5567 118.058 30.1013 118.872 28.794C119.686 27.462 120.661 26.4013 121.795 25.612C122.955 24.8227 124.25 24.428 125.68 24.428C126.963 24.428 127.999 24.6993 128.788 25.242C129.602 25.7847 130.231 26.5 130.675 27.388H130.823L131.859 24.798H136.04L131.748 45H127.678L127.937 42.373H127.789C127.074 43.261 126.248 43.9887 125.31 44.556C124.398 45.0987 123.3 45.37 122.017 45.37ZM124.163 40.967C124.903 40.967 125.594 40.671 126.235 40.079C126.877 39.487 127.419 38.7223 127.863 37.785C128.332 36.8477 128.665 35.861 128.862 34.825C129.035 33.937 129.121 32.9257 129.121 31.791C129.121 30.9277 128.899 30.2247 128.455 29.682C128.011 29.1147 127.395 28.831 126.605 28.831C125.939 28.831 125.31 29.1023 124.718 29.645C124.151 30.163 123.645 30.8537 123.201 31.717C122.782 32.5803 122.449 33.5423 122.202 34.603C121.956 35.6637 121.832 36.7243 121.832 37.785C121.832 39.9063 122.609 40.967 124.163 40.967ZM136.586 45L140.878 24.798H145.022L144.652 28.535H144.8C145.589 27.3263 146.49 26.3397 147.501 25.575C148.537 24.8103 149.758 24.428 151.164 24.428C152.545 24.428 153.618 24.798 154.383 25.538C155.148 26.2533 155.653 27.2523 155.9 28.535H156.048C156.813 27.3263 157.725 26.3397 158.786 25.575C159.847 24.8103 161.08 24.428 162.486 24.428C164.163 24.428 165.421 24.9583 166.26 26.019C167.099 27.055 167.518 28.461 167.518 30.237C167.518 31.125 167.382 32.2103 167.111 33.493L164.706 45H159.267L161.746 33.197C161.943 32.3337 162.042 31.6183 162.042 31.051C162.042 29.571 161.45 28.831 160.266 28.831C159.452 28.831 158.712 29.1763 158.046 29.867C157.38 30.5577 156.8 31.495 156.307 32.679C155.814 33.8383 155.419 35.1457 155.123 36.601L153.384 45H147.945L150.424 33.197C150.621 32.3337 150.72 31.6183 150.72 31.051C150.72 29.571 150.128 28.831 148.944 28.831C148.13 28.831 147.39 29.1887 146.724 29.904C146.058 30.5947 145.478 31.532 144.985 32.716C144.516 33.9 144.122 35.2073 143.801 36.638L142.025 45H136.586ZM177.777 45.37C176.026 45.37 174.62 45.111 173.559 44.593C172.498 44.075 171.734 43.372 171.265 42.484C170.796 41.5713 170.562 40.56 170.562 39.45C170.562 38.6113 170.71 37.526 171.006 36.194L173.448 24.798H178.887L177.111 33.012C177.629 32.8887 178.209 32.79 178.85 32.716C179.491 32.642 180.219 32.605 181.033 32.605C183.154 32.605 184.745 33.1353 185.806 34.196C186.891 35.232 187.434 36.527 187.434 38.081C187.434 39.265 187.126 40.412 186.509 41.522C185.892 42.632 184.881 43.557 183.475 44.297C182.069 45.0123 180.17 45.37 177.777 45.37ZM178.554 41.559C179.689 41.559 180.54 41.2753 181.107 40.708C181.674 40.116 181.958 39.4253 181.958 38.636C181.958 37.97 181.761 37.4397 181.366 37.045C180.971 36.6257 180.268 36.416 179.257 36.416C178.418 36.416 177.456 36.527 176.371 36.749C176.223 37.3903 176.112 37.8837 176.038 38.229C175.989 38.5743 175.964 38.9197 175.964 39.265C175.964 39.8817 176.161 40.4243 176.556 40.893C176.951 41.337 177.617 41.559 178.554 41.559ZM191.152 45.37C190.066 45.37 189.154 45.222 188.414 44.926V40.449C188.611 40.523 188.821 40.597 189.043 40.671C189.289 40.7203 189.548 40.745 189.82 40.745C190.313 40.745 190.72 40.6093 191.041 40.338C191.361 40.042 191.645 39.6967 191.892 39.302C192.533 38.266 193.088 37.5013 193.557 37.008C194.025 36.49 194.617 36.12 195.333 35.898C194.519 35.5527 193.84 35.047 193.298 34.381C192.755 33.715 192.484 32.8023 192.484 31.643C192.484 30.0397 192.878 28.7323 193.668 27.721C194.457 26.7097 195.518 25.9697 196.85 25.501C198.182 25.0323 199.637 24.798 201.216 24.798H209.652L205.397 45H199.958L201.586 37.489H200.476C199.686 37.489 199.07 37.748 198.626 38.266C198.182 38.7593 197.775 39.3883 197.405 40.153C197.059 40.9177 196.628 41.7193 196.11 42.558C195.616 43.3227 194.987 43.9887 194.223 44.556C193.458 45.0987 192.434 45.37 191.152 45.37ZM200.698 33.789H202.363L203.436 28.683H201.142C200.254 28.683 199.514 28.9297 198.922 29.423C198.33 29.9163 198.034 30.6317 198.034 31.569C198.034 32.235 198.243 32.7777 198.663 33.197C199.107 33.5917 199.785 33.789 200.698 33.789Z" fill="#FF228C"/>
<defs>
<filter id="filter0_d_26_8" x="-9" y="-2" width="296" height="107" filterUnits="userSpaceOnUse" color-interpolation-filters="sRGB">
<feFlood flood-opacity="0" result="BackgroundImageFix"/>
<feColorMatrix in="SourceAlpha" type="matrix" values="0 0 0 0 0 0 0 0 0 0 0 0 0 0 0 0 0 0 127 0" result="hardAlpha"/>
<feOffset dy="11"/>
<feGaussianBlur stdDeviation="4.5"/>
<feComposite in2="hardAlpha" operator="out"/>
<feColorMatrix type="matrix" values="0 0 0 0 0 0 0 0 0 0 0 0 0 0 0 0 0 0 0.53 0"/>
<feBlend mode="normal" in2="BackgroundImageFix" result="effect1_dropShadow_26_8"/>
<feBlend mode="normal" in="SourceGraphic" in2="effect1_dropShadow_26_8" result="shape"/>
</filter>
<linearGradient id="paint0_linear_26_8" x1="139" y1="-2" x2="139" y2="85" gradientUnits="userSpaceOnUse">
<stop stop-color="#B3AEAE" stop-opacity="0.88"/>
<stop offset="1" stop-color="#5F5F5F" stop-opacity="0.2"/>
</linearGradient>
</defs>
</svg>
