<svg width="296" height="105" viewBox="0 0 296 105" fill="none" xmlns="http://www.w3.org/2000/svg">
<g filter="url(#filter0_d_26_5)">
<path d="M9 -2H287V45C287 67.0914 269.091 85 247 85H49C26.9086 85 9 67.0914 9 45V-2Z" fill="url(#paint0_linear_26_5)" shape-rendering="crispEdges"/>
</g>
<path d="M44.2312 36.37C41.0245 36.37 38.6072 35.4327 36.9792 33.558C35.3512 31.6833 34.5372 29.1673 34.5372 26.01C34.5372 24.456 34.7099 22.8897 35.0552 21.311C35.4252 19.7077 35.9679 18.1907 36.6832 16.76C37.4232 15.3047 38.3482 14.0097 39.4582 12.875C40.5682 11.7157 41.8879 10.8153 43.4172 10.174C44.9712 9.508 46.7225 9.175 48.6712 9.175C50.3485 9.175 51.7669 9.33533 52.9262 9.656C54.1102 9.952 55.2819 10.4207 56.4412 11.062L54.2952 15.576C53.4565 15.0827 52.5809 14.6757 51.6682 14.355C50.7802 14.0097 49.7812 13.837 48.6712 13.837C47.1912 13.837 45.9085 14.207 44.8232 14.947C43.7625 15.687 42.8869 16.649 42.1962 17.833C41.5055 19.017 40.9875 20.2997 40.6422 21.681C40.3215 23.0623 40.1612 24.4067 40.1612 25.714C40.1612 27.712 40.5682 29.2043 41.3822 30.191C42.2209 31.1777 43.5405 31.671 45.3412 31.671C46.3525 31.671 47.3639 31.5353 48.3752 31.264C49.4112 30.9927 50.4349 30.6597 51.4462 30.265V34.964C50.7062 35.26 49.7195 35.5683 48.4862 35.889C47.2529 36.2097 45.8345 36.37 44.2312 36.37ZM54.8985 36L59.1905 15.798H63.3345L62.9645 19.535H63.1125C63.9018 18.3263 64.8021 17.3397 65.8135 16.575C66.8495 15.8103 68.0705 15.428 69.4765 15.428C71.2278 15.428 72.5351 15.9583 73.3985 17.019C74.2618 18.055 74.6935 19.461 74.6935 21.237C74.6935 22.125 74.5578 23.2103 74.2865 24.493L71.8815 36H66.4425L68.9215 24.197C69.1188 23.3337 69.2175 22.6183 69.2175 22.051C69.2175 20.571 68.5638 19.831 67.2565 19.831C66.4425 19.831 65.7025 20.1887 65.0365 20.904C64.3705 21.5947 63.7908 22.532 63.2975 23.716C62.8288 24.9 62.4341 26.2073 62.1135 27.638L60.3375 36H54.8985ZM85.1835 36.37C83.6789 36.37 82.3345 36.0617 81.1505 35.445C79.9912 34.8037 79.0785 33.9033 78.4125 32.744C77.7712 31.5847 77.4505 30.2033 77.4505 28.6C77.4505 26.824 77.6725 25.1467 78.1165 23.568C78.5605 21.9647 79.2265 20.5587 80.1145 19.35C81.0025 18.1167 82.1125 17.1547 83.4445 16.464C84.8012 15.7733 86.3799 15.428 88.1805 15.428C90.5239 15.428 92.3862 16.131 93.7675 17.537C95.1489 18.943 95.8395 20.904 95.8395 23.42C95.8395 25.122 95.6299 26.75 95.2105 28.304C94.7912 29.858 94.1375 31.2393 93.2495 32.448C92.3862 33.6567 91.2762 34.6187 89.9195 35.334C88.5875 36.0247 87.0089 36.37 85.1835 36.37ZM85.6275 31.93C86.6389 31.93 87.4899 31.523 88.1805 30.709C88.8959 29.895 89.4385 28.8467 89.8085 27.564C90.1785 26.2567 90.3635 24.8753 90.3635 23.42C90.3635 22.4087 90.1662 21.57 89.7715 20.904C89.4015 20.2133 88.7355 19.868 87.7735 19.868C86.9595 19.868 86.2442 20.1517 85.6275 20.719C85.0109 21.2617 84.5052 21.977 84.1105 22.865C83.7159 23.753 83.4199 24.7027 83.2225 25.714C83.0252 26.7253 82.9265 27.6873 82.9265 28.6C82.9265 30.82 83.8269 31.93 85.6275 31.93ZM95.5051 44.88L101.684 15.798H105.828L105.532 18.869H105.68C106.321 18.0057 107.111 17.2163 108.048 16.501C108.985 15.7857 110.108 15.428 111.415 15.428C112.402 15.428 113.327 15.6747 114.19 16.168C115.053 16.6367 115.756 17.4137 116.299 18.499C116.842 19.5597 117.113 20.9903 117.113 22.791C117.113 24.419 116.891 26.047 116.447 27.675C116.003 29.2783 115.374 30.7337 114.56 32.041C113.746 33.3483 112.759 34.3967 111.6 35.186C110.465 35.9753 109.183 36.37 107.752 36.37C106.519 36.37 105.569 36.0863 104.903 35.519C104.237 34.9517 103.657 34.2487 103.164 33.41H103.016C102.942 34.3967 102.843 35.297 102.72 36.111C102.597 36.925 102.436 37.8007 102.239 38.738L100.944 44.88H95.5051ZM106.827 31.967C107.493 31.967 108.11 31.708 108.677 31.19C109.269 30.6473 109.775 29.9443 110.194 29.081C110.638 28.2177 110.983 27.2557 111.23 26.195C111.477 25.1343 111.6 24.0737 111.6 23.013C111.6 20.8917 110.811 19.831 109.232 19.831C108.344 19.831 107.592 20.1517 106.975 20.793C106.358 21.4343 105.853 22.236 105.458 23.198C105.063 24.16 104.767 25.1467 104.57 26.158C104.397 27.1693 104.311 28.045 104.311 28.785C104.311 29.747 104.533 30.524 104.977 31.116C105.446 31.6833 106.062 31.967 106.827 31.967ZM118.657 36L122.949 15.798H127.093L126.723 19.535H126.871C127.66 18.3263 128.561 17.3397 129.572 16.575C130.608 15.8103 131.829 15.428 133.235 15.428C134.616 15.428 135.689 15.798 136.454 16.538C137.219 17.2533 137.724 18.2523 137.971 19.535H138.119C138.884 18.3263 139.796 17.3397 140.857 16.575C141.918 15.8103 143.151 15.428 144.557 15.428C146.234 15.428 147.492 15.9583 148.331 17.019C149.17 18.055 149.589 19.461 149.589 21.237C149.589 22.125 149.453 23.2103 149.182 24.493L146.777 36H141.338L143.817 24.197C144.014 23.3337 144.113 22.6183 144.113 22.051C144.113 20.571 143.521 19.831 142.337 19.831C141.523 19.831 140.783 20.1763 140.117 20.867C139.451 21.5577 138.871 22.495 138.378 23.679C137.885 24.8383 137.49 26.1457 137.194 27.601L135.455 36H130.016L132.495 24.197C132.692 23.3337 132.791 22.6183 132.791 22.051C132.791 20.571 132.199 19.831 131.015 19.831C130.201 19.831 129.461 20.1887 128.795 20.904C128.129 21.5947 127.549 22.532 127.056 23.716C126.587 24.9 126.193 26.2073 125.872 27.638L124.096 36H118.657ZM157.887 36.37C156.16 36.37 154.865 35.852 154.002 34.816C153.163 33.7553 152.744 32.337 152.744 30.561C152.744 30.117 152.781 29.5497 152.855 28.859C152.929 28.1437 153.04 27.4283 153.188 26.713L155.482 15.798H160.921L158.442 27.601C158.245 28.4643 158.146 29.1797 158.146 29.747C158.146 31.227 158.8 31.967 160.107 31.967C160.946 31.967 161.686 31.6217 162.327 30.931C162.993 30.2157 163.573 29.266 164.066 28.082C164.559 26.898 164.954 25.5907 165.25 24.16L167.026 15.798H172.465L168.173 36H164.029L164.399 32.263H164.214C163.449 33.4717 162.549 34.4583 161.513 35.223C160.502 35.9877 159.293 36.37 157.887 36.37ZM182.585 36.37C179.823 36.37 177.689 35.667 176.184 34.261C174.704 32.8303 173.964 30.8077 173.964 28.193C173.964 26.5157 174.198 24.9123 174.667 23.383C175.16 21.8537 175.876 20.497 176.813 19.313C177.751 18.1043 178.91 17.1547 180.291 16.464C181.697 15.7733 183.325 15.428 185.175 15.428C187.346 15.428 189.097 15.8967 190.429 16.834C191.786 17.7713 192.464 19.1157 192.464 20.867C192.464 22.3717 192.045 23.4817 191.206 24.197C190.392 24.9123 189.356 25.418 188.098 25.714V25.862C188.962 26.1087 189.714 26.5527 190.355 27.194C190.997 27.8107 191.317 28.711 191.317 29.895C191.317 31.0297 191.009 32.0903 190.392 33.077C189.776 34.0637 188.826 34.8653 187.543 35.482C186.261 36.074 184.608 36.37 182.585 36.37ZM183.806 23.679C184.842 23.679 185.644 23.4693 186.211 23.05C186.803 22.6307 187.099 22.0017 187.099 21.163C187.099 20.5957 186.902 20.1517 186.507 19.831C186.113 19.5103 185.595 19.35 184.953 19.35C183.893 19.35 182.943 19.7447 182.104 20.534C181.29 21.3233 180.649 22.3717 180.18 23.679H183.806ZM182.659 32.559C183.671 32.559 184.448 32.3 184.99 31.782C185.558 31.264 185.841 30.598 185.841 29.784C185.841 28.9947 185.545 28.4027 184.953 28.008C184.386 27.6133 183.424 27.416 182.067 27.416H179.44C179.416 27.5887 179.403 27.7737 179.403 27.971C179.403 28.1683 179.403 28.3657 179.403 28.563C179.403 29.9937 179.712 31.0173 180.328 31.634C180.97 32.2507 181.747 32.559 182.659 32.559ZM193.472 36L197.801 15.798H203.277L201.612 23.568H207.902L209.53 15.798H214.969L210.677 36H205.238L206.977 27.675H200.724L198.948 36H193.472ZM223.82 36.37C222.044 36.37 220.638 36.111 219.602 35.593C218.591 35.075 217.863 34.372 217.419 33.484C217 32.5713 216.79 31.5723 216.79 30.487C216.79 30.1663 216.815 29.71 216.864 29.118C216.913 28.5013 217.024 27.823 217.197 27.083L219.639 15.798H225.078L223.302 24.012C223.795 23.8887 224.35 23.79 224.967 23.716C225.584 23.642 226.25 23.605 226.965 23.605C228.618 23.605 229.974 24.086 231.035 25.048C232.096 26.01 232.626 27.3173 232.626 28.97C232.626 30.228 232.318 31.4243 231.701 32.559C231.109 33.669 230.159 34.5817 228.852 35.297C227.569 36.0123 225.892 36.37 223.82 36.37ZM234.217 36L238.509 15.798H243.948L239.656 36H234.217ZM224.264 32.559C225.127 32.559 225.83 32.2877 226.373 31.745C226.916 31.2023 227.187 30.4747 227.187 29.562C227.187 28.1313 226.435 27.416 224.93 27.416C224.239 27.416 223.45 27.527 222.562 27.749C222.414 28.3903 222.315 28.8713 222.266 29.192C222.217 29.488 222.192 29.8703 222.192 30.339C222.192 31.1283 222.402 31.6957 222.821 32.041C223.24 32.3863 223.721 32.559 224.264 32.559ZM253.447 36.37C251.079 36.37 249.155 35.7287 247.675 34.446C246.195 33.1387 245.455 31.1777 245.455 28.563C245.455 26.861 245.689 25.233 246.158 23.679C246.651 22.1003 247.367 20.6943 248.304 19.461C249.266 18.2277 250.45 17.2533 251.856 16.538C253.262 15.798 254.89 15.428 256.74 15.428C259.009 15.428 260.699 15.946 261.809 16.982C262.944 18.018 263.511 19.3377 263.511 20.941C263.511 23.0623 262.549 24.7643 260.625 26.047C258.726 27.3297 255.815 27.971 251.893 27.971H250.968C250.943 28.119 250.931 28.2547 250.931 28.378C250.931 28.4767 250.931 28.5877 250.931 28.711C250.931 29.7963 251.239 30.6597 251.856 31.301C252.497 31.9423 253.385 32.263 254.52 32.263C255.581 32.263 256.543 32.1397 257.406 31.893C258.269 31.6463 259.293 31.2517 260.477 30.709V34.816C259.416 35.334 258.343 35.7287 257.258 36C256.173 36.2467 254.902 36.37 253.447 36.37ZM252.374 24.308C254.471 24.308 255.975 23.9873 256.888 23.346C257.825 22.68 258.294 21.9153 258.294 21.052C258.294 19.9173 257.665 19.35 256.407 19.35C255.741 19.35 255.075 19.5597 254.409 19.979C253.743 20.3983 253.151 20.978 252.633 21.718C252.14 22.458 251.782 23.3213 251.56 24.308H252.374ZM59.4519 79L63.7809 58.798H69.2199L67.2219 68.196L75.1769 58.798H81.3929L72.7349 68.936L77.7299 79H71.6249L66.9999 69.158L64.8909 79H59.4519ZM88.0749 79.37C86.5702 79.37 85.2259 79.0617 84.0419 78.445C82.8826 77.8037 81.9699 76.9033 81.3039 75.744C80.6626 74.5847 80.3419 73.2033 80.3419 71.6C80.3419 69.824 80.5639 68.1467 81.0079 66.568C81.4519 64.9647 82.1179 63.5587 83.0059 62.35C83.8939 61.1167 85.0039 60.1547 86.3359 59.464C87.6926 58.7733 89.2712 58.428 91.0719 58.428C93.4152 58.428 95.2776 59.131 96.6589 60.537C98.0402 61.943 98.7309 63.904 98.7309 66.42C98.7309 68.122 98.5212 69.75 98.1019 71.304C97.6826 72.858 97.0289 74.2393 96.1409 75.448C95.2776 76.6567 94.1676 77.6187 92.8109 78.334C91.4789 79.0247 89.9002 79.37 88.0749 79.37ZM88.5189 74.93C89.5302 74.93 90.3812 74.523 91.0719 73.709C91.7872 72.895 92.3299 71.8467 92.6999 70.564C93.0699 69.2567 93.2549 67.8753 93.2549 66.42C93.2549 65.4087 93.0576 64.57 92.6629 63.904C92.2929 63.2133 91.6269 62.868 90.6649 62.868C89.8509 62.868 89.1356 63.1517 88.5189 63.719C87.9022 64.2617 87.3966 64.977 87.0019 65.865C86.6072 66.753 86.3112 67.7027 86.1139 68.714C85.9166 69.7253 85.8179 70.6873 85.8179 71.6C85.8179 73.82 86.7182 74.93 88.5189 74.93ZM108.756 79.37C107.375 79.37 106.105 79.1233 104.945 78.63C103.811 78.112 102.91 77.3103 102.244 76.225C101.578 75.1397 101.245 73.709 101.245 71.933C101.245 70.1077 101.48 68.3933 101.948 66.79C102.417 65.162 103.108 63.719 104.02 62.461C104.933 61.203 106.055 60.2163 107.387 59.501C108.719 58.7857 110.236 58.428 111.938 58.428C113.147 58.428 114.22 58.539 115.157 58.761C116.119 58.983 117.02 59.3037 117.858 59.723L116.193 63.867C115.552 63.5957 114.911 63.3613 114.269 63.164C113.653 62.942 112.95 62.831 112.16 62.831C111.026 62.831 110.051 63.2627 109.237 64.126C108.423 64.9647 107.807 66.05 107.387 67.382C106.968 68.6893 106.758 70.0583 106.758 71.489C106.758 72.6237 107.03 73.487 107.572 74.079C108.115 74.671 108.88 74.967 109.866 74.967C110.779 74.967 111.618 74.8313 112.382 74.56C113.172 74.264 113.986 73.9063 114.824 73.487V77.927C113.986 78.371 113.073 78.7287 112.086 79C111.124 79.2467 110.014 79.37 108.756 79.37ZM117.429 79L121.721 58.798H125.865L125.495 62.535H125.643C126.433 61.3263 127.333 60.3397 128.344 59.575C129.38 58.8103 130.601 58.428 132.007 58.428C133.389 58.428 134.462 58.798 135.226 59.538C135.991 60.2533 136.497 61.2523 136.743 62.535H136.891C137.656 61.3263 138.569 60.3397 139.629 59.575C140.69 58.8103 141.923 58.428 143.329 58.428C145.007 58.428 146.265 58.9583 147.103 60.019C147.942 61.055 148.361 62.461 148.361 64.237C148.361 65.125 148.226 66.2103 147.954 67.493L145.549 79H140.11L142.589 67.197C142.787 66.3337 142.885 65.6183 142.885 65.051C142.885 63.571 142.293 62.831 141.109 62.831C140.295 62.831 139.555 63.1763 138.889 63.867C138.223 64.5577 137.644 65.495 137.15 66.679C136.657 67.8383 136.262 69.1457 135.966 70.601L134.227 79H128.788L131.267 67.197C131.465 66.3337 131.563 65.6183 131.563 65.051C131.563 63.571 130.971 62.831 129.787 62.831C128.973 62.831 128.233 63.1887 127.567 63.904C126.901 64.5947 126.322 65.532 125.828 66.716C125.36 67.9 124.965 69.2073 124.644 70.638L122.868 79H117.429ZM168.573 79.37C166.255 79.37 164.442 78.6917 163.134 77.335C161.827 75.9537 161.173 74.0543 161.173 71.637V70.675H157.436L155.66 79H150.184L154.513 58.798H159.989L158.324 66.568H161.802C162.222 64.9893 162.851 63.5957 163.689 62.387C164.553 61.1537 165.626 60.1917 166.908 59.501C168.191 58.7857 169.696 58.428 171.422 58.428C173.815 58.428 175.64 59.1433 176.898 60.574C178.156 62.0047 178.785 63.9533 178.785 66.42C178.785 68.122 178.576 69.75 178.156 71.304C177.762 72.858 177.145 74.2393 176.306 75.448C175.468 76.6567 174.407 77.6187 173.124 78.334C171.842 79.0247 170.325 79.37 168.573 79.37ZM168.98 74.93C169.819 74.93 170.559 74.523 171.2 73.709C171.866 72.895 172.384 71.8467 172.754 70.564C173.124 69.2567 173.309 67.8753 173.309 66.42C173.309 65.4087 173.137 64.57 172.791 63.904C172.446 63.2133 171.829 62.868 170.941 62.868C170.226 62.868 169.585 63.1517 169.017 63.719C168.475 64.2617 168.018 64.977 167.648 65.865C167.278 66.753 166.995 67.7027 166.797 68.714C166.6 69.7253 166.501 70.6873 166.501 71.6C166.501 73.82 167.328 74.93 168.98 74.93ZM180.486 79L184.741 58.798H192.252L193.029 72.895H193.14L200.392 58.798H208.125L203.796 79H198.764L200.984 69.01C201.181 68.0727 201.391 67.1723 201.613 66.309C201.835 65.421 202.032 64.7057 202.205 64.163H202.094L194.435 79H189.218L188.404 64.163H188.33C188.207 65.1497 188.071 66.05 187.923 66.864C187.775 67.6533 187.615 68.4427 187.442 69.232L185.481 79H180.486ZM216.467 79.37C214.691 79.37 213.285 79.111 212.249 78.593C211.238 78.075 210.51 77.372 210.066 76.484C209.647 75.5713 209.437 74.5723 209.437 73.487C209.437 73.1663 209.462 72.71 209.511 72.118C209.56 71.5013 209.671 70.823 209.844 70.083L212.286 58.798H217.725L215.949 67.012C216.442 66.8887 216.997 66.79 217.614 66.716C218.231 66.642 218.897 66.605 219.612 66.605C221.265 66.605 222.621 67.086 223.682 68.048C224.743 69.01 225.273 70.3173 225.273 71.97C225.273 73.228 224.965 74.4243 224.348 75.559C223.756 76.669 222.806 77.5817 221.499 78.297C220.216 79.0123 218.539 79.37 216.467 79.37ZM226.864 79L231.156 58.798H236.595L232.303 79H226.864ZM216.911 75.559C217.774 75.559 218.477 75.2877 219.02 74.745C219.563 74.2023 219.834 73.4747 219.834 72.562C219.834 71.1313 219.082 70.416 217.577 70.416C216.886 70.416 216.097 70.527 215.209 70.749C215.061 71.3903 214.962 71.8713 214.913 72.192C214.864 72.488 214.839 72.8703 214.839 73.339C214.839 74.1283 215.049 74.6957 215.468 75.041C215.887 75.3863 216.368 75.559 216.911 75.559Z" fill="#FF228C"/>
<defs>
<filter id="filter0_d_26_5" x="0" y="-2" width="296" height="107" filterUnits="userSpaceOnUse" color-interpolation-filters="sRGB">
<feFlood flood-opacity="0" result="BackgroundImageFix"/>
<feColorMatrix in="SourceAlpha" type="matrix" values="0 0 0 0 0 0 0 0 0 0 0 0 0 0 0 0 0 0 127 0" result="hardAlpha"/>
<feOffset dy="11"/>
<feGaussianBlur stdDeviation="4.5"/>
<feComposite in2="hardAlpha" operator="out"/>
<feColorMatrix type="matrix" values="0 0 0 0 0 0 0 0 0 0 0 0 0 0 0 0 0 0 0.53 0"/>
<feBlend mode="normal" in2="BackgroundImageFix" result="effect1_dropShadow_26_5"/>
<feBlend mode="normal" in="SourceGraphic" in2="effect1_dropShadow_26_5" result="shape"/>
</filter>
<linearGradient id="paint0_linear_26_5" x1="148" y1="-2" x2="148" y2="85" gradientUnits="userSpaceOnUse">
<stop stop-color="#B3AEAE" stop-opacity="0.88"/>
<stop offset="1" stop-color="#5F5F5F" stop-opacity="0.2"/>
</linearGradient>
</defs>
</svg>
