<svg width="296" height="105" viewBox="0 0 296 105" fill="none" xmlns="http://www.w3.org/2000/svg">
<g filter="url(#filter0_d_26_6)">
<path d="M9 -2H287V45C287 67.0914 269.091 85 247 85H49C26.9086 85 9 67.0914 9 45V-2Z" fill="url(#paint0_linear_26_6)" shape-rendering="crispEdges"/>
</g>
<path d="M57.236 33L62.823 6.582H68.484L63.859 28.338H70.741L75.366 6.582H81.064L76.439 28.338H83.321L87.946 6.582H93.607L88.02 33H57.236ZM93.3445 33L97.6735 12.798H103.112L101.114 22.196L109.069 12.798H115.285L106.627 22.936L111.622 33H105.517L100.892 23.158L98.7835 33H93.3445ZM121.967 33.37C120.463 33.37 119.118 33.0617 117.934 32.445C116.775 31.8037 115.862 30.9033 115.196 29.744C114.555 28.5847 114.234 27.2033 114.234 25.6C114.234 23.824 114.456 22.1467 114.9 20.568C115.344 18.9647 116.01 17.5587 116.898 16.35C117.786 15.1167 118.896 14.1547 120.228 13.464C121.585 12.7733 123.164 12.428 124.964 12.428C127.308 12.428 129.17 13.131 130.551 14.537C131.933 15.943 132.623 17.904 132.623 20.42C132.623 22.122 132.414 23.75 131.994 25.304C131.575 26.858 130.921 28.2393 130.033 29.448C129.17 30.6567 128.06 31.6187 126.703 32.334C125.371 33.0247 123.793 33.37 121.967 33.37ZM122.411 28.93C123.423 28.93 124.274 28.523 124.964 27.709C125.68 26.895 126.222 25.8467 126.592 24.564C126.962 23.2567 127.147 21.8753 127.147 20.42C127.147 19.4087 126.95 18.57 126.555 17.904C126.185 17.2133 125.519 16.868 124.557 16.868C123.743 16.868 123.028 17.1517 122.411 17.719C121.795 18.2617 121.289 18.977 120.894 19.865C120.5 20.753 120.204 21.7027 120.006 22.714C119.809 23.7253 119.71 24.6873 119.71 25.6C119.71 27.82 120.611 28.93 122.411 28.93ZM135.138 33.37C134.102 33.37 133.202 33.222 132.437 32.926V28.449C132.906 28.6463 133.411 28.745 133.954 28.745C134.595 28.745 135.126 28.4613 135.545 27.894C135.964 27.302 136.347 26.525 136.692 25.563C137.037 24.601 137.407 23.5527 137.802 22.418C138.394 20.716 138.986 19.236 139.578 17.978C140.17 16.72 140.861 15.684 141.65 14.87C142.439 14.056 143.438 13.4517 144.647 13.057C145.856 12.6377 147.373 12.428 149.198 12.428C150.431 12.428 151.603 12.539 152.713 12.761C153.848 12.9583 154.76 13.1927 155.451 13.464L151.344 33H145.905L149.309 17.016C149.136 16.9667 148.951 16.9297 148.754 16.905C148.557 16.8803 148.359 16.868 148.162 16.868C147.175 16.868 146.374 17.1517 145.757 17.719C145.165 18.2863 144.647 19.125 144.203 20.235C143.759 21.345 143.253 22.7263 142.686 24.379C142.267 25.6123 141.847 26.7717 141.428 27.857C141.033 28.9423 140.565 29.9043 140.022 30.743C139.479 31.557 138.813 32.1983 138.024 32.667C137.259 33.1357 136.297 33.37 135.138 33.37ZM164.636 33.37C162.884 33.37 161.478 33.111 160.418 32.593C159.357 32.075 158.592 31.372 158.124 30.484C157.655 29.5713 157.421 28.56 157.421 27.45C157.421 26.6113 157.569 25.526 157.865 24.194L160.307 12.798H165.746L163.97 21.012C164.488 20.8887 165.067 20.79 165.709 20.716C166.35 20.642 167.078 20.605 167.892 20.605C170.013 20.605 171.604 21.1353 172.665 22.196C173.75 23.232 174.293 24.527 174.293 26.081C174.293 27.265 173.984 28.412 173.368 29.522C172.751 30.632 171.74 31.557 170.334 32.297C168.928 33.0123 167.028 33.37 164.636 33.37ZM165.413 29.559C166.547 29.559 167.398 29.2753 167.966 28.708C168.533 28.116 168.817 27.4253 168.817 26.636C168.817 25.97 168.619 25.4397 168.225 25.045C167.83 24.6257 167.127 24.416 166.116 24.416C165.277 24.416 164.315 24.527 163.23 24.749C163.082 25.3903 162.971 25.8837 162.897 26.229C162.847 26.5743 162.823 26.9197 162.823 27.265C162.823 27.8817 163.02 28.4243 163.415 28.893C163.809 29.337 164.475 29.559 165.413 29.559ZM176.308 33L180.637 12.798H186.113L184.448 20.568H190.738L192.366 12.798H197.805L193.513 33H188.074L189.813 24.675H183.56L181.784 33H176.308ZM205.028 33.37C204.066 33.37 203.141 33.1357 202.253 32.667C201.39 32.1737 200.687 31.3967 200.144 30.336C199.601 29.2507 199.33 27.82 199.33 26.044C199.33 24.3913 199.552 22.7633 199.996 21.16C200.44 19.5567 201.069 18.1013 201.883 16.794C202.697 15.462 203.671 14.4013 204.806 13.612C205.965 12.8227 207.26 12.428 208.691 12.428C209.974 12.428 211.01 12.6993 211.799 13.242C212.613 13.7847 213.242 14.5 213.686 15.388H213.834L214.87 12.798H219.051L214.759 33H210.689L210.948 30.373H210.8C210.085 31.261 209.258 31.9887 208.321 32.556C207.408 33.0987 206.311 33.37 205.028 33.37ZM207.174 28.967C207.914 28.967 208.605 28.671 209.246 28.079C209.887 27.487 210.43 26.7223 210.874 25.785C211.343 24.8477 211.676 23.861 211.873 22.825C212.046 21.937 212.132 20.9257 212.132 19.791C212.132 18.9277 211.91 18.2247 211.466 17.682C211.022 17.1147 210.405 16.831 209.616 16.831C208.95 16.831 208.321 17.1023 207.729 17.645C207.162 18.163 206.656 18.8537 206.212 19.717C205.793 20.5803 205.46 21.5423 205.213 22.603C204.966 23.6637 204.843 24.7243 204.843 25.785C204.843 27.9063 205.62 28.967 207.174 28.967ZM221.299 33.37C220.214 33.37 219.301 33.222 218.561 32.926V28.449C218.758 28.523 218.968 28.597 219.19 28.671C219.437 28.7203 219.696 28.745 219.967 28.745C220.46 28.745 220.867 28.6093 221.188 28.338C221.509 28.042 221.792 27.6967 222.039 27.302C222.68 26.266 223.235 25.5013 223.704 25.008C224.173 24.49 224.765 24.12 225.48 23.898C224.666 23.5527 223.988 23.047 223.445 22.381C222.902 21.715 222.631 20.8023 222.631 19.643C222.631 18.0397 223.026 16.7323 223.815 15.721C224.604 14.7097 225.665 13.9697 226.997 13.501C228.329 13.0323 229.784 12.798 231.363 12.798H239.799L235.544 33H230.105L231.733 25.489H230.623C229.834 25.489 229.217 25.748 228.773 26.266C228.329 26.7593 227.922 27.3883 227.552 28.153C227.207 28.9177 226.775 29.7193 226.257 30.558C225.764 31.3227 225.135 31.9887 224.37 32.556C223.605 33.0987 222.582 33.37 221.299 33.37ZM230.845 21.789H232.51L233.583 16.683H231.289C230.401 16.683 229.661 16.9297 229.069 17.423C228.477 17.9163 228.181 18.6317 228.181 19.569C228.181 20.235 228.391 20.7777 228.81 21.197C229.254 21.5917 229.932 21.789 230.845 21.789ZM97.706 76.148C95.1653 75.852 93.229 74.9393 91.897 73.41C90.565 71.856 89.899 69.9937 89.899 67.823C89.899 66.491 90.1087 65.1343 90.528 63.753C90.9473 62.3717 91.6257 61.1013 92.563 59.942C93.525 58.758 94.783 57.7837 96.337 57.019C97.891 56.2543 99.7903 55.798 102.035 55.65L103.663 47.88H108.843L107.215 55.687C109.706 56.0323 111.606 56.9573 112.913 58.462C114.22 59.9667 114.874 61.8537 114.874 64.123C114.874 65.3317 114.701 66.5897 114.356 67.897C114.011 69.2043 113.394 70.4623 112.506 71.671C111.643 72.855 110.422 73.8663 108.843 74.705C107.264 75.5437 105.254 76.0863 102.812 76.333L101.073 84.88H95.819L97.706 76.148ZM101.147 59.868C100.062 59.942 99.149 60.238 98.409 60.756C97.669 61.274 97.077 61.9153 96.633 62.68C96.2137 63.4447 95.9053 64.2463 95.708 65.085C95.5353 65.9237 95.449 66.6883 95.449 67.379C95.449 68.6123 95.708 69.6483 96.226 70.487C96.744 71.301 97.521 71.782 98.557 71.93L101.147 59.868ZM103.737 71.93C104.872 71.782 105.797 71.4243 106.512 70.857C107.252 70.2897 107.819 69.6237 108.214 68.859C108.633 68.0697 108.929 67.268 109.102 66.454C109.275 65.64 109.361 64.9 109.361 64.234C109.361 63.124 109.102 62.1743 108.584 61.385C108.066 60.5957 107.301 60.1147 106.29 59.942L103.737 71.93ZM125.112 76.37C123.607 76.37 122.263 76.0617 121.079 75.445C119.919 74.8037 119.007 73.9033 118.341 72.744C117.699 71.5847 117.379 70.2033 117.379 68.6C117.379 66.824 117.601 65.1467 118.045 63.568C118.489 61.9647 119.155 60.5587 120.043 59.35C120.931 58.1167 122.041 57.1547 123.373 56.464C124.729 55.7733 126.308 55.428 128.109 55.428C130.452 55.428 132.314 56.131 133.696 57.537C135.077 58.943 135.768 60.904 135.768 63.42C135.768 65.122 135.558 66.75 135.139 68.304C134.719 69.858 134.066 71.2393 133.178 72.448C132.314 73.6567 131.204 74.6187 129.848 75.334C128.516 76.0247 126.937 76.37 125.112 76.37ZM125.556 71.93C126.567 71.93 127.418 71.523 128.109 70.709C128.824 69.895 129.367 68.8467 129.737 67.564C130.107 66.2567 130.292 64.8753 130.292 63.42C130.292 62.4087 130.094 61.57 129.7 60.904C129.33 60.2133 128.664 59.868 127.702 59.868C126.888 59.868 126.172 60.1517 125.556 60.719C124.939 61.2617 124.433 61.977 124.039 62.865C123.644 63.753 123.348 64.7027 123.151 65.714C122.953 66.7253 122.855 67.6873 122.855 68.6C122.855 70.82 123.755 71.93 125.556 71.93ZM135.433 84.88L141.612 55.798H145.756L145.46 58.869H145.608C146.25 58.0057 147.039 57.2163 147.976 56.501C148.914 55.7857 150.036 55.428 151.343 55.428C152.33 55.428 153.255 55.6747 154.118 56.168C154.982 56.6367 155.685 57.4137 156.227 58.499C156.77 59.5597 157.041 60.9903 157.041 62.791C157.041 64.419 156.819 66.047 156.375 67.675C155.931 69.2783 155.302 70.7337 154.488 72.041C153.674 73.3483 152.688 74.3967 151.528 75.186C150.394 75.9753 149.111 76.37 147.68 76.37C146.447 76.37 145.497 76.0863 144.831 75.519C144.165 74.9517 143.586 74.2487 143.092 73.41H142.944C142.87 74.3967 142.772 75.297 142.648 76.111C142.525 76.925 142.365 77.8007 142.167 78.738L140.872 84.88H135.433ZM146.755 71.967C147.421 71.967 148.038 71.708 148.605 71.19C149.197 70.6473 149.703 69.9443 150.122 69.081C150.566 68.2177 150.912 67.2557 151.158 66.195C151.405 65.1343 151.528 64.0737 151.528 63.013C151.528 60.8917 150.739 59.831 149.16 59.831C148.272 59.831 147.52 60.1517 146.903 60.793C146.287 61.4343 145.781 62.236 145.386 63.198C144.992 64.16 144.696 65.1467 144.498 66.158C144.326 67.1693 144.239 68.045 144.239 68.785C144.239 69.747 144.461 70.524 144.905 71.116C145.374 71.6833 145.991 71.967 146.755 71.967ZM158.733 76L162.988 55.798H170.499L171.276 69.895H171.387L178.639 55.798H186.372L182.043 76H177.011L179.231 66.01C179.429 65.0727 179.638 64.1723 179.86 63.309C180.082 62.421 180.28 61.7057 180.452 61.163H180.341L172.682 76H167.465L166.651 61.163H166.577C166.454 62.1497 166.318 63.05 166.17 63.864C166.022 64.6533 165.862 65.4427 165.689 66.232L163.728 76H158.733ZM193.086 76.37C192.124 76.37 191.199 76.1357 190.311 75.667C189.448 75.1737 188.745 74.3967 188.202 73.336C187.66 72.2507 187.388 70.82 187.388 69.044C187.388 67.3913 187.61 65.7633 188.054 64.16C188.498 62.5567 189.127 61.1013 189.941 59.794C190.755 58.462 191.73 57.4013 192.864 56.612C194.024 55.8227 195.319 55.428 196.749 55.428C198.032 55.428 199.068 55.6993 199.857 56.242C200.671 56.7847 201.3 57.5 201.744 58.388H201.892L202.928 55.798H207.109L202.817 76H198.747L199.006 73.373H198.858C198.143 74.261 197.317 74.9887 196.379 75.556C195.467 76.0987 194.369 76.37 193.086 76.37ZM195.232 71.967C195.972 71.967 196.663 71.671 197.304 71.079C197.946 70.487 198.488 69.7223 198.932 68.785C199.401 67.8477 199.734 66.861 199.931 65.825C200.104 64.937 200.19 63.9257 200.19 62.791C200.19 61.9277 199.968 61.2247 199.524 60.682C199.08 60.1147 198.464 59.831 197.674 59.831C197.008 59.831 196.379 60.1023 195.787 60.645C195.22 61.163 194.714 61.8537 194.27 62.717C193.851 63.5803 193.518 64.5423 193.271 65.603C193.025 66.6637 192.901 67.7243 192.901 68.785C192.901 70.9063 193.678 71.967 195.232 71.967Z" fill="#FF228C"/>
<defs>
<filter id="filter0_d_26_6" x="0" y="-2" width="296" height="107" filterUnits="userSpaceOnUse" color-interpolation-filters="sRGB">
<feFlood flood-opacity="0" result="BackgroundImageFix"/>
<feColorMatrix in="SourceAlpha" type="matrix" values="0 0 0 0 0 0 0 0 0 0 0 0 0 0 0 0 0 0 127 0" result="hardAlpha"/>
<feOffset dy="11"/>
<feGaussianBlur stdDeviation="4.5"/>
<feComposite in2="hardAlpha" operator="out"/>
<feColorMatrix type="matrix" values="0 0 0 0 0 0 0 0 0 0 0 0 0 0 0 0 0 0 0.53 0"/>
<feBlend mode="normal" in2="BackgroundImageFix" result="effect1_dropShadow_26_6"/>
<feBlend mode="normal" in="SourceGraphic" in2="effect1_dropShadow_26_6" result="shape"/>
</filter>
<linearGradient id="paint0_linear_26_6" x1="148" y1="-2" x2="148" y2="85" gradientUnits="userSpaceOnUse">
<stop stop-color="#B3AEAE" stop-opacity="0.88"/>
<stop offset="1" stop-color="#5F5F5F" stop-opacity="0.2"/>
</linearGradient>
</defs>
</svg>
